; Drill file
; Format: 2.4 (00.0000)
M48
INCH
T01C0.0394
T02C0.0433
T03C0.0787
T04C0.1378
%
G05
G90
T01
X007820Y018860
X007820Y019860
X007820Y020860
X007820Y021860
X007840Y023220
X005840Y021770
X004060Y022340
X004060Y023340
X005840Y024770
X004860Y025560
X002540Y025740
X001540Y025740
X001540Y028240
X002540Y028240
X001860Y029810
X004860Y029810
X004860Y028560
X007820Y028360
X007820Y027360
X007840Y026220
X007820Y029360
X007820Y030360
X007820Y031360
X004760Y032680
X002760Y032680
X012070Y031360
X012070Y030360
X012070Y029360
X012070Y028360
X012100Y026410
X015100Y026410
X015070Y028360
X015070Y029360
X015070Y030360
X015070Y031360
X019450Y030670
X019450Y032400
X019450Y034130
X019450Y035870
X022450Y035870
X024010Y035330
X024510Y034780
X024010Y034230
X022450Y034130
X022450Y032400
X023840Y031590
X024340Y031040
X024340Y032140
X026300Y031100
X026300Y030100
X027300Y030100
X027300Y031100
X027300Y029100
X026300Y029100
X026300Y028100
X027300Y028100
X024500Y027940
X024000Y027390
X024000Y028500
X022450Y028940
X022450Y030670
X019450Y028940
X019450Y027210
X019450Y025470
X019450Y023740
X019450Y022490
X019590Y021220
X019090Y020670
X019590Y020120
X022450Y022490
X022450Y023740
X023830Y024690
X024330Y024140
X024330Y025240
X022450Y025470
X022450Y027210
X026640Y024610
X027340Y023500
X024520Y022490
X027340Y020500
X025190Y016470
X023860Y016470
X020720Y016470
T02
X010820Y016360
X010820Y017360
X010820Y018360
X010820Y019360
X010820Y020360
X010820Y021360
X010820Y022360
X010820Y023360
X010820Y024360
X010820Y025360
X010820Y026360
X010820Y027360
X010820Y028360
X010820Y029360
X010820Y030360
X010820Y031360
X010820Y032360
X010820Y033360
X010820Y034360
X010820Y035360
X016820Y035360
X016820Y034360
X016820Y033360
X016820Y032360
X016820Y031360
X016820Y030360
X016820Y029360
X016820Y028360
X016820Y027360
X016820Y026360
X016820Y025360
X016820Y024360
X016820Y023360
X016820Y022360
X016820Y021360
X016820Y020360
X016820Y019360
X016820Y018360
X016820Y017360
X016820Y016360
T03
X003150Y036220
X005120Y036220
T04
X008140Y011480
X026890Y011480
X026890Y037230
X008140Y037230
M30
