%FSLAX34Y34*%
%MOMM*%
%LNSOLDERMASK_BOTTOM*%
G71*
G01*
%ADD10C, 2.600*%
%ADD11C, 3.100*%
%ADD12C, 2.600*%
%ADD13C, 2.200*%
%ADD14C, 5.100*%
%ADD15C, 3.600*%
%ADD16C, 3.500*%
%LPD*%
X274787Y415473D02*
G54D10*
D03*
X274787Y440873D02*
G54D10*
D03*
X274787Y466273D02*
G54D10*
D03*
X274787Y491673D02*
G54D10*
D03*
X274787Y517073D02*
G54D10*
D03*
X274787Y542473D02*
G54D10*
D03*
X274787Y567873D02*
G54D10*
D03*
X274787Y593273D02*
G54D10*
D03*
X274787Y618673D02*
G54D10*
D03*
X274787Y644073D02*
G54D10*
D03*
X274787Y669473D02*
G54D10*
D03*
X274787Y694873D02*
G54D10*
D03*
X274787Y720273D02*
G54D10*
D03*
X274787Y745673D02*
G54D10*
D03*
X274787Y771073D02*
G54D10*
D03*
X274787Y796473D02*
G54D10*
D03*
X274787Y821873D02*
G54D10*
D03*
X274787Y847273D02*
G54D10*
D03*
X274787Y872673D02*
G54D10*
D03*
X274787Y898073D02*
G54D10*
D03*
X427187Y415473D02*
G54D10*
D03*
X427187Y440873D02*
G54D10*
D03*
X427187Y466273D02*
G54D10*
D03*
X427187Y491673D02*
G54D10*
D03*
X427187Y517073D02*
G54D10*
D03*
X427187Y542473D02*
G54D10*
D03*
X427187Y567873D02*
G54D10*
D03*
X427187Y593273D02*
G54D10*
D03*
X427187Y618673D02*
G54D10*
D03*
X427187Y644073D02*
G54D10*
D03*
X427187Y669473D02*
G54D10*
D03*
X427187Y694873D02*
G54D10*
D03*
X427187Y720273D02*
G54D10*
D03*
X427187Y745673D02*
G54D10*
D03*
X427187Y771073D02*
G54D10*
D03*
X427187Y796473D02*
G54D10*
D03*
X427187Y821873D02*
G54D10*
D03*
X427187Y847273D02*
G54D10*
D03*
X427187Y872673D02*
G54D10*
D03*
X427187Y898073D02*
G54D10*
D03*
X123486Y757097D02*
G54D11*
D03*
X47286Y757097D02*
G54D11*
D03*
X123486Y725347D02*
G54D11*
D03*
X123486Y649147D02*
G54D11*
D03*
X494125Y911025D02*
G54D11*
D03*
X570325Y911025D02*
G54D11*
D03*
X570325Y571275D02*
G54D11*
D03*
X494125Y571275D02*
G54D11*
D03*
X622896Y571171D02*
G54D11*
D03*
X676778Y625053D02*
G54D11*
D03*
X694368Y596978D02*
G54D11*
D03*
X694368Y520778D02*
G54D11*
D03*
X199197Y589664D02*
G54D11*
D03*
X199197Y665864D02*
G54D11*
D03*
X382737Y796473D02*
G54D12*
D03*
X306537Y796473D02*
G54D12*
D03*
X148338Y629032D02*
G54D11*
D03*
X148338Y552832D02*
G54D11*
D03*
X307350Y670875D02*
G54D12*
D03*
X383550Y670875D02*
G54D12*
D03*
X64543Y717207D02*
G54D12*
D03*
X39143Y717207D02*
G54D12*
D03*
X64543Y653707D02*
G54D12*
D03*
X39143Y653707D02*
G54D12*
D03*
X609897Y897492D02*
G54D13*
D03*
X622598Y883492D02*
G54D13*
D03*
X609898Y869492D02*
G54D13*
D03*
X618241Y788444D02*
G54D13*
D03*
X605541Y802443D02*
G54D13*
D03*
X618241Y816444D02*
G54D13*
D03*
X609721Y723789D02*
G54D13*
D03*
X622421Y709788D02*
G54D13*
D03*
X609722Y695788D02*
G54D13*
D03*
X618028Y613048D02*
G54D13*
D03*
X605328Y627048D02*
G54D13*
D03*
X618028Y641048D02*
G54D13*
D03*
X497689Y510933D02*
G54D13*
D03*
X484989Y524933D02*
G54D13*
D03*
X497689Y538933D02*
G54D13*
D03*
X606164Y418246D02*
G54D11*
D03*
X639935Y418246D02*
G54D11*
D03*
X526164Y418246D02*
G54D11*
D03*
X683050Y945750D02*
G54D14*
D03*
X206800Y945750D02*
G54D14*
D03*
X206800Y291700D02*
G54D14*
D03*
X683050Y291700D02*
G54D14*
D03*
X80000Y920000D02*
G54D15*
D03*
X130000Y920000D02*
G54D15*
D03*
X70000Y830000D02*
G54D16*
D03*
X120800Y830000D02*
G54D16*
D03*
G36*
X185587Y681873D02*
X185587Y707873D01*
X211587Y707873D01*
X211587Y681873D01*
X185587Y681873D01*
G37*
X198587Y720273D02*
G54D12*
D03*
X198587Y745673D02*
G54D12*
D03*
X198587Y771073D02*
G54D12*
D03*
X198587Y796473D02*
G54D12*
D03*
G36*
X116120Y605801D02*
X116120Y579801D01*
X90120Y579801D01*
X90120Y605801D01*
X116120Y605801D01*
G37*
X103120Y567401D02*
G54D12*
D03*
G36*
X211587Y568173D02*
X211587Y542173D01*
X185587Y542173D01*
X185587Y568173D01*
X211587Y568173D01*
G37*
X198587Y529773D02*
G54D12*
D03*
X198587Y504373D02*
G54D12*
D03*
X198587Y478973D02*
G54D12*
D03*
G36*
X681098Y803049D02*
X681098Y777049D01*
X655098Y777049D01*
X655098Y803049D01*
X681098Y803049D01*
G37*
X693498Y790049D02*
G54D12*
D03*
X668098Y764649D02*
G54D12*
D03*
X693498Y764649D02*
G54D12*
D03*
X668098Y739250D02*
G54D12*
D03*
X693498Y739249D02*
G54D12*
D03*
X668098Y713849D02*
G54D12*
D03*
X693498Y713849D02*
G54D12*
D03*
X494125Y867025D02*
G54D11*
D03*
X570325Y867025D02*
G54D11*
D03*
X494125Y823025D02*
G54D11*
D03*
X570325Y823025D02*
G54D11*
D03*
X494125Y779025D02*
G54D11*
D03*
X570325Y779025D02*
G54D11*
D03*
X494125Y735025D02*
G54D11*
D03*
X570325Y735025D02*
G54D11*
D03*
X494125Y691025D02*
G54D11*
D03*
X570325Y691025D02*
G54D11*
D03*
X494125Y647025D02*
G54D11*
D03*
X570325Y647025D02*
G54D11*
D03*
X494125Y603025D02*
G54D11*
D03*
X570325Y603025D02*
G54D11*
D03*
X382737Y771073D02*
G54D12*
D03*
X306537Y771073D02*
G54D12*
D03*
X382737Y745673D02*
G54D12*
D03*
X306537Y745673D02*
G54D12*
D03*
X382737Y720273D02*
G54D12*
D03*
X306537Y720273D02*
G54D12*
D03*
M02*
