%FSLAX34Y34*%
%MOMM*%
%LNCOPPER_BOTTOM*%
G71*
G01*
%ADD10C, 2.000*%
%ADD11C, 2.500*%
%ADD12C, 2.000*%
%ADD13C, 1.600*%
%ADD14C, 4.500*%
%ADD15C, 3.000*%
%ADD16C, 2.900*%
%ADD17C, 1.000*%
%ADD18C, 0.500*%
%ADD19C, 0.300*%
%ADD20C, 0.100*%
%ADD21C, 0.700*%
%ADD22C, 1.100*%
%LPD*%
X274787Y415473D02*
G54D10*
D03*
X274787Y440873D02*
G54D10*
D03*
X274787Y466273D02*
G54D10*
D03*
X274787Y491673D02*
G54D10*
D03*
X274787Y517073D02*
G54D10*
D03*
X274787Y542473D02*
G54D10*
D03*
X274787Y567873D02*
G54D10*
D03*
X274787Y593273D02*
G54D10*
D03*
X274787Y618673D02*
G54D10*
D03*
X274787Y644073D02*
G54D10*
D03*
X274787Y669473D02*
G54D10*
D03*
X274787Y694873D02*
G54D10*
D03*
X274787Y720273D02*
G54D10*
D03*
X274787Y745673D02*
G54D10*
D03*
X274787Y771073D02*
G54D10*
D03*
X274787Y796473D02*
G54D10*
D03*
X274787Y821873D02*
G54D10*
D03*
X274787Y847273D02*
G54D10*
D03*
X274787Y872673D02*
G54D10*
D03*
X274787Y898073D02*
G54D10*
D03*
X427187Y415473D02*
G54D10*
D03*
X427187Y440873D02*
G54D10*
D03*
X427187Y466273D02*
G54D10*
D03*
X427187Y491673D02*
G54D10*
D03*
X427187Y517073D02*
G54D10*
D03*
X427187Y542473D02*
G54D10*
D03*
X427187Y567873D02*
G54D10*
D03*
X427187Y593273D02*
G54D10*
D03*
X427187Y618673D02*
G54D10*
D03*
X427187Y644073D02*
G54D10*
D03*
X427187Y669473D02*
G54D10*
D03*
X427187Y694873D02*
G54D10*
D03*
X427187Y720273D02*
G54D10*
D03*
X427187Y745673D02*
G54D10*
D03*
X427187Y771073D02*
G54D10*
D03*
X427187Y796473D02*
G54D10*
D03*
X427187Y821873D02*
G54D10*
D03*
X427187Y847273D02*
G54D10*
D03*
X427187Y872673D02*
G54D10*
D03*
X427187Y898073D02*
G54D10*
D03*
X123486Y757097D02*
G54D11*
D03*
X47286Y757097D02*
G54D11*
D03*
X123486Y725347D02*
G54D11*
D03*
X123486Y649147D02*
G54D11*
D03*
X494125Y911025D02*
G54D11*
D03*
X570325Y911025D02*
G54D11*
D03*
X570325Y571275D02*
G54D11*
D03*
X494125Y571275D02*
G54D11*
D03*
X622896Y571171D02*
G54D11*
D03*
X676778Y625053D02*
G54D11*
D03*
X694368Y596978D02*
G54D11*
D03*
X694368Y520778D02*
G54D11*
D03*
X199197Y589664D02*
G54D11*
D03*
X199197Y665864D02*
G54D11*
D03*
X382737Y796473D02*
G54D12*
D03*
X306537Y796473D02*
G54D12*
D03*
X148338Y629032D02*
G54D11*
D03*
X148338Y552832D02*
G54D11*
D03*
X307350Y670875D02*
G54D12*
D03*
X383550Y670875D02*
G54D12*
D03*
X64543Y717207D02*
G54D12*
D03*
X39143Y717207D02*
G54D12*
D03*
X64543Y653707D02*
G54D12*
D03*
X39143Y653707D02*
G54D12*
D03*
X609897Y897492D02*
G54D13*
D03*
X622598Y883492D02*
G54D13*
D03*
X609898Y869492D02*
G54D13*
D03*
X618241Y788444D02*
G54D13*
D03*
X605541Y802443D02*
G54D13*
D03*
X618241Y816444D02*
G54D13*
D03*
X609721Y723789D02*
G54D13*
D03*
X622421Y709788D02*
G54D13*
D03*
X609722Y695788D02*
G54D13*
D03*
X618028Y613048D02*
G54D13*
D03*
X605328Y627048D02*
G54D13*
D03*
X618028Y641048D02*
G54D13*
D03*
X497689Y510933D02*
G54D13*
D03*
X484989Y524933D02*
G54D13*
D03*
X497689Y538933D02*
G54D13*
D03*
X606164Y418246D02*
G54D11*
D03*
X639935Y418246D02*
G54D11*
D03*
X526164Y418246D02*
G54D11*
D03*
X683050Y945750D02*
G54D14*
D03*
X206800Y945750D02*
G54D14*
D03*
X206800Y291700D02*
G54D14*
D03*
X683050Y291700D02*
G54D14*
D03*
X80000Y920000D02*
G54D15*
D03*
X130000Y920000D02*
G54D15*
D03*
X70000Y830000D02*
G54D16*
D03*
X120800Y830000D02*
G54D16*
D03*
G36*
X188587Y684873D02*
X188587Y704873D01*
X208587Y704873D01*
X208587Y684873D01*
X188587Y684873D01*
G37*
X198587Y720273D02*
G54D12*
D03*
X198587Y745673D02*
G54D12*
D03*
X198587Y771073D02*
G54D12*
D03*
X198587Y796473D02*
G54D12*
D03*
G36*
X113120Y602801D02*
X113120Y582801D01*
X93120Y582801D01*
X93120Y602801D01*
X113120Y602801D01*
G37*
X103120Y567401D02*
G54D12*
D03*
G36*
X208587Y565173D02*
X208587Y545173D01*
X188587Y545173D01*
X188587Y565173D01*
X208587Y565173D01*
G37*
X198587Y529773D02*
G54D12*
D03*
X198587Y504373D02*
G54D12*
D03*
X198587Y478973D02*
G54D12*
D03*
G36*
X678098Y800049D02*
X678098Y780049D01*
X658098Y780049D01*
X658098Y800049D01*
X678098Y800049D01*
G37*
X693498Y790049D02*
G54D12*
D03*
X668098Y764649D02*
G54D12*
D03*
X693498Y764649D02*
G54D12*
D03*
X668098Y739250D02*
G54D12*
D03*
X693498Y739249D02*
G54D12*
D03*
X668098Y713849D02*
G54D12*
D03*
X693498Y713849D02*
G54D12*
D03*
G54D17*
X80000Y920000D02*
X80000Y840000D01*
X70000Y830000D01*
X494125Y867025D02*
G54D11*
D03*
X570325Y867025D02*
G54D11*
D03*
X494125Y823025D02*
G54D11*
D03*
X570325Y823025D02*
G54D11*
D03*
X494125Y779025D02*
G54D11*
D03*
X570325Y779025D02*
G54D11*
D03*
X494125Y735025D02*
G54D11*
D03*
X570325Y735025D02*
G54D11*
D03*
X494125Y691025D02*
G54D11*
D03*
X570325Y691025D02*
G54D11*
D03*
X494125Y647025D02*
G54D11*
D03*
X570325Y647025D02*
G54D11*
D03*
X494125Y603025D02*
G54D11*
D03*
X570325Y603025D02*
G54D11*
D03*
G54D18*
X609898Y869492D02*
X609898Y824787D01*
X618241Y816444D01*
G54D19*
X570325Y867025D02*
X580650Y867025D01*
X597225Y883600D01*
X622490Y883600D01*
X622598Y883492D01*
G54D19*
X570325Y779025D02*
X582122Y779025D01*
X605541Y802443D01*
G54D19*
X570325Y779025D02*
X570325Y823025D01*
G54D19*
X570325Y911025D02*
X570325Y867025D01*
G54D19*
X609925Y845500D02*
X516600Y845500D01*
X494125Y823025D01*
G54D19*
X494125Y911025D02*
X519000Y911025D01*
X530550Y899475D01*
X530550Y859450D01*
X494125Y823025D01*
G54D19*
X609722Y695788D02*
X609722Y651260D01*
X619934Y641048D01*
G54D19*
X570325Y691025D02*
X576100Y691025D01*
X594050Y708975D01*
X621608Y708975D01*
X622421Y709788D01*
G54D19*
X570325Y603025D02*
X583210Y603025D01*
X607234Y627048D01*
G54D19*
X570325Y647025D02*
X570325Y603025D01*
G54D19*
X570325Y735025D02*
X570325Y691025D01*
G54D19*
X609925Y667700D02*
X514800Y667700D01*
X494125Y647025D01*
G54D19*
X494125Y735025D02*
X517200Y735025D01*
X530550Y721675D01*
X530550Y683450D01*
X494125Y647025D01*
G54D19*
X530550Y721675D02*
X530550Y874075D01*
G54D19*
X427187Y847273D02*
X442473Y847273D01*
X459750Y864550D01*
X491650Y864550D01*
X494125Y867025D01*
G54D19*
X427187Y821873D02*
X464327Y821873D01*
X485150Y801050D01*
X485150Y788000D01*
X494125Y779025D01*
G54D19*
X427187Y796473D02*
X464327Y796473D01*
X472450Y788350D01*
X472450Y712700D01*
X494125Y691025D01*
G54D19*
X609897Y897492D02*
X642708Y897492D01*
X650250Y889950D01*
X650250Y807897D01*
X668098Y790049D01*
G54D19*
X618241Y788444D02*
X618241Y782259D01*
X637550Y762950D01*
X666398Y762950D01*
X668098Y764649D01*
G54D19*
X609721Y723789D02*
X617439Y723789D01*
X631200Y737550D01*
X666398Y737550D01*
X668098Y739250D01*
G54D19*
X618028Y613048D02*
X640048Y613048D01*
X643900Y616900D01*
X643900Y689652D01*
X668098Y713849D01*
G54D19*
X123486Y757097D02*
X123486Y827314D01*
X120800Y830000D01*
G54D19*
X39143Y717207D02*
X22893Y717207D01*
X21600Y718500D01*
G54D19*
X123486Y649147D02*
X69103Y649147D01*
X64543Y653707D01*
G54D19*
X39143Y653707D02*
X26657Y653707D01*
X21600Y648650D01*
X382737Y771073D02*
G54D12*
D03*
X306537Y771073D02*
G54D12*
D03*
X382737Y745673D02*
G54D12*
D03*
X306537Y745673D02*
G54D12*
D03*
X382737Y720273D02*
G54D12*
D03*
X306537Y720273D02*
G54D12*
D03*
G54D19*
X274787Y796473D02*
X306537Y796473D01*
G54D19*
X274787Y771073D02*
X306537Y771073D01*
G54D19*
X274787Y745673D02*
X306537Y745673D01*
G54D19*
X274787Y720273D02*
X306537Y720273D01*
G54D19*
X382737Y720273D02*
X382737Y745673D01*
X382737Y771073D01*
X382737Y796473D01*
X382737Y901837D01*
X402600Y921700D01*
X483450Y921700D01*
X494125Y911025D01*
G54D19*
X198587Y796473D02*
X274787Y796473D01*
G54D19*
X198587Y771073D02*
X274787Y771073D01*
G54D19*
X198587Y745673D02*
X274787Y745673D01*
G54D19*
X198587Y720273D02*
X274787Y720273D01*
G54D19*
X274787Y593273D02*
X202806Y593273D01*
X199197Y589664D01*
G54D19*
X199197Y665864D02*
X199197Y694263D01*
X198587Y694873D01*
G54D19*
X21600Y528000D02*
X196814Y528000D01*
X198587Y529773D01*
X220223Y529773D01*
X231150Y540700D01*
X273014Y540700D01*
X274787Y542473D01*
G54D19*
X198587Y555173D02*
X198587Y589054D01*
X199197Y589664D01*
G54D19*
X198587Y555173D02*
X150679Y555173D01*
X148338Y552832D01*
G54D19*
X148338Y629032D02*
X139351Y629032D01*
X103120Y592801D01*
G54D19*
X103120Y567401D02*
X118151Y567401D01*
X135900Y585150D01*
X167650Y585150D01*
X174000Y591500D01*
X174000Y623250D01*
X186700Y635950D01*
X224800Y635950D01*
X231150Y642300D01*
X231150Y655000D01*
X243850Y667700D01*
X273014Y667700D01*
X274787Y669473D01*
G54D19*
X274787Y669473D02*
X305948Y669473D01*
X307350Y670875D01*
G54D19*
X494125Y603025D02*
X494125Y614275D01*
X472450Y635950D01*
X472450Y699450D01*
X451627Y720273D01*
X427187Y720273D01*
G54D19*
X494125Y571275D02*
X479975Y571275D01*
X472450Y578800D01*
X472450Y616900D01*
X459750Y629600D01*
X459750Y655000D01*
X445277Y669473D01*
X427187Y669473D01*
G54D19*
X484989Y524933D02*
X558283Y524933D01*
X567700Y534350D01*
X567700Y568650D01*
X570325Y571275D01*
G54D17*
X497689Y538933D02*
X497689Y540861D01*
X491500Y547050D01*
X478800Y547050D01*
X466100Y534350D01*
X466100Y401000D01*
X497850Y369250D01*
X720100Y369250D01*
G54D19*
X382737Y720273D02*
X382737Y671688D01*
X383550Y670875D01*
G54D19*
X427187Y593273D02*
X445277Y593273D01*
X459750Y578800D01*
X459750Y540700D01*
X466100Y534350D01*
G54D19*
X494125Y647025D02*
X518525Y647025D01*
X529600Y635950D01*
X529600Y570844D01*
X497689Y538933D01*
G54D19*
X693498Y713849D02*
X693498Y685548D01*
X656600Y648650D01*
X656600Y434912D01*
X639935Y418246D01*
G54D19*
X570325Y571275D02*
X622792Y571275D01*
X622896Y571171D01*
G54D19*
X676778Y625053D02*
X715553Y625053D01*
X720100Y629600D01*
G54D19*
X656600Y591500D02*
X688889Y591500D01*
X694368Y596978D01*
G54D17*
X210000Y250000D02*
X720000Y250000D01*
X720000Y980000D01*
X20000Y980000D01*
X20000Y250000D01*
X210000Y250000D01*
G54D17*
X130000Y920000D02*
X130000Y980000D01*
G36*
X10000Y990000D02*
X730000Y990000D01*
X730000Y980000D01*
X10000Y980000D01*
X10000Y990000D01*
G37*
G54D20*
X10000Y990000D02*
X730000Y990000D01*
X730000Y980000D01*
X10000Y980000D01*
X10000Y990000D01*
G36*
X10000Y990000D02*
X10000Y240000D01*
X20000Y240000D01*
X20000Y990000D01*
X10000Y990000D01*
G37*
G54D20*
X10000Y990000D02*
X10000Y240000D01*
X20000Y240000D01*
X20000Y990000D01*
X10000Y990000D01*
G36*
X10000Y240000D02*
X730000Y240000D01*
X730000Y250000D01*
X10000Y250000D01*
X10000Y240000D01*
G37*
G54D20*
X10000Y240000D02*
X730000Y240000D01*
X730000Y250000D01*
X10000Y250000D01*
X10000Y240000D01*
G36*
X730000Y240000D02*
X730000Y990000D01*
X720000Y990000D01*
X720000Y240000D01*
X730000Y240000D01*
G37*
G54D20*
X730000Y240000D02*
X730000Y990000D01*
X720000Y990000D01*
X720000Y240000D01*
X730000Y240000D01*
G36*
X53350Y937575D02*
X97800Y937575D01*
X97800Y829625D01*
X81925Y813750D01*
X53350Y813750D01*
X53350Y937575D01*
G37*
G54D20*
X53350Y937575D02*
X97800Y937575D01*
X97800Y829625D01*
X81925Y813750D01*
X53350Y813750D01*
X53350Y937575D01*
G36*
X10000Y948000D02*
X100000Y948000D01*
X110000Y938000D01*
X110000Y908000D01*
X114000Y904000D01*
X154000Y904000D01*
X158000Y908000D01*
X158000Y990000D01*
X10000Y990000D01*
X10000Y948000D01*
G37*
G54D20*
X10000Y948000D02*
X100000Y948000D01*
X110000Y938000D01*
X110000Y908000D01*
X114000Y904000D01*
X154000Y904000D01*
X158000Y908000D01*
X158000Y990000D01*
X10000Y990000D01*
X10000Y948000D01*
G54D19*
X274787Y694873D02*
X321823Y694873D01*
X335925Y708975D01*
X335925Y889950D01*
X307350Y918525D01*
X259725Y918525D01*
X247025Y905825D01*
X247025Y829625D01*
X234325Y816925D01*
X154950Y816925D01*
X142250Y804225D01*
X142250Y744112D01*
X123486Y725347D01*
G54D17*
X120800Y830000D02*
X199775Y830000D01*
X227975Y858200D01*
X227975Y909000D01*
X259725Y940750D01*
X624850Y940750D01*
X656600Y909000D01*
X688350Y909000D01*
X694700Y902650D01*
X694700Y791252D01*
X693498Y790049D01*
X693498Y764649D01*
X693498Y739249D01*
X693498Y713849D01*
G54D17*
X274787Y517073D02*
X334523Y517073D01*
X351800Y534350D01*
X351800Y940750D01*
G36*
X242000Y990000D02*
X242000Y942000D01*
X204000Y904000D01*
X204000Y860000D01*
X192000Y848000D01*
X136000Y848000D01*
X110000Y874000D01*
X110000Y990000D01*
X242000Y990000D01*
G37*
G54D20*
X242000Y990000D02*
X242000Y942000D01*
X204000Y904000D01*
X204000Y860000D01*
X192000Y848000D01*
X136000Y848000D01*
X110000Y874000D01*
X110000Y990000D01*
X242000Y990000D01*
G36*
X240000Y960000D02*
X660000Y960000D01*
X660000Y990000D01*
X242000Y990000D01*
X242000Y962000D01*
X240000Y960000D01*
G37*
G54D20*
X240000Y960000D02*
X660000Y960000D01*
X660000Y990000D01*
X242000Y990000D01*
X242000Y962000D01*
X240000Y960000D01*
G36*
X295000Y942500D02*
X345000Y892500D01*
X360000Y892500D01*
X295000Y942500D01*
G37*
G54D20*
X295000Y942500D02*
X345000Y892500D01*
X360000Y892500D01*
X295000Y942500D01*
G36*
X360000Y892500D02*
X405000Y937500D01*
X300000Y937500D01*
X342500Y895000D01*
X362500Y895000D01*
X360000Y892500D01*
G37*
G54D20*
X360000Y892500D02*
X405000Y937500D01*
X300000Y937500D01*
X342500Y895000D01*
X362500Y895000D01*
X360000Y892500D01*
G54D20*
X347500Y892500D02*
X360000Y892500D01*
X365000Y897500D01*
X347500Y897500D01*
X347500Y892500D01*
G36*
X347500Y892500D02*
X360000Y892500D01*
X365000Y897500D01*
X345000Y897500D01*
X345000Y895000D01*
X347500Y892500D01*
G37*
G54D20*
X347500Y892500D02*
X360000Y892500D01*
X365000Y897500D01*
X345000Y897500D01*
X345000Y895000D01*
X347500Y892500D01*
G36*
X667500Y922500D02*
X630000Y960000D01*
X630000Y990000D01*
X730000Y990000D01*
X730000Y922500D01*
X667500Y922500D01*
G37*
G54D20*
X667500Y922500D02*
X630000Y960000D01*
X630000Y990000D01*
X730000Y990000D01*
X730000Y922500D01*
X667500Y922500D01*
G36*
X650000Y910000D02*
X692500Y867500D01*
X692500Y904850D01*
X688350Y909000D01*
X656600Y909000D01*
X650000Y910000D01*
G37*
G54D20*
X650000Y910000D02*
X692500Y867500D01*
X692500Y904850D01*
X688350Y909000D01*
X656600Y909000D01*
X650000Y910000D01*
G54D17*
X383550Y670875D02*
X383550Y719460D01*
X382737Y720273D01*
X382737Y745673D01*
X382737Y771073D01*
X382737Y796473D01*
X382737Y897737D01*
X407500Y922500D01*
X482650Y922500D01*
X494125Y911025D01*
G36*
X513225Y920525D02*
X513225Y561775D01*
X551225Y561775D01*
X551225Y920525D01*
X513225Y920525D01*
G37*
G54D20*
X513225Y920525D02*
X513225Y561775D01*
X551225Y561775D01*
X551225Y920525D01*
X513225Y920525D01*
G54D17*
X494125Y911025D02*
X526025Y911025D01*
X527500Y912500D01*
G54D17*
X494125Y823025D02*
X516600Y845500D01*
G54D17*
X494125Y647025D02*
X494525Y647025D01*
X520000Y672500D01*
G54D17*
X494125Y735025D02*
X532475Y735025D01*
X532500Y735000D01*
G54D21*
X540000Y845000D02*
X609425Y845000D01*
X609925Y845500D01*
X609925Y824759D01*
X618241Y816444D01*
G54D21*
X618241Y816444D02*
X609898Y824787D01*
X609898Y869492D01*
G54D21*
X570325Y779025D02*
X581525Y779025D01*
X585000Y782500D01*
X585598Y782500D01*
X605541Y802443D01*
G54D21*
X570325Y911025D02*
X570325Y867025D01*
G54D21*
X570325Y823025D02*
X570325Y779025D01*
G54D21*
X609897Y897492D02*
X609897Y899897D01*
X617500Y907500D01*
X632700Y907500D01*
X650250Y889950D01*
X650250Y807897D01*
X668098Y790049D01*
G36*
X609897Y897492D02*
X642708Y897492D01*
X632700Y907500D01*
X619905Y907500D01*
X609897Y897492D01*
G37*
G54D20*
X609897Y897492D02*
X642708Y897492D01*
X632700Y907500D01*
X619905Y907500D01*
X609897Y897492D01*
G54D17*
X618241Y788444D02*
X618241Y782259D01*
X637550Y762950D01*
X666398Y762950D01*
X668098Y764649D01*
G54D17*
X668098Y739250D02*
X625182Y739250D01*
X609721Y723789D01*
G54D17*
X618028Y613048D02*
X635548Y613048D01*
X640000Y617500D01*
X640000Y685752D01*
X668098Y713849D01*
G54D17*
X570325Y735025D02*
X570325Y691025D01*
G54D17*
X535000Y668770D02*
X609725Y668770D01*
X609925Y668970D01*
X609925Y650422D01*
X618028Y641048D01*
G54D17*
X618028Y641048D02*
X609925Y649152D01*
X609925Y695585D01*
X609722Y695788D01*
G54D17*
X570325Y603025D02*
X581306Y603025D01*
X605328Y627048D01*
G54D17*
X570325Y647025D02*
X570325Y603025D01*
G36*
X730000Y687500D02*
X715000Y687500D01*
X665000Y637500D01*
X665000Y617500D01*
X670000Y612500D01*
X682500Y612500D01*
X690000Y620000D01*
X730000Y620000D01*
X730000Y687500D01*
G37*
G54D20*
X730000Y687500D02*
X715000Y687500D01*
X665000Y637500D01*
X665000Y617500D01*
X670000Y612500D01*
X682500Y612500D01*
X690000Y620000D01*
X730000Y620000D01*
X730000Y687500D01*
G54D18*
X693498Y713849D02*
X693498Y685998D01*
X655000Y647500D01*
X655000Y433312D01*
X639935Y418246D01*
G54D17*
X656600Y591500D02*
X688889Y591500D01*
X694368Y596978D01*
G36*
X693498Y790049D02*
X693498Y791502D01*
X665000Y820000D01*
X665000Y905000D01*
X662500Y907500D01*
X689850Y907500D01*
X694700Y902650D01*
X694700Y791252D01*
X693498Y790049D01*
G37*
G54D20*
X693498Y790049D02*
X693498Y791502D01*
X665000Y820000D01*
X665000Y905000D01*
X662500Y907500D01*
X689850Y907500D01*
X694700Y902650D01*
X694700Y791252D01*
X693498Y790049D01*
G54D22*
X570325Y571275D02*
X622792Y571275D01*
X622896Y571171D01*
G54D22*
X497689Y538933D02*
X529600Y570844D01*
G54D18*
X198587Y478973D02*
X198587Y391413D01*
X210000Y380000D01*
X390000Y380000D01*
X400000Y390000D01*
X400000Y610000D01*
X410000Y620000D01*
X425860Y620000D01*
X427187Y618673D01*
G54D18*
X198587Y504373D02*
X229377Y504373D01*
X231150Y502600D01*
X231150Y413850D01*
X250000Y395000D01*
X345800Y395000D01*
X370850Y420050D01*
X370850Y629600D01*
X385323Y644073D01*
X427187Y644073D01*
G54D17*
X17500Y527500D02*
X196314Y527500D01*
X198587Y529773D01*
X220223Y529773D01*
X231150Y540700D01*
X273014Y540700D01*
X274787Y542473D01*
G54D17*
X199197Y589664D02*
X271178Y589664D01*
X274787Y593273D01*
G54D17*
X199197Y589664D02*
X199197Y555783D01*
X198587Y555173D01*
G54D17*
X148338Y552832D02*
X196246Y552832D01*
X198587Y555173D01*
G54D17*
X39143Y653707D02*
X18707Y653707D01*
X15000Y650000D01*
G54D17*
X39143Y717207D02*
X19707Y717207D01*
X17500Y715000D01*
G54D17*
X64543Y717207D02*
X64543Y739840D01*
X47286Y757097D01*
G54D17*
X64543Y653707D02*
X118926Y653707D01*
X123486Y649147D01*
G54D17*
X103120Y592801D02*
X112107Y592801D01*
X148338Y629032D01*
G54D17*
X103120Y567401D02*
X122401Y567401D01*
X140000Y585000D01*
X167500Y585000D01*
X174000Y591500D01*
X174000Y619000D01*
X190000Y635000D01*
X223850Y635000D01*
X231150Y642300D01*
X231150Y651150D01*
X247500Y667500D01*
X272814Y667500D01*
X274787Y669473D01*
G54D17*
X198587Y720273D02*
X274787Y720273D01*
X306537Y720273D01*
G54D17*
X198587Y745673D02*
X274787Y745673D01*
X306537Y745673D01*
G54D17*
X198587Y771073D02*
X274787Y771073D01*
X306537Y771073D01*
G54D17*
X198587Y796473D02*
X274787Y796473D01*
X306537Y796473D01*
G54D17*
X123486Y757097D02*
X123486Y827314D01*
X120800Y830000D01*
G54D17*
X274787Y669473D02*
X305948Y669473D01*
X307350Y670875D01*
G36*
X457500Y580000D02*
X457500Y400000D01*
X465000Y400000D01*
X470000Y405000D01*
X470000Y568550D01*
X459750Y578800D01*
X458800Y578800D01*
X457500Y577500D01*
X457500Y580000D01*
G37*
G54D20*
X457500Y580000D02*
X457500Y400000D01*
X465000Y400000D01*
X470000Y405000D01*
X470000Y568550D01*
X459750Y578800D01*
X458800Y578800D01*
X457500Y577500D01*
X457500Y580000D01*
G36*
X465000Y395000D02*
X457500Y395000D01*
X302500Y240000D01*
X730000Y240000D01*
X730000Y367500D01*
X512500Y367500D01*
X480000Y400000D01*
X462500Y400000D01*
X457500Y395000D01*
X465000Y395000D01*
G37*
G54D20*
X465000Y395000D02*
X457500Y395000D01*
X302500Y240000D01*
X730000Y240000D01*
X730000Y367500D01*
X512500Y367500D01*
X480000Y400000D01*
X462500Y400000D01*
X457500Y395000D01*
X465000Y395000D01*
G36*
X570325Y571275D02*
X570325Y560325D01*
X567500Y557500D01*
X567500Y507500D01*
X582500Y492500D01*
X582500Y450000D01*
X590000Y442500D01*
X632500Y442500D01*
X640000Y450000D01*
X640000Y572500D01*
X627500Y585000D01*
X584050Y585000D01*
X570325Y571275D01*
G37*
G54D20*
X570325Y571275D02*
X570325Y560325D01*
X567500Y557500D01*
X567500Y507500D01*
X582500Y492500D01*
X582500Y450000D01*
X590000Y442500D01*
X632500Y442500D01*
X640000Y450000D01*
X640000Y572500D01*
X627500Y585000D01*
X584050Y585000D01*
X570325Y571275D01*
G36*
X440000Y367500D02*
X10000Y367500D01*
X10000Y240000D01*
X447500Y240000D01*
X447500Y352500D01*
X435000Y365000D01*
X440000Y367500D01*
G37*
G54D20*
X440000Y367500D02*
X10000Y367500D01*
X10000Y240000D01*
X447500Y240000D01*
X447500Y352500D01*
X435000Y365000D01*
X440000Y367500D01*
G36*
X182500Y527500D02*
X182500Y385000D01*
X205000Y362500D01*
X10000Y362500D01*
X10000Y527500D01*
X196314Y527500D01*
X198587Y529773D01*
X187273Y529773D01*
X182500Y525000D01*
X182500Y520000D01*
X182500Y527500D01*
G37*
G54D20*
X182500Y527500D02*
X182500Y385000D01*
X205000Y362500D01*
X10000Y362500D01*
X10000Y527500D01*
X196314Y527500D01*
X198587Y529773D01*
X187273Y529773D01*
X182500Y525000D01*
X182500Y520000D01*
X182500Y527500D01*
G36*
X40000Y732500D02*
X47500Y725000D01*
X47500Y647500D01*
X82500Y612500D01*
X82500Y557500D01*
X92500Y547500D01*
X120000Y547500D01*
X127500Y540000D01*
X127500Y495000D01*
X120000Y487500D01*
X10000Y487500D01*
X10000Y732500D01*
X40000Y732500D01*
G37*
G54D20*
X40000Y732500D02*
X47500Y725000D01*
X47500Y647500D01*
X82500Y612500D01*
X82500Y557500D01*
X92500Y547500D01*
X120000Y547500D01*
X127500Y540000D01*
X127500Y495000D01*
X120000Y487500D01*
X10000Y487500D01*
X10000Y732500D01*
X40000Y732500D01*
G36*
X361325Y889950D02*
X345450Y889950D01*
X297825Y937575D01*
X408950Y937575D01*
X361325Y889950D01*
G37*
G54D20*
X361325Y889950D02*
X345450Y889950D01*
X297825Y937575D01*
X408950Y937575D01*
X361325Y889950D01*
G54D22*
X497689Y510933D02*
X509067Y510933D01*
X520000Y500000D01*
X520000Y424410D01*
X526164Y418246D01*
X526164Y413836D01*
X550000Y390000D01*
X664650Y390000D01*
X694368Y419718D01*
X694368Y520778D01*
G36*
X502000Y518000D02*
X540000Y518000D01*
X572000Y486000D01*
X572000Y434000D01*
X586000Y420000D01*
X586000Y388000D01*
X584000Y386000D01*
X540000Y386000D01*
X514000Y412000D01*
X514000Y494000D01*
X504000Y504000D01*
X504000Y504622D01*
X497689Y510933D01*
X497689Y513689D01*
X502000Y518000D01*
G37*
G54D20*
X502000Y518000D02*
X540000Y518000D01*
X572000Y486000D01*
X572000Y434000D01*
X586000Y420000D01*
X586000Y388000D01*
X584000Y386000D01*
X540000Y386000D01*
X514000Y412000D01*
X514000Y494000D01*
X504000Y504000D01*
X504000Y504622D01*
X497689Y510933D01*
X497689Y513689D01*
X502000Y518000D01*
G36*
X508000Y554000D02*
X464000Y554000D01*
X464000Y536450D01*
X466100Y534350D01*
X472350Y534350D01*
X480000Y542000D01*
X506000Y542000D01*
X506000Y552000D01*
X508000Y554000D01*
G37*
G54D20*
X508000Y554000D02*
X464000Y554000D01*
X464000Y536450D01*
X466100Y534350D01*
X472350Y534350D01*
X480000Y542000D01*
X506000Y542000D01*
X506000Y552000D01*
X508000Y554000D01*
G36*
X468000Y520000D02*
X468000Y518000D01*
X500000Y486000D01*
X500000Y408000D01*
X542000Y366000D01*
X450000Y366000D01*
X450000Y590000D01*
X450000Y588550D01*
X470000Y568550D01*
X468000Y520000D01*
G37*
G54D20*
X468000Y520000D02*
X468000Y518000D01*
X500000Y486000D01*
X500000Y408000D01*
X542000Y366000D01*
X450000Y366000D01*
X450000Y590000D01*
X450000Y588550D01*
X470000Y568550D01*
X468000Y520000D01*
G54D17*
X427187Y593273D02*
X440727Y593273D01*
X466000Y568000D01*
M02*
