%FSLAX34Y34*%
%MOMM*%
%LNSOLDERMASK_BOTTOM*%
G71*
G01*
%ADD10C, 2.200*%
%ADD11C, 1.880*%
%ADD12R, 1.800X1.800*%
%ADD13C, 4.600*%
%LPD*%
X76200Y-76200D02*
G54D10*
D03*
X101600Y-76200D02*
G54D10*
D03*
X177800Y-76200D02*
G54D10*
D03*
X203200Y-76200D02*
G54D10*
D03*
X279400Y-76200D02*
G54D10*
D03*
X304800Y-76200D02*
G54D10*
D03*
X381000Y-76200D02*
G54D10*
D03*
X406400Y-76200D02*
G54D10*
D03*
X482600Y-76200D02*
G54D10*
D03*
X508000Y-76200D02*
G54D10*
D03*
X584200Y-76200D02*
G54D10*
D03*
X609600Y-76200D02*
G54D10*
D03*
X685800Y-76200D02*
G54D10*
D03*
X711200Y-76200D02*
G54D10*
D03*
X787400Y-76200D02*
G54D10*
D03*
X812800Y-76200D02*
G54D10*
D03*
X889000Y-76200D02*
G54D10*
D03*
X914400Y-76200D02*
G54D10*
D03*
X990600Y-76200D02*
G54D10*
D03*
X1016000Y-76200D02*
G54D10*
D03*
X1092200Y-76200D02*
G54D10*
D03*
X1117600Y-76200D02*
G54D10*
D03*
X1193800Y-76200D02*
G54D10*
D03*
X1219200Y-76200D02*
G54D10*
D03*
X1295400Y-76200D02*
G54D10*
D03*
X1320800Y-76200D02*
G54D10*
D03*
X1397000Y-76200D02*
G54D10*
D03*
X1422400Y-76200D02*
G54D10*
D03*
X1498600Y-76200D02*
G54D10*
D03*
X1524000Y-76200D02*
G54D10*
D03*
X1600200Y-76200D02*
G54D10*
D03*
X1625600Y-76200D02*
G54D10*
D03*
X1701800Y-76200D02*
G54D10*
D03*
X1727200Y-76200D02*
G54D10*
D03*
X1803400Y-76200D02*
G54D10*
D03*
X1828800Y-76200D02*
G54D10*
D03*
X1905000Y-76200D02*
G54D10*
D03*
X1930400Y-76200D02*
G54D10*
D03*
X2006600Y-76200D02*
G54D10*
D03*
X2032000Y-76200D02*
G54D10*
D03*
X76200Y-177800D02*
G54D10*
D03*
X101600Y-177800D02*
G54D10*
D03*
X76200Y-279400D02*
G54D10*
D03*
X101600Y-279400D02*
G54D10*
D03*
X76200Y-381000D02*
G54D10*
D03*
X101600Y-381000D02*
G54D10*
D03*
X76200Y-482600D02*
G54D10*
D03*
X101600Y-482600D02*
G54D10*
D03*
X76200Y-584200D02*
G54D10*
D03*
X101600Y-584200D02*
G54D10*
D03*
X76200Y-685800D02*
G54D10*
D03*
X101600Y-685800D02*
G54D10*
D03*
X76200Y-787400D02*
G54D10*
D03*
X101600Y-787400D02*
G54D10*
D03*
X76200Y-889000D02*
G54D10*
D03*
X101600Y-889000D02*
G54D10*
D03*
X76200Y-990600D02*
G54D10*
D03*
X101600Y-990600D02*
G54D10*
D03*
X76200Y-1092200D02*
G54D10*
D03*
X101600Y-1092200D02*
G54D10*
D03*
X76200Y-1193800D02*
G54D10*
D03*
X101600Y-1193800D02*
G54D10*
D03*
X76200Y-1295400D02*
G54D10*
D03*
X101600Y-1295400D02*
G54D10*
D03*
X76200Y-1397000D02*
G54D10*
D03*
X101600Y-1397000D02*
G54D10*
D03*
X177800Y-177800D02*
G54D10*
D03*
X203200Y-177800D02*
G54D10*
D03*
X177800Y-279400D02*
G54D10*
D03*
X203200Y-279400D02*
G54D10*
D03*
X177800Y-381000D02*
G54D10*
D03*
X203200Y-381000D02*
G54D10*
D03*
X177800Y-482600D02*
G54D10*
D03*
X203200Y-482600D02*
G54D10*
D03*
X177800Y-584200D02*
G54D10*
D03*
X203200Y-584200D02*
G54D10*
D03*
X177800Y-685800D02*
G54D10*
D03*
X203200Y-685800D02*
G54D10*
D03*
X279400Y-177800D02*
G54D10*
D03*
X304800Y-177800D02*
G54D10*
D03*
X279400Y-279400D02*
G54D10*
D03*
X304800Y-279400D02*
G54D10*
D03*
X279400Y-381000D02*
G54D10*
D03*
X304800Y-381000D02*
G54D10*
D03*
X279400Y-482600D02*
G54D10*
D03*
X304800Y-482600D02*
G54D10*
D03*
X279400Y-584200D02*
G54D10*
D03*
X304800Y-584200D02*
G54D10*
D03*
X279400Y-685800D02*
G54D10*
D03*
X304800Y-685800D02*
G54D10*
D03*
X381000Y-177800D02*
G54D10*
D03*
X406400Y-177800D02*
G54D10*
D03*
X381000Y-279400D02*
G54D10*
D03*
X406400Y-279400D02*
G54D10*
D03*
X381000Y-381000D02*
G54D10*
D03*
X406400Y-381000D02*
G54D10*
D03*
X381000Y-482600D02*
G54D10*
D03*
X406400Y-482600D02*
G54D10*
D03*
X381000Y-584200D02*
G54D10*
D03*
X406400Y-584200D02*
G54D10*
D03*
X381000Y-685800D02*
G54D10*
D03*
X406400Y-685800D02*
G54D10*
D03*
X482600Y-177800D02*
G54D10*
D03*
X508000Y-177800D02*
G54D10*
D03*
X482600Y-279400D02*
G54D10*
D03*
X508000Y-279400D02*
G54D10*
D03*
X482600Y-381000D02*
G54D10*
D03*
X508000Y-381000D02*
G54D10*
D03*
X482600Y-482600D02*
G54D10*
D03*
X508000Y-482600D02*
G54D10*
D03*
X482600Y-584200D02*
G54D10*
D03*
X508000Y-584200D02*
G54D10*
D03*
X482600Y-685800D02*
G54D10*
D03*
X508000Y-685800D02*
G54D10*
D03*
X584200Y-177800D02*
G54D10*
D03*
X609600Y-177800D02*
G54D10*
D03*
X584200Y-279400D02*
G54D10*
D03*
X609600Y-279400D02*
G54D10*
D03*
X584200Y-381000D02*
G54D10*
D03*
X609600Y-381000D02*
G54D10*
D03*
X584200Y-482600D02*
G54D10*
D03*
X609600Y-482600D02*
G54D10*
D03*
X584200Y-584200D02*
G54D10*
D03*
X609600Y-584200D02*
G54D10*
D03*
X584200Y-685800D02*
G54D10*
D03*
X609600Y-685800D02*
G54D10*
D03*
X685800Y-177800D02*
G54D10*
D03*
X711200Y-177800D02*
G54D10*
D03*
X685800Y-279400D02*
G54D10*
D03*
X711200Y-279400D02*
G54D10*
D03*
X685800Y-381000D02*
G54D10*
D03*
X711200Y-381000D02*
G54D10*
D03*
X685800Y-482600D02*
G54D10*
D03*
X711200Y-482600D02*
G54D10*
D03*
X685800Y-584200D02*
G54D10*
D03*
X711200Y-584200D02*
G54D10*
D03*
X685800Y-685800D02*
G54D10*
D03*
X711200Y-685800D02*
G54D10*
D03*
X787400Y-177800D02*
G54D10*
D03*
X812800Y-177800D02*
G54D10*
D03*
X787400Y-279400D02*
G54D10*
D03*
X812800Y-279400D02*
G54D10*
D03*
X787400Y-381000D02*
G54D10*
D03*
X812800Y-381000D02*
G54D10*
D03*
X787400Y-482600D02*
G54D10*
D03*
X812800Y-482600D02*
G54D10*
D03*
X787400Y-584200D02*
G54D10*
D03*
X812800Y-584200D02*
G54D10*
D03*
X787400Y-685800D02*
G54D10*
D03*
X812800Y-685800D02*
G54D10*
D03*
X889000Y-177800D02*
G54D10*
D03*
X914400Y-177800D02*
G54D10*
D03*
X889000Y-279400D02*
G54D10*
D03*
X914400Y-279400D02*
G54D10*
D03*
X889000Y-381000D02*
G54D10*
D03*
X914400Y-381000D02*
G54D10*
D03*
X889000Y-482600D02*
G54D10*
D03*
X914400Y-482600D02*
G54D10*
D03*
X889000Y-584200D02*
G54D10*
D03*
X914400Y-584200D02*
G54D10*
D03*
X889000Y-685800D02*
G54D10*
D03*
X914400Y-685800D02*
G54D10*
D03*
X990600Y-177800D02*
G54D10*
D03*
X1016000Y-177800D02*
G54D10*
D03*
X990600Y-279400D02*
G54D10*
D03*
X1016000Y-279400D02*
G54D10*
D03*
X990600Y-381000D02*
G54D10*
D03*
X1016000Y-381000D02*
G54D10*
D03*
X990600Y-482600D02*
G54D10*
D03*
X1016000Y-482600D02*
G54D10*
D03*
X990600Y-584200D02*
G54D10*
D03*
X1016000Y-584200D02*
G54D10*
D03*
X990600Y-685800D02*
G54D10*
D03*
X1016000Y-685800D02*
G54D10*
D03*
X1092200Y-177800D02*
G54D10*
D03*
X1117600Y-177800D02*
G54D10*
D03*
X1092200Y-279400D02*
G54D10*
D03*
X1117600Y-279400D02*
G54D10*
D03*
X1092200Y-381000D02*
G54D10*
D03*
X1117600Y-381000D02*
G54D10*
D03*
X1092200Y-482600D02*
G54D10*
D03*
X1117600Y-482600D02*
G54D10*
D03*
X1092200Y-584200D02*
G54D10*
D03*
X1117600Y-584200D02*
G54D10*
D03*
X1092200Y-685800D02*
G54D10*
D03*
X1117600Y-685800D02*
G54D10*
D03*
X1193800Y-177800D02*
G54D10*
D03*
X1219200Y-177800D02*
G54D10*
D03*
X1193800Y-279400D02*
G54D10*
D03*
X1219200Y-279400D02*
G54D10*
D03*
X1193800Y-381000D02*
G54D10*
D03*
X1219200Y-381000D02*
G54D10*
D03*
X1193800Y-482600D02*
G54D10*
D03*
X1219200Y-482600D02*
G54D10*
D03*
X1193800Y-584200D02*
G54D10*
D03*
X1219200Y-584200D02*
G54D10*
D03*
X1193800Y-685800D02*
G54D10*
D03*
X1219200Y-685800D02*
G54D10*
D03*
X1295400Y-177800D02*
G54D10*
D03*
X1320800Y-177800D02*
G54D10*
D03*
X1295400Y-279400D02*
G54D10*
D03*
X1320800Y-279400D02*
G54D10*
D03*
X1295400Y-381000D02*
G54D10*
D03*
X1320800Y-381000D02*
G54D10*
D03*
X1295400Y-482600D02*
G54D10*
D03*
X1320800Y-482600D02*
G54D10*
D03*
X1295400Y-584200D02*
G54D10*
D03*
X1320800Y-584200D02*
G54D10*
D03*
X1295400Y-685800D02*
G54D10*
D03*
X1320800Y-685800D02*
G54D10*
D03*
X1397000Y-177800D02*
G54D10*
D03*
X1422400Y-177800D02*
G54D10*
D03*
X1397000Y-279400D02*
G54D10*
D03*
X1422400Y-279400D02*
G54D10*
D03*
X1397000Y-381000D02*
G54D10*
D03*
X1422400Y-381000D02*
G54D10*
D03*
X1397000Y-482600D02*
G54D10*
D03*
X1422400Y-482600D02*
G54D10*
D03*
X1397000Y-584200D02*
G54D10*
D03*
X1422400Y-584200D02*
G54D10*
D03*
X1397000Y-685800D02*
G54D10*
D03*
X1422400Y-685800D02*
G54D10*
D03*
X1498600Y-177800D02*
G54D10*
D03*
X1524000Y-177800D02*
G54D10*
D03*
X1498600Y-279400D02*
G54D10*
D03*
X1524000Y-279400D02*
G54D10*
D03*
X1498600Y-381000D02*
G54D10*
D03*
X1524000Y-381000D02*
G54D10*
D03*
X1498600Y-482600D02*
G54D10*
D03*
X1524000Y-482600D02*
G54D10*
D03*
X1498600Y-584200D02*
G54D10*
D03*
X1524000Y-584200D02*
G54D10*
D03*
X1498600Y-685800D02*
G54D10*
D03*
X1524000Y-685800D02*
G54D10*
D03*
X1600200Y-177800D02*
G54D10*
D03*
X1625600Y-177800D02*
G54D10*
D03*
X1600200Y-279400D02*
G54D10*
D03*
X1625600Y-279400D02*
G54D10*
D03*
X1600200Y-381000D02*
G54D10*
D03*
X1625600Y-381000D02*
G54D10*
D03*
X1600200Y-482600D02*
G54D10*
D03*
X1625600Y-482600D02*
G54D10*
D03*
X1600200Y-584200D02*
G54D10*
D03*
X1625600Y-584200D02*
G54D10*
D03*
X1600200Y-685800D02*
G54D10*
D03*
X1625600Y-685800D02*
G54D10*
D03*
X1701800Y-177800D02*
G54D10*
D03*
X1727200Y-177800D02*
G54D10*
D03*
X1701800Y-279400D02*
G54D10*
D03*
X1727200Y-279400D02*
G54D10*
D03*
X1701800Y-381000D02*
G54D10*
D03*
X1727200Y-381000D02*
G54D10*
D03*
X1701800Y-482600D02*
G54D10*
D03*
X1727200Y-482600D02*
G54D10*
D03*
X1701800Y-584200D02*
G54D10*
D03*
X1727200Y-584200D02*
G54D10*
D03*
X1701800Y-685800D02*
G54D10*
D03*
X1727200Y-685800D02*
G54D10*
D03*
X1803400Y-177800D02*
G54D10*
D03*
X1828800Y-177800D02*
G54D10*
D03*
X1803400Y-279400D02*
G54D10*
D03*
X1828800Y-279400D02*
G54D10*
D03*
X1803400Y-381000D02*
G54D10*
D03*
X1828800Y-381000D02*
G54D10*
D03*
X1803400Y-482600D02*
G54D10*
D03*
X1828800Y-482600D02*
G54D10*
D03*
X1803400Y-584200D02*
G54D10*
D03*
X1828800Y-584200D02*
G54D10*
D03*
X1803400Y-685800D02*
G54D10*
D03*
X1828800Y-685800D02*
G54D10*
D03*
X1905000Y-177800D02*
G54D10*
D03*
X1930400Y-177800D02*
G54D10*
D03*
X1905000Y-279400D02*
G54D10*
D03*
X1930400Y-279400D02*
G54D10*
D03*
X1905000Y-381000D02*
G54D10*
D03*
X1930400Y-381000D02*
G54D10*
D03*
X1905000Y-482600D02*
G54D10*
D03*
X1930400Y-482600D02*
G54D10*
D03*
X1905000Y-584200D02*
G54D10*
D03*
X1930400Y-584200D02*
G54D10*
D03*
X1905000Y-685800D02*
G54D10*
D03*
X1930400Y-685800D02*
G54D10*
D03*
X2006600Y-177800D02*
G54D10*
D03*
X2032000Y-177800D02*
G54D10*
D03*
X2006600Y-279400D02*
G54D10*
D03*
X2032000Y-279400D02*
G54D10*
D03*
X2006600Y-381000D02*
G54D10*
D03*
X2032000Y-381000D02*
G54D10*
D03*
X2006600Y-482600D02*
G54D10*
D03*
X2032000Y-482600D02*
G54D10*
D03*
X2006600Y-584200D02*
G54D10*
D03*
X2032000Y-584200D02*
G54D10*
D03*
X2006600Y-685800D02*
G54D10*
D03*
X2032000Y-685800D02*
G54D10*
D03*
X177800Y-787400D02*
G54D10*
D03*
X203200Y-787400D02*
G54D10*
D03*
X279400Y-787400D02*
G54D10*
D03*
X304800Y-787400D02*
G54D10*
D03*
X381000Y-787400D02*
G54D10*
D03*
X406400Y-787400D02*
G54D10*
D03*
X482600Y-787400D02*
G54D10*
D03*
X508000Y-787400D02*
G54D10*
D03*
X584200Y-787400D02*
G54D10*
D03*
X609600Y-787400D02*
G54D10*
D03*
X685800Y-787400D02*
G54D10*
D03*
X711200Y-787400D02*
G54D10*
D03*
X787400Y-787400D02*
G54D10*
D03*
X812800Y-787400D02*
G54D10*
D03*
X889000Y-787400D02*
G54D10*
D03*
X914400Y-787400D02*
G54D10*
D03*
X990600Y-787400D02*
G54D10*
D03*
X1016000Y-787400D02*
G54D10*
D03*
X177800Y-889000D02*
G54D10*
D03*
X203200Y-889000D02*
G54D10*
D03*
X177800Y-990600D02*
G54D10*
D03*
X203200Y-990600D02*
G54D10*
D03*
X177800Y-1092200D02*
G54D10*
D03*
X203200Y-1092200D02*
G54D10*
D03*
X177800Y-1193800D02*
G54D10*
D03*
X203200Y-1193800D02*
G54D10*
D03*
X177800Y-1295400D02*
G54D10*
D03*
X203200Y-1295400D02*
G54D10*
D03*
X177800Y-1397000D02*
G54D10*
D03*
X203200Y-1397000D02*
G54D10*
D03*
X279400Y-889000D02*
G54D10*
D03*
X304800Y-889000D02*
G54D10*
D03*
X279400Y-990600D02*
G54D10*
D03*
X304800Y-990600D02*
G54D10*
D03*
X279400Y-1092200D02*
G54D10*
D03*
X304800Y-1092200D02*
G54D10*
D03*
X279400Y-1193800D02*
G54D10*
D03*
X304800Y-1193800D02*
G54D10*
D03*
X279400Y-1295400D02*
G54D10*
D03*
X304800Y-1295400D02*
G54D10*
D03*
X279400Y-1397000D02*
G54D10*
D03*
X304800Y-1397000D02*
G54D10*
D03*
X381000Y-889000D02*
G54D10*
D03*
X406400Y-889000D02*
G54D10*
D03*
X381000Y-990600D02*
G54D10*
D03*
X406400Y-990600D02*
G54D10*
D03*
X381000Y-1092200D02*
G54D10*
D03*
X406400Y-1092200D02*
G54D10*
D03*
X381000Y-1193800D02*
G54D10*
D03*
X406400Y-1193800D02*
G54D10*
D03*
X381000Y-1295400D02*
G54D10*
D03*
X406400Y-1295400D02*
G54D10*
D03*
X381000Y-1397000D02*
G54D10*
D03*
X406400Y-1397000D02*
G54D10*
D03*
X482600Y-889000D02*
G54D10*
D03*
X508000Y-889000D02*
G54D10*
D03*
X482600Y-990600D02*
G54D10*
D03*
X508000Y-990600D02*
G54D10*
D03*
X482600Y-1092200D02*
G54D10*
D03*
X508000Y-1092200D02*
G54D10*
D03*
X482600Y-1193800D02*
G54D10*
D03*
X508000Y-1193800D02*
G54D10*
D03*
X482600Y-1295400D02*
G54D10*
D03*
X508000Y-1295400D02*
G54D10*
D03*
X482600Y-1397000D02*
G54D10*
D03*
X508000Y-1397000D02*
G54D10*
D03*
X584200Y-889000D02*
G54D10*
D03*
X609600Y-889000D02*
G54D10*
D03*
X584200Y-990600D02*
G54D10*
D03*
X609600Y-990600D02*
G54D10*
D03*
X584200Y-1092200D02*
G54D10*
D03*
X609600Y-1092200D02*
G54D10*
D03*
X584200Y-1193800D02*
G54D10*
D03*
X609600Y-1193800D02*
G54D10*
D03*
X584200Y-1295400D02*
G54D10*
D03*
X609600Y-1295400D02*
G54D10*
D03*
X584200Y-1397000D02*
G54D10*
D03*
X609600Y-1397000D02*
G54D10*
D03*
X685800Y-889000D02*
G54D10*
D03*
X711200Y-889000D02*
G54D10*
D03*
X685800Y-990600D02*
G54D10*
D03*
X711200Y-990600D02*
G54D10*
D03*
X685800Y-1092200D02*
G54D10*
D03*
X711200Y-1092200D02*
G54D10*
D03*
X685800Y-1193800D02*
G54D10*
D03*
X711200Y-1193800D02*
G54D10*
D03*
X685800Y-1295400D02*
G54D10*
D03*
X711200Y-1295400D02*
G54D10*
D03*
X685800Y-1397000D02*
G54D10*
D03*
X711200Y-1397000D02*
G54D10*
D03*
X787400Y-889000D02*
G54D10*
D03*
X812800Y-889000D02*
G54D10*
D03*
X787400Y-990600D02*
G54D10*
D03*
X812800Y-990600D02*
G54D10*
D03*
X787400Y-1092200D02*
G54D10*
D03*
X812800Y-1092200D02*
G54D10*
D03*
X787400Y-1193800D02*
G54D10*
D03*
X812800Y-1193800D02*
G54D10*
D03*
X787400Y-1295400D02*
G54D10*
D03*
X812800Y-1295400D02*
G54D10*
D03*
X787400Y-1397000D02*
G54D10*
D03*
X812800Y-1397000D02*
G54D10*
D03*
X889000Y-889000D02*
G54D10*
D03*
X914400Y-889000D02*
G54D10*
D03*
X889000Y-990600D02*
G54D10*
D03*
X914400Y-990600D02*
G54D10*
D03*
X889000Y-1092200D02*
G54D10*
D03*
X914400Y-1092200D02*
G54D10*
D03*
X889000Y-1193800D02*
G54D10*
D03*
X914400Y-1193800D02*
G54D10*
D03*
X889000Y-1295400D02*
G54D10*
D03*
X914400Y-1295400D02*
G54D10*
D03*
X889000Y-1397000D02*
G54D10*
D03*
X914400Y-1397000D02*
G54D10*
D03*
X990600Y-889000D02*
G54D10*
D03*
X1016000Y-889000D02*
G54D10*
D03*
X990600Y-990600D02*
G54D10*
D03*
X1016000Y-990600D02*
G54D10*
D03*
X990600Y-1092200D02*
G54D10*
D03*
X1016000Y-1092200D02*
G54D10*
D03*
X990600Y-1193800D02*
G54D10*
D03*
X1016000Y-1193800D02*
G54D10*
D03*
X990600Y-1295400D02*
G54D10*
D03*
X1016000Y-1295400D02*
G54D10*
D03*
X990600Y-1397000D02*
G54D10*
D03*
X1016000Y-1397000D02*
G54D10*
D03*
X1092200Y-787400D02*
G54D10*
D03*
X1117600Y-787400D02*
G54D10*
D03*
X1092200Y-889000D02*
G54D10*
D03*
X1117600Y-889000D02*
G54D10*
D03*
X1092200Y-990600D02*
G54D10*
D03*
X1117600Y-990600D02*
G54D10*
D03*
X1092200Y-1092200D02*
G54D10*
D03*
X1117600Y-1092200D02*
G54D10*
D03*
X1092200Y-1193800D02*
G54D10*
D03*
X1117600Y-1193800D02*
G54D10*
D03*
X1092200Y-1295400D02*
G54D10*
D03*
X1117600Y-1295400D02*
G54D10*
D03*
X1092200Y-1397000D02*
G54D10*
D03*
X1117600Y-1397000D02*
G54D10*
D03*
X1193800Y-787400D02*
G54D10*
D03*
X1219200Y-787400D02*
G54D10*
D03*
X1295400Y-787400D02*
G54D10*
D03*
X1320800Y-787400D02*
G54D10*
D03*
X1397000Y-787400D02*
G54D10*
D03*
X1422400Y-787400D02*
G54D10*
D03*
X1498600Y-787400D02*
G54D10*
D03*
X1524000Y-787400D02*
G54D10*
D03*
X1600200Y-787400D02*
G54D10*
D03*
X1625600Y-787400D02*
G54D10*
D03*
X1701800Y-787400D02*
G54D10*
D03*
X1727200Y-787400D02*
G54D10*
D03*
X1803400Y-787400D02*
G54D10*
D03*
X1828800Y-787400D02*
G54D10*
D03*
X1905000Y-787400D02*
G54D10*
D03*
X1930400Y-787400D02*
G54D10*
D03*
X2006600Y-787400D02*
G54D10*
D03*
X2032000Y-787400D02*
G54D10*
D03*
X1193800Y-889000D02*
G54D10*
D03*
X1219200Y-889000D02*
G54D10*
D03*
X1193800Y-990600D02*
G54D10*
D03*
X1219200Y-990600D02*
G54D10*
D03*
X1193800Y-1092200D02*
G54D10*
D03*
X1219200Y-1092200D02*
G54D10*
D03*
X1193800Y-1193800D02*
G54D10*
D03*
X1219200Y-1193800D02*
G54D10*
D03*
X1193800Y-1295400D02*
G54D10*
D03*
X1219200Y-1295400D02*
G54D10*
D03*
X1193800Y-1397000D02*
G54D10*
D03*
X1219200Y-1397000D02*
G54D10*
D03*
X1295400Y-889000D02*
G54D10*
D03*
X1320800Y-889000D02*
G54D10*
D03*
X1295400Y-990600D02*
G54D10*
D03*
X1320800Y-990600D02*
G54D10*
D03*
X1295400Y-1092200D02*
G54D10*
D03*
X1320800Y-1092200D02*
G54D10*
D03*
X1295400Y-1193800D02*
G54D10*
D03*
X1320800Y-1193800D02*
G54D10*
D03*
X1295400Y-1295400D02*
G54D10*
D03*
X1320800Y-1295400D02*
G54D10*
D03*
X1295400Y-1397000D02*
G54D10*
D03*
X1320800Y-1397000D02*
G54D10*
D03*
X1397000Y-889000D02*
G54D10*
D03*
X1422400Y-889000D02*
G54D10*
D03*
X1397000Y-990600D02*
G54D10*
D03*
X1422400Y-990600D02*
G54D10*
D03*
X1397000Y-1092200D02*
G54D10*
D03*
X1422400Y-1092200D02*
G54D10*
D03*
X1397000Y-1193800D02*
G54D10*
D03*
X1422400Y-1193800D02*
G54D10*
D03*
X1397000Y-1295400D02*
G54D10*
D03*
X1422400Y-1295400D02*
G54D10*
D03*
X1397000Y-1397000D02*
G54D10*
D03*
X1422400Y-1397000D02*
G54D10*
D03*
X1498600Y-889000D02*
G54D10*
D03*
X1524000Y-889000D02*
G54D10*
D03*
X1498600Y-990600D02*
G54D10*
D03*
X1524000Y-990600D02*
G54D10*
D03*
X1498600Y-1092200D02*
G54D10*
D03*
X1524000Y-1092200D02*
G54D10*
D03*
X1498600Y-1193800D02*
G54D10*
D03*
X1524000Y-1193800D02*
G54D10*
D03*
X1498600Y-1295400D02*
G54D10*
D03*
X1524000Y-1295400D02*
G54D10*
D03*
X1498600Y-1397000D02*
G54D10*
D03*
X1524000Y-1397000D02*
G54D10*
D03*
X1600200Y-889000D02*
G54D10*
D03*
X1625600Y-889000D02*
G54D10*
D03*
X1600200Y-990600D02*
G54D10*
D03*
X1625600Y-990600D02*
G54D10*
D03*
X1600200Y-1092200D02*
G54D10*
D03*
X1625600Y-1092200D02*
G54D10*
D03*
X1600200Y-1193800D02*
G54D10*
D03*
X1625600Y-1193800D02*
G54D10*
D03*
X1600200Y-1295400D02*
G54D10*
D03*
X1625600Y-1295400D02*
G54D10*
D03*
X1600200Y-1397000D02*
G54D10*
D03*
X1625600Y-1397000D02*
G54D10*
D03*
X1701800Y-889000D02*
G54D10*
D03*
X1727200Y-889000D02*
G54D10*
D03*
X1701800Y-990600D02*
G54D10*
D03*
X1727200Y-990600D02*
G54D10*
D03*
X1701800Y-1092200D02*
G54D10*
D03*
X1727200Y-1092200D02*
G54D10*
D03*
X1701800Y-1193800D02*
G54D10*
D03*
X1727200Y-1193800D02*
G54D10*
D03*
X1701800Y-1295400D02*
G54D10*
D03*
X1727200Y-1295400D02*
G54D10*
D03*
X1701800Y-1397000D02*
G54D10*
D03*
X1727200Y-1397000D02*
G54D10*
D03*
X1803400Y-889000D02*
G54D10*
D03*
X1828800Y-889000D02*
G54D10*
D03*
X1803400Y-990600D02*
G54D10*
D03*
X1828800Y-990600D02*
G54D10*
D03*
X1803400Y-1092200D02*
G54D10*
D03*
X1828800Y-1092200D02*
G54D10*
D03*
X1803400Y-1193800D02*
G54D10*
D03*
X1828800Y-1193800D02*
G54D10*
D03*
X1803400Y-1295400D02*
G54D10*
D03*
X1828800Y-1295400D02*
G54D10*
D03*
X1803400Y-1397000D02*
G54D10*
D03*
X1828800Y-1397000D02*
G54D10*
D03*
X1905000Y-889000D02*
G54D10*
D03*
X1930400Y-889000D02*
G54D10*
D03*
X1905000Y-990600D02*
G54D10*
D03*
X1930400Y-990600D02*
G54D10*
D03*
X1905000Y-1092200D02*
G54D10*
D03*
X1930400Y-1092200D02*
G54D10*
D03*
X1905000Y-1193800D02*
G54D10*
D03*
X1930400Y-1193800D02*
G54D10*
D03*
X1905000Y-1295400D02*
G54D10*
D03*
X1930400Y-1295400D02*
G54D10*
D03*
X1905000Y-1397000D02*
G54D10*
D03*
X1930400Y-1397000D02*
G54D10*
D03*
X2006600Y-889000D02*
G54D10*
D03*
X2032000Y-889000D02*
G54D10*
D03*
X2006600Y-990600D02*
G54D10*
D03*
X2032000Y-990600D02*
G54D10*
D03*
X2006600Y-1092200D02*
G54D10*
D03*
X2032000Y-1092200D02*
G54D10*
D03*
X2006600Y-1193800D02*
G54D10*
D03*
X2032000Y-1193800D02*
G54D10*
D03*
X2006600Y-1295400D02*
G54D10*
D03*
X2032000Y-1295400D02*
G54D10*
D03*
X2006600Y-1397000D02*
G54D10*
D03*
X2032000Y-1397000D02*
G54D10*
D03*
G36*
X31649Y-689876D02*
X31649Y-708676D01*
X12849Y-708676D01*
X12849Y-689876D01*
X31649Y-689876D01*
G37*
X47649Y-699276D02*
G54D11*
D03*
X22249Y-724676D02*
G54D11*
D03*
X47649Y-724676D02*
G54D11*
D03*
X22249Y-750076D02*
G54D11*
D03*
X47649Y-750076D02*
G54D11*
D03*
X22249Y-775476D02*
G54D11*
D03*
X47649Y-775476D02*
G54D11*
D03*
X314400Y-649875D02*
G54D12*
D03*
X286400Y-649875D02*
G54D12*
D03*
X314400Y-620665D02*
G54D12*
D03*
X286400Y-620665D02*
G54D12*
D03*
X314400Y-535575D02*
G54D12*
D03*
X286400Y-535575D02*
G54D12*
D03*
X314400Y-433975D02*
G54D12*
D03*
X286400Y-433975D02*
G54D12*
D03*
X314400Y-332375D02*
G54D12*
D03*
X286400Y-332375D02*
G54D12*
D03*
X314400Y-230775D02*
G54D12*
D03*
X286400Y-230775D02*
G54D12*
D03*
X314400Y-129175D02*
G54D12*
D03*
X286400Y-129175D02*
G54D12*
D03*
X631900Y-649875D02*
G54D12*
D03*
X603900Y-649875D02*
G54D12*
D03*
X631900Y-620665D02*
G54D12*
D03*
X603900Y-620665D02*
G54D12*
D03*
X631900Y-535575D02*
G54D12*
D03*
X603900Y-535575D02*
G54D12*
D03*
X631900Y-433975D02*
G54D12*
D03*
X603900Y-433975D02*
G54D12*
D03*
X631900Y-332375D02*
G54D12*
D03*
X603900Y-332375D02*
G54D12*
D03*
X631900Y-230775D02*
G54D12*
D03*
X603900Y-230775D02*
G54D12*
D03*
X631900Y-129175D02*
G54D12*
D03*
X603900Y-129175D02*
G54D12*
D03*
X936700Y-649875D02*
G54D12*
D03*
X908700Y-649875D02*
G54D12*
D03*
X936700Y-620665D02*
G54D12*
D03*
X908700Y-620665D02*
G54D12*
D03*
X936700Y-535575D02*
G54D12*
D03*
X908700Y-535575D02*
G54D12*
D03*
X936700Y-433975D02*
G54D12*
D03*
X908700Y-433975D02*
G54D12*
D03*
X936700Y-332375D02*
G54D12*
D03*
X908700Y-332375D02*
G54D12*
D03*
X936700Y-230775D02*
G54D12*
D03*
X908700Y-230775D02*
G54D12*
D03*
X936700Y-129175D02*
G54D12*
D03*
X908700Y-129175D02*
G54D12*
D03*
X1038300Y-319675D02*
G54D12*
D03*
X1010300Y-319675D02*
G54D12*
D03*
X1038300Y-533035D02*
G54D12*
D03*
X1010300Y-533035D02*
G54D12*
D03*
X1343100Y-649875D02*
G54D12*
D03*
X1315100Y-649875D02*
G54D12*
D03*
X1343100Y-620665D02*
G54D12*
D03*
X1315100Y-620665D02*
G54D12*
D03*
X1343100Y-535575D02*
G54D12*
D03*
X1315100Y-535575D02*
G54D12*
D03*
X1343100Y-433975D02*
G54D12*
D03*
X1315100Y-433975D02*
G54D12*
D03*
X1343100Y-332375D02*
G54D12*
D03*
X1315100Y-332375D02*
G54D12*
D03*
X1343100Y-230775D02*
G54D12*
D03*
X1315100Y-230775D02*
G54D12*
D03*
X1343100Y-129175D02*
G54D12*
D03*
X1315100Y-129175D02*
G54D12*
D03*
X1660600Y-649875D02*
G54D12*
D03*
X1632600Y-649875D02*
G54D12*
D03*
X1660600Y-620665D02*
G54D12*
D03*
X1632600Y-620665D02*
G54D12*
D03*
X1660600Y-535575D02*
G54D12*
D03*
X1632600Y-535575D02*
G54D12*
D03*
X1660600Y-433975D02*
G54D12*
D03*
X1632600Y-433975D02*
G54D12*
D03*
X1660600Y-332375D02*
G54D12*
D03*
X1632600Y-332375D02*
G54D12*
D03*
X1660600Y-230775D02*
G54D12*
D03*
X1632600Y-230775D02*
G54D12*
D03*
X1660600Y-129175D02*
G54D12*
D03*
X1632600Y-129175D02*
G54D12*
D03*
X1952700Y-649875D02*
G54D12*
D03*
X1924700Y-649875D02*
G54D12*
D03*
X1952700Y-620665D02*
G54D12*
D03*
X1924700Y-620665D02*
G54D12*
D03*
X1952700Y-535575D02*
G54D12*
D03*
X1924700Y-535575D02*
G54D12*
D03*
X1952700Y-433975D02*
G54D12*
D03*
X1924700Y-433975D02*
G54D12*
D03*
X1952700Y-332375D02*
G54D12*
D03*
X1924700Y-332375D02*
G54D12*
D03*
X1952700Y-230775D02*
G54D12*
D03*
X1924700Y-230775D02*
G54D12*
D03*
X1952700Y-129175D02*
G54D12*
D03*
X1924700Y-129175D02*
G54D12*
D03*
X2047950Y-319675D02*
G54D12*
D03*
X2019950Y-319675D02*
G54D12*
D03*
X2047950Y-520335D02*
G54D12*
D03*
X2019950Y-520335D02*
G54D12*
D03*
X2047950Y-637175D02*
G54D12*
D03*
X2019950Y-637175D02*
G54D12*
D03*
X1038300Y-634635D02*
G54D12*
D03*
X1010300Y-634635D02*
G54D12*
D03*
X1323920Y-822684D02*
G54D12*
D03*
X1351920Y-822684D02*
G54D12*
D03*
X1323920Y-851894D02*
G54D12*
D03*
X1351920Y-851894D02*
G54D12*
D03*
X1323920Y-936984D02*
G54D12*
D03*
X1351920Y-936984D02*
G54D12*
D03*
X1323920Y-1038584D02*
G54D12*
D03*
X1351920Y-1038584D02*
G54D12*
D03*
X1323920Y-1140184D02*
G54D12*
D03*
G36*
X1342920Y-1131184D02*
X1360920Y-1131184D01*
X1360920Y-1149184D01*
X1342920Y-1149184D01*
X1342920Y-1131184D01*
G37*
X1323920Y-1241784D02*
G54D12*
D03*
G36*
X1342920Y-1232784D02*
X1360920Y-1232784D01*
X1360920Y-1250784D01*
X1342920Y-1250784D01*
X1342920Y-1232784D01*
G37*
X1323920Y-1343384D02*
G54D12*
D03*
G36*
X1342920Y-1334384D02*
X1360920Y-1334384D01*
X1360920Y-1352384D01*
X1342920Y-1352384D01*
X1342920Y-1334384D01*
G37*
X1628720Y-822684D02*
G54D12*
D03*
X1656720Y-822684D02*
G54D12*
D03*
X1628720Y-851894D02*
G54D12*
D03*
X1656720Y-851894D02*
G54D12*
D03*
G36*
X1619720Y-927984D02*
X1637720Y-927984D01*
X1637720Y-945984D01*
X1619720Y-945984D01*
X1619720Y-927984D01*
G37*
X1656720Y-936984D02*
G54D12*
D03*
X1628720Y-1038584D02*
G54D12*
D03*
X1656720Y-1038584D02*
G54D12*
D03*
X1628720Y-1140184D02*
G54D12*
D03*
G36*
X1647720Y-1131184D02*
X1665720Y-1131184D01*
X1665720Y-1149184D01*
X1647720Y-1149184D01*
X1647720Y-1131184D01*
G37*
X1628720Y-1241784D02*
G54D12*
D03*
G36*
X1647720Y-1232784D02*
X1665720Y-1232784D01*
X1665720Y-1250784D01*
X1647720Y-1250784D01*
X1647720Y-1232784D01*
G37*
X1628720Y-1343384D02*
G54D12*
D03*
G36*
X1647720Y-1334384D02*
X1665720Y-1334384D01*
X1665720Y-1352384D01*
X1647720Y-1352384D01*
X1647720Y-1334384D01*
G37*
X1920820Y-822684D02*
G54D12*
D03*
X1948820Y-822684D02*
G54D12*
D03*
X1920820Y-851894D02*
G54D12*
D03*
X1948820Y-851894D02*
G54D12*
D03*
G36*
X1911820Y-927984D02*
X1929820Y-927984D01*
X1929820Y-945984D01*
X1911820Y-945984D01*
X1911820Y-927984D01*
G37*
X1948820Y-936984D02*
G54D12*
D03*
X1920820Y-1038584D02*
G54D12*
D03*
X1948820Y-1038584D02*
G54D12*
D03*
X1920820Y-1140184D02*
G54D12*
D03*
X1948820Y-1140184D02*
G54D12*
D03*
X1920820Y-1241784D02*
G54D12*
D03*
X1948820Y-1241784D02*
G54D12*
D03*
X1920820Y-1343384D02*
G54D12*
D03*
X1948820Y-1343384D02*
G54D12*
D03*
X2027778Y-1149699D02*
G54D12*
D03*
G36*
X2046778Y-1140700D02*
X2064778Y-1140699D01*
X2064778Y-1158699D01*
X2046778Y-1158700D01*
X2046778Y-1140700D01*
G37*
X2027778Y-949040D02*
G54D12*
D03*
G36*
X2046778Y-940040D02*
X2064778Y-940039D01*
X2064778Y-958039D01*
X2046778Y-958040D01*
X2046778Y-940040D01*
G37*
G36*
X2018778Y-823200D02*
X2036778Y-823199D01*
X2036778Y-841199D01*
X2018778Y-841200D01*
X2018778Y-823200D01*
G37*
G36*
X2046778Y-823200D02*
X2064778Y-823199D01*
X2064778Y-841199D01*
X2046778Y-841200D01*
X2046778Y-823200D01*
G37*
X307920Y-822684D02*
G54D12*
D03*
X335920Y-822684D02*
G54D12*
D03*
X307920Y-851894D02*
G54D12*
D03*
X335920Y-851894D02*
G54D12*
D03*
X307920Y-936984D02*
G54D12*
D03*
X335920Y-936984D02*
G54D12*
D03*
X307920Y-1038584D02*
G54D12*
D03*
X335920Y-1038584D02*
G54D12*
D03*
X307920Y-1140184D02*
G54D12*
D03*
G36*
X326920Y-1131184D02*
X344920Y-1131184D01*
X344920Y-1149184D01*
X326920Y-1149184D01*
X326920Y-1131184D01*
G37*
X307920Y-1241784D02*
G54D12*
D03*
G36*
X326920Y-1232784D02*
X344920Y-1232784D01*
X344920Y-1250784D01*
X326920Y-1250784D01*
X326920Y-1232784D01*
G37*
X307920Y-1343384D02*
G54D12*
D03*
G36*
X326920Y-1334384D02*
X344920Y-1334384D01*
X344920Y-1352384D01*
X326920Y-1352384D01*
X326920Y-1334384D01*
G37*
X612720Y-822684D02*
G54D12*
D03*
X640720Y-822684D02*
G54D12*
D03*
X612720Y-851894D02*
G54D12*
D03*
X640720Y-851894D02*
G54D12*
D03*
X612720Y-936984D02*
G54D12*
D03*
X640720Y-936984D02*
G54D12*
D03*
X612720Y-1038584D02*
G54D12*
D03*
X640720Y-1038584D02*
G54D12*
D03*
X612720Y-1140184D02*
G54D12*
D03*
G36*
X631720Y-1131184D02*
X649720Y-1131184D01*
X649720Y-1149184D01*
X631720Y-1149184D01*
X631720Y-1131184D01*
G37*
X612720Y-1241784D02*
G54D12*
D03*
G36*
X631720Y-1232784D02*
X649720Y-1232784D01*
X649720Y-1250784D01*
X631720Y-1250784D01*
X631720Y-1232784D01*
G37*
X612720Y-1343384D02*
G54D12*
D03*
G36*
X631720Y-1334384D02*
X649720Y-1334384D01*
X649720Y-1352384D01*
X631720Y-1352384D01*
X631720Y-1334384D01*
G37*
X904820Y-822684D02*
G54D12*
D03*
X932820Y-822684D02*
G54D12*
D03*
X904820Y-851894D02*
G54D12*
D03*
X932820Y-851894D02*
G54D12*
D03*
X904820Y-936984D02*
G54D12*
D03*
X932820Y-936984D02*
G54D12*
D03*
X904820Y-1038584D02*
G54D12*
D03*
X932820Y-1038584D02*
G54D12*
D03*
X904820Y-1140184D02*
G54D12*
D03*
G36*
X923820Y-1131184D02*
X941820Y-1131184D01*
X941820Y-1149184D01*
X923820Y-1149184D01*
X923820Y-1131184D01*
G37*
X904820Y-1241784D02*
G54D12*
D03*
G36*
X923820Y-1232784D02*
X941820Y-1232784D01*
X941820Y-1250784D01*
X923820Y-1250784D01*
X923820Y-1232784D01*
G37*
X904820Y-1343384D02*
G54D12*
D03*
G36*
X923820Y-1334384D02*
X941820Y-1334384D01*
X941820Y-1352384D01*
X923820Y-1352384D01*
X923820Y-1334384D01*
G37*
X1011778Y-1149699D02*
G54D12*
D03*
G36*
X1030778Y-1140700D02*
X1048778Y-1140699D01*
X1048778Y-1158699D01*
X1030778Y-1158700D01*
X1030778Y-1140700D01*
G37*
X1011778Y-949040D02*
G54D12*
D03*
G36*
X1030778Y-940040D02*
X1048778Y-940039D01*
X1048778Y-958039D01*
X1030778Y-958040D01*
X1030778Y-940040D01*
G37*
G36*
X1002778Y-823200D02*
X1020778Y-823199D01*
X1020778Y-841199D01*
X1002778Y-841200D01*
X1002778Y-823200D01*
G37*
G36*
X1030778Y-823200D02*
X1048778Y-823199D01*
X1048778Y-841199D01*
X1030778Y-841200D01*
X1030778Y-823200D01*
G37*
X1816100Y-127000D02*
G54D13*
D03*
X1816100Y-1346200D02*
G54D13*
D03*
X190500Y-1346200D02*
G54D13*
D03*
X190500Y-127000D02*
G54D13*
D03*
M02*
