; Drill file
; Format: 2.4 (00.0000)
M48
INCH
T01C0.0236
T02C0.0283
T03C0.1378
%
G05
G90
T01
X003000Y-055000
X004000Y-055000
X007000Y-055000
X008000Y-055000
X011000Y-055000
X012000Y-055000
X015000Y-055000
X016000Y-055000
X019000Y-055000
X020000Y-055000
X023000Y-055000
X024000Y-055000
X027000Y-055000
X028000Y-055000
X031000Y-055000
X032000Y-055000
X035000Y-055000
X036000Y-055000
X039000Y-055000
X040000Y-055000
X043000Y-055000
X044000Y-055000
X047000Y-055000
X048000Y-055000
X051000Y-055000
X052000Y-055000
X055000Y-055000
X056000Y-055000
X059000Y-055000
X060000Y-055000
X063000Y-055000
X064000Y-055000
X067000Y-055000
X068000Y-055000
X071000Y-055000
X072000Y-055000
X075000Y-055000
X076000Y-055000
X079000Y-055000
X080000Y-055000
X080000Y-051000
X079000Y-051000
X076000Y-051000
X075000Y-051000
X072000Y-051000
X071000Y-051000
X068000Y-051000
X067000Y-051000
X064000Y-051000
X063000Y-051000
X060000Y-051000
X059000Y-051000
X056000Y-051000
X055000Y-051000
X052000Y-051000
X051000Y-051000
X048000Y-051000
X047000Y-051000
X044000Y-051000
X043000Y-051000
X040000Y-051000
X039000Y-051000
X036000Y-051000
X035000Y-051000
X032000Y-051000
X031000Y-051000
X028000Y-051000
X027000Y-051000
X024000Y-051000
X023000Y-051000
X020000Y-051000
X019000Y-051000
X016000Y-051000
X015000Y-051000
X012000Y-051000
X011000Y-051000
X008000Y-051000
X007000Y-051000
X004000Y-051000
X003000Y-051000
X003000Y-047000
X004000Y-047000
X007000Y-047000
X008000Y-047000
X011000Y-047000
X012000Y-047000
X015000Y-047000
X016000Y-047000
X019000Y-047000
X020000Y-047000
X023000Y-047000
X024000Y-047000
X027000Y-047000
X028000Y-047000
X031000Y-047000
X032000Y-047000
X035000Y-047000
X036000Y-047000
X039000Y-047000
X040000Y-047000
X043000Y-047000
X044000Y-047000
X047000Y-047000
X048000Y-047000
X051000Y-047000
X052000Y-047000
X055000Y-047000
X056000Y-047000
X059000Y-047000
X060000Y-047000
X063000Y-047000
X064000Y-047000
X067000Y-047000
X068000Y-047000
X071000Y-047000
X072000Y-047000
X075000Y-047000
X076000Y-047000
X079000Y-047000
X080000Y-047000
X080000Y-043000
X079000Y-043000
X076000Y-043000
X075000Y-043000
X072000Y-043000
X071000Y-043000
X068000Y-043000
X067000Y-043000
X064000Y-043000
X063000Y-043000
X060000Y-043000
X059000Y-043000
X056000Y-043000
X055000Y-043000
X052000Y-043000
X051000Y-043000
X048000Y-043000
X047000Y-043000
X044000Y-043000
X043000Y-043000
X040000Y-043000
X039000Y-043000
X036000Y-043000
X035000Y-043000
X032000Y-043000
X031000Y-043000
X028000Y-043000
X027000Y-043000
X024000Y-043000
X023000Y-043000
X020000Y-043000
X019000Y-043000
X016000Y-043000
X015000Y-043000
X012000Y-043000
X011000Y-043000
X008000Y-043000
X007000Y-043000
X004000Y-043000
X003000Y-043000
X003000Y-039000
X004000Y-039000
X007000Y-039000
X008000Y-039000
X011000Y-039000
X012000Y-039000
X015000Y-039000
X016000Y-039000
X019000Y-039000
X020000Y-039000
X023000Y-039000
X024000Y-039000
X027000Y-039000
X028000Y-039000
X031000Y-039000
X032000Y-039000
X035000Y-039000
X036000Y-039000
X039000Y-039000
X040000Y-039000
X043000Y-039000
X044000Y-039000
X047000Y-039000
X048000Y-039000
X051000Y-039000
X052000Y-039000
X055000Y-039000
X056000Y-039000
X059000Y-039000
X060000Y-039000
X063000Y-039000
X064000Y-039000
X067000Y-039000
X068000Y-039000
X071000Y-039000
X072000Y-039000
X075000Y-039000
X076000Y-039000
X079000Y-039000
X080000Y-039000
X080000Y-035000
X079000Y-035000
X076000Y-035000
X075000Y-035000
X072000Y-035000
X071000Y-035000
X068000Y-035000
X067000Y-035000
X064000Y-035000
X063000Y-035000
X060000Y-035000
X059000Y-035000
X056000Y-035000
X055000Y-035000
X052000Y-035000
X051000Y-035000
X048000Y-035000
X047000Y-035000
X044000Y-035000
X043000Y-035000
X040000Y-035000
X039000Y-035000
X036000Y-035000
X035000Y-035000
X032000Y-035000
X031000Y-035000
X028000Y-035000
X027000Y-035000
X024000Y-035000
X023000Y-035000
X020000Y-035000
X019000Y-035000
X016000Y-035000
X015000Y-035000
X012000Y-035000
X011000Y-035000
X008000Y-035000
X007000Y-035000
X004000Y-035000
X003000Y-035000
X003000Y-031000
X004000Y-031000
X007000Y-031000
X008000Y-031000
X011000Y-031000
X012000Y-031000
X015000Y-031000
X016000Y-031000
X019000Y-031000
X020000Y-031000
X023000Y-031000
X024000Y-031000
X027000Y-031000
X028000Y-031000
X031000Y-031000
X032000Y-031000
X035000Y-031000
X036000Y-031000
X039000Y-031000
X040000Y-031000
X043000Y-031000
X044000Y-031000
X047000Y-031000
X048000Y-031000
X051000Y-031000
X052000Y-031000
X055000Y-031000
X056000Y-031000
X059000Y-031000
X060000Y-031000
X063000Y-031000
X064000Y-031000
X067000Y-031000
X068000Y-031000
X071000Y-031000
X072000Y-031000
X075000Y-031000
X076000Y-031000
X079000Y-031000
X080000Y-031000
X080000Y-027000
X079000Y-027000
X076000Y-027000
X075000Y-027000
X072000Y-027000
X071000Y-027000
X068000Y-027000
X067000Y-027000
X064000Y-027000
X063000Y-027000
X060000Y-027000
X059000Y-027000
X056000Y-027000
X055000Y-027000
X052000Y-027000
X051000Y-027000
X048000Y-027000
X047000Y-027000
X044000Y-027000
X043000Y-027000
X040000Y-027000
X039000Y-027000
X036000Y-027000
X035000Y-027000
X032000Y-027000
X031000Y-027000
X028000Y-027000
X027000Y-027000
X024000Y-027000
X023000Y-027000
X020000Y-027000
X019000Y-027000
X016000Y-027000
X015000Y-027000
X012000Y-027000
X011000Y-027000
X008000Y-027000
X007000Y-027000
X004000Y-027000
X003000Y-027000
X003000Y-023000
X004000Y-023000
X007000Y-023000
X008000Y-023000
X011000Y-023000
X012000Y-023000
X015000Y-023000
X016000Y-023000
X019000Y-023000
X020000Y-023000
X023000Y-023000
X024000Y-023000
X027000Y-023000
X028000Y-023000
X031000Y-023000
X032000Y-023000
X035000Y-023000
X036000Y-023000
X039000Y-023000
X040000Y-023000
X043000Y-023000
X044000Y-023000
X047000Y-023000
X048000Y-023000
X051000Y-023000
X052000Y-023000
X055000Y-023000
X056000Y-023000
X059000Y-023000
X060000Y-023000
X063000Y-023000
X064000Y-023000
X067000Y-023000
X068000Y-023000
X071000Y-023000
X072000Y-023000
X075000Y-023000
X076000Y-023000
X079000Y-023000
X080000Y-023000
X080000Y-019000
X079000Y-019000
X076000Y-019000
X075000Y-019000
X072000Y-019000
X071000Y-019000
X068000Y-019000
X067000Y-019000
X064000Y-019000
X063000Y-019000
X060000Y-019000
X059000Y-019000
X056000Y-019000
X055000Y-019000
X052000Y-019000
X051000Y-019000
X048000Y-019000
X047000Y-019000
X044000Y-019000
X043000Y-019000
X040000Y-019000
X039000Y-019000
X036000Y-019000
X035000Y-019000
X032000Y-019000
X031000Y-019000
X028000Y-019000
X027000Y-019000
X024000Y-019000
X023000Y-019000
X020000Y-019000
X019000Y-019000
X016000Y-019000
X015000Y-019000
X012000Y-019000
X011000Y-019000
X008000Y-019000
X007000Y-019000
X004000Y-019000
X003000Y-019000
X003000Y-015000
X004000Y-015000
X007000Y-015000
X008000Y-015000
X011000Y-015000
X012000Y-015000
X015000Y-015000
X016000Y-015000
X019000Y-015000
X020000Y-015000
X023000Y-015000
X024000Y-015000
X027000Y-015000
X028000Y-015000
X031000Y-015000
X032000Y-015000
X035000Y-015000
X036000Y-015000
X039000Y-015000
X040000Y-015000
X043000Y-015000
X044000Y-015000
X047000Y-015000
X048000Y-015000
X051000Y-015000
X052000Y-015000
X055000Y-015000
X056000Y-015000
X059000Y-015000
X060000Y-015000
X063000Y-015000
X064000Y-015000
X067000Y-015000
X068000Y-015000
X071000Y-015000
X072000Y-015000
X075000Y-015000
X076000Y-015000
X079000Y-015000
X080000Y-015000
X080000Y-011000
X079000Y-011000
X076000Y-011000
X075000Y-011000
X072000Y-011000
X071000Y-011000
X068000Y-011000
X067000Y-011000
X064000Y-011000
X063000Y-011000
X060000Y-011000
X059000Y-011000
X056000Y-011000
X055000Y-011000
X052000Y-011000
X051000Y-011000
X048000Y-011000
X047000Y-011000
X044000Y-011000
X043000Y-011000
X040000Y-011000
X039000Y-011000
X036000Y-011000
X035000Y-011000
X032000Y-011000
X031000Y-011000
X028000Y-011000
X027000Y-011000
X024000Y-011000
X023000Y-011000
X020000Y-011000
X019000Y-011000
X016000Y-011000
X015000Y-011000
X012000Y-011000
X011000Y-011000
X008000Y-011000
X007000Y-011000
X004000Y-011000
X003000Y-011000
X003000Y-007000
X004000Y-007000
X007000Y-007000
X008000Y-007000
X011000Y-007000
X012000Y-007000
X015000Y-007000
X016000Y-007000
X019000Y-007000
X020000Y-007000
X023000Y-007000
X024000Y-007000
X027000Y-007000
X028000Y-007000
X031000Y-007000
X032000Y-007000
X035000Y-007000
X036000Y-007000
X039000Y-007000
X040000Y-007000
X043000Y-007000
X044000Y-007000
X047000Y-007000
X048000Y-007000
X051000Y-007000
X052000Y-007000
X055000Y-007000
X056000Y-007000
X059000Y-007000
X060000Y-007000
X063000Y-007000
X064000Y-007000
X067000Y-007000
X068000Y-007000
X071000Y-007000
X072000Y-007000
X075000Y-007000
X076000Y-007000
X079000Y-007000
X080000Y-007000
X080000Y-003000
X079000Y-003000
X076000Y-003000
X075000Y-003000
X072000Y-003000
X071000Y-003000
X068000Y-003000
X067000Y-003000
X064000Y-003000
X063000Y-003000
X060000Y-003000
X059000Y-003000
X056000Y-003000
X055000Y-003000
X052000Y-003000
X051000Y-003000
X048000Y-003000
X047000Y-003000
X044000Y-003000
X043000Y-003000
X040000Y-003000
X039000Y-003000
X036000Y-003000
X035000Y-003000
X032000Y-003000
X031000Y-003000
X028000Y-003000
X027000Y-003000
X024000Y-003000
X023000Y-003000
X020000Y-003000
X019000Y-003000
X016000Y-003000
X015000Y-003000
X012000Y-003000
X011000Y-003000
X008000Y-003000
X007000Y-003000
X004000Y-003000
X003000Y-003000
T02
X000880Y-030530
X001880Y-030530
X001880Y-029530
X001880Y-028530
X000880Y-028530
X000880Y-027530
X001880Y-027530
X000880Y-029530
T03
X007500Y-053000
X007500Y-005000
X071500Y-005000
X071500Y-053000
M30
