%FSLAX34Y34*%
%MOMM*%
%LNSMDMASK_BOTTOM*%
G71*
G01*
%ADD10R, 1.600X1.600*%
%LPD*%
X314400Y-649875D02*
G54D10*
D03*
X286400Y-649875D02*
G54D10*
D03*
X314400Y-620665D02*
G54D10*
D03*
X286400Y-620665D02*
G54D10*
D03*
X314400Y-535575D02*
G54D10*
D03*
X286400Y-535575D02*
G54D10*
D03*
X314400Y-433975D02*
G54D10*
D03*
X286400Y-433975D02*
G54D10*
D03*
X314400Y-332375D02*
G54D10*
D03*
X286400Y-332375D02*
G54D10*
D03*
X314400Y-230775D02*
G54D10*
D03*
X286400Y-230775D02*
G54D10*
D03*
X314400Y-129175D02*
G54D10*
D03*
X286400Y-129175D02*
G54D10*
D03*
X631900Y-649875D02*
G54D10*
D03*
X603900Y-649875D02*
G54D10*
D03*
X631900Y-620665D02*
G54D10*
D03*
X603900Y-620665D02*
G54D10*
D03*
X631900Y-535575D02*
G54D10*
D03*
X603900Y-535575D02*
G54D10*
D03*
X631900Y-433975D02*
G54D10*
D03*
X603900Y-433975D02*
G54D10*
D03*
X631900Y-332375D02*
G54D10*
D03*
X603900Y-332375D02*
G54D10*
D03*
X631900Y-230775D02*
G54D10*
D03*
X603900Y-230775D02*
G54D10*
D03*
X631900Y-129175D02*
G54D10*
D03*
X603900Y-129175D02*
G54D10*
D03*
X936700Y-649875D02*
G54D10*
D03*
X908700Y-649875D02*
G54D10*
D03*
X936700Y-620665D02*
G54D10*
D03*
X908700Y-620665D02*
G54D10*
D03*
X936700Y-535575D02*
G54D10*
D03*
X908700Y-535575D02*
G54D10*
D03*
X936700Y-433975D02*
G54D10*
D03*
X908700Y-433975D02*
G54D10*
D03*
X936700Y-332375D02*
G54D10*
D03*
X908700Y-332375D02*
G54D10*
D03*
X936700Y-230775D02*
G54D10*
D03*
X908700Y-230775D02*
G54D10*
D03*
X936700Y-129175D02*
G54D10*
D03*
X908700Y-129175D02*
G54D10*
D03*
X1038300Y-319675D02*
G54D10*
D03*
X1010300Y-319675D02*
G54D10*
D03*
X1038300Y-533035D02*
G54D10*
D03*
X1010300Y-533035D02*
G54D10*
D03*
X1343100Y-649875D02*
G54D10*
D03*
X1315100Y-649875D02*
G54D10*
D03*
X1343100Y-620665D02*
G54D10*
D03*
X1315100Y-620665D02*
G54D10*
D03*
X1343100Y-535575D02*
G54D10*
D03*
X1315100Y-535575D02*
G54D10*
D03*
X1343100Y-433975D02*
G54D10*
D03*
X1315100Y-433975D02*
G54D10*
D03*
X1343100Y-332375D02*
G54D10*
D03*
X1315100Y-332375D02*
G54D10*
D03*
X1343100Y-230775D02*
G54D10*
D03*
X1315100Y-230775D02*
G54D10*
D03*
X1343100Y-129175D02*
G54D10*
D03*
X1315100Y-129175D02*
G54D10*
D03*
X1660600Y-649875D02*
G54D10*
D03*
X1632600Y-649875D02*
G54D10*
D03*
X1660600Y-620665D02*
G54D10*
D03*
X1632600Y-620665D02*
G54D10*
D03*
X1660600Y-535575D02*
G54D10*
D03*
X1632600Y-535575D02*
G54D10*
D03*
X1660600Y-433975D02*
G54D10*
D03*
X1632600Y-433975D02*
G54D10*
D03*
X1660600Y-332375D02*
G54D10*
D03*
X1632600Y-332375D02*
G54D10*
D03*
X1660600Y-230775D02*
G54D10*
D03*
X1632600Y-230775D02*
G54D10*
D03*
X1660600Y-129175D02*
G54D10*
D03*
X1632600Y-129175D02*
G54D10*
D03*
X1952700Y-649875D02*
G54D10*
D03*
X1924700Y-649875D02*
G54D10*
D03*
X1952700Y-620665D02*
G54D10*
D03*
X1924700Y-620665D02*
G54D10*
D03*
X1952700Y-535575D02*
G54D10*
D03*
X1924700Y-535575D02*
G54D10*
D03*
X1952700Y-433975D02*
G54D10*
D03*
X1924700Y-433975D02*
G54D10*
D03*
X1952700Y-332375D02*
G54D10*
D03*
X1924700Y-332375D02*
G54D10*
D03*
X1952700Y-230775D02*
G54D10*
D03*
X1924700Y-230775D02*
G54D10*
D03*
X1952700Y-129175D02*
G54D10*
D03*
X1924700Y-129175D02*
G54D10*
D03*
X2047950Y-319675D02*
G54D10*
D03*
X2019950Y-319675D02*
G54D10*
D03*
X2047950Y-520335D02*
G54D10*
D03*
X2019950Y-520335D02*
G54D10*
D03*
X2047950Y-637175D02*
G54D10*
D03*
X2019950Y-637175D02*
G54D10*
D03*
X1038300Y-634635D02*
G54D10*
D03*
X1010300Y-634635D02*
G54D10*
D03*
X1323920Y-822684D02*
G54D10*
D03*
X1351920Y-822684D02*
G54D10*
D03*
X1323920Y-851894D02*
G54D10*
D03*
X1351920Y-851894D02*
G54D10*
D03*
X1323920Y-936984D02*
G54D10*
D03*
X1351920Y-936984D02*
G54D10*
D03*
X1323920Y-1038584D02*
G54D10*
D03*
X1351920Y-1038584D02*
G54D10*
D03*
X1323920Y-1140184D02*
G54D10*
D03*
G36*
X1343920Y-1132184D02*
X1359920Y-1132184D01*
X1359920Y-1148184D01*
X1343920Y-1148184D01*
X1343920Y-1132184D01*
G37*
X1323920Y-1241784D02*
G54D10*
D03*
G36*
X1343920Y-1233784D02*
X1359920Y-1233784D01*
X1359920Y-1249784D01*
X1343920Y-1249784D01*
X1343920Y-1233784D01*
G37*
X1323920Y-1343384D02*
G54D10*
D03*
G36*
X1343920Y-1335384D02*
X1359920Y-1335384D01*
X1359920Y-1351384D01*
X1343920Y-1351384D01*
X1343920Y-1335384D01*
G37*
X1628720Y-822684D02*
G54D10*
D03*
X1656720Y-822684D02*
G54D10*
D03*
X1628720Y-851894D02*
G54D10*
D03*
X1656720Y-851894D02*
G54D10*
D03*
G36*
X1620720Y-928984D02*
X1636720Y-928984D01*
X1636720Y-944984D01*
X1620720Y-944984D01*
X1620720Y-928984D01*
G37*
X1656720Y-936984D02*
G54D10*
D03*
X1628720Y-1038584D02*
G54D10*
D03*
X1656720Y-1038584D02*
G54D10*
D03*
X1628720Y-1140184D02*
G54D10*
D03*
G36*
X1648720Y-1132184D02*
X1664720Y-1132184D01*
X1664720Y-1148184D01*
X1648720Y-1148184D01*
X1648720Y-1132184D01*
G37*
X1628720Y-1241784D02*
G54D10*
D03*
G36*
X1648720Y-1233784D02*
X1664720Y-1233784D01*
X1664720Y-1249784D01*
X1648720Y-1249784D01*
X1648720Y-1233784D01*
G37*
X1628720Y-1343384D02*
G54D10*
D03*
G36*
X1648720Y-1335384D02*
X1664720Y-1335384D01*
X1664720Y-1351384D01*
X1648720Y-1351384D01*
X1648720Y-1335384D01*
G37*
X1920820Y-822684D02*
G54D10*
D03*
X1948820Y-822684D02*
G54D10*
D03*
X1920820Y-851894D02*
G54D10*
D03*
X1948820Y-851894D02*
G54D10*
D03*
G36*
X1912820Y-928984D02*
X1928820Y-928984D01*
X1928820Y-944984D01*
X1912820Y-944984D01*
X1912820Y-928984D01*
G37*
X1948820Y-936984D02*
G54D10*
D03*
X1920820Y-1038584D02*
G54D10*
D03*
X1948820Y-1038584D02*
G54D10*
D03*
X1920820Y-1140184D02*
G54D10*
D03*
X1948820Y-1140184D02*
G54D10*
D03*
X1920820Y-1241784D02*
G54D10*
D03*
X1948820Y-1241784D02*
G54D10*
D03*
X1920820Y-1343384D02*
G54D10*
D03*
X1948820Y-1343384D02*
G54D10*
D03*
X2027778Y-1149699D02*
G54D10*
D03*
G36*
X2047778Y-1141700D02*
X2063778Y-1141699D01*
X2063778Y-1157699D01*
X2047778Y-1157700D01*
X2047778Y-1141700D01*
G37*
X2027778Y-949040D02*
G54D10*
D03*
G36*
X2047778Y-941040D02*
X2063778Y-941039D01*
X2063778Y-957039D01*
X2047778Y-957040D01*
X2047778Y-941040D01*
G37*
G36*
X2019778Y-824200D02*
X2035778Y-824199D01*
X2035778Y-840199D01*
X2019778Y-840200D01*
X2019778Y-824200D01*
G37*
G36*
X2047778Y-824200D02*
X2063778Y-824199D01*
X2063778Y-840199D01*
X2047778Y-840200D01*
X2047778Y-824200D01*
G37*
X307920Y-822684D02*
G54D10*
D03*
X335920Y-822684D02*
G54D10*
D03*
X307920Y-851894D02*
G54D10*
D03*
X335920Y-851894D02*
G54D10*
D03*
X307920Y-936984D02*
G54D10*
D03*
X335920Y-936984D02*
G54D10*
D03*
X307920Y-1038584D02*
G54D10*
D03*
X335920Y-1038584D02*
G54D10*
D03*
X307920Y-1140184D02*
G54D10*
D03*
G36*
X327920Y-1132184D02*
X343920Y-1132184D01*
X343920Y-1148184D01*
X327920Y-1148184D01*
X327920Y-1132184D01*
G37*
X307920Y-1241784D02*
G54D10*
D03*
G36*
X327920Y-1233784D02*
X343920Y-1233784D01*
X343920Y-1249784D01*
X327920Y-1249784D01*
X327920Y-1233784D01*
G37*
X307920Y-1343384D02*
G54D10*
D03*
G36*
X327920Y-1335384D02*
X343920Y-1335384D01*
X343920Y-1351384D01*
X327920Y-1351384D01*
X327920Y-1335384D01*
G37*
X612720Y-822684D02*
G54D10*
D03*
X640720Y-822684D02*
G54D10*
D03*
X612720Y-851894D02*
G54D10*
D03*
X640720Y-851894D02*
G54D10*
D03*
X612720Y-936984D02*
G54D10*
D03*
X640720Y-936984D02*
G54D10*
D03*
X612720Y-1038584D02*
G54D10*
D03*
X640720Y-1038584D02*
G54D10*
D03*
X612720Y-1140184D02*
G54D10*
D03*
G36*
X632720Y-1132184D02*
X648720Y-1132184D01*
X648720Y-1148184D01*
X632720Y-1148184D01*
X632720Y-1132184D01*
G37*
X612720Y-1241784D02*
G54D10*
D03*
G36*
X632720Y-1233784D02*
X648720Y-1233784D01*
X648720Y-1249784D01*
X632720Y-1249784D01*
X632720Y-1233784D01*
G37*
X612720Y-1343384D02*
G54D10*
D03*
G36*
X632720Y-1335384D02*
X648720Y-1335384D01*
X648720Y-1351384D01*
X632720Y-1351384D01*
X632720Y-1335384D01*
G37*
X904820Y-822684D02*
G54D10*
D03*
X932820Y-822684D02*
G54D10*
D03*
X904820Y-851894D02*
G54D10*
D03*
X932820Y-851894D02*
G54D10*
D03*
X904820Y-936984D02*
G54D10*
D03*
X932820Y-936984D02*
G54D10*
D03*
X904820Y-1038584D02*
G54D10*
D03*
X932820Y-1038584D02*
G54D10*
D03*
X904820Y-1140184D02*
G54D10*
D03*
G36*
X924820Y-1132184D02*
X940820Y-1132184D01*
X940820Y-1148184D01*
X924820Y-1148184D01*
X924820Y-1132184D01*
G37*
X904820Y-1241784D02*
G54D10*
D03*
G36*
X924820Y-1233784D02*
X940820Y-1233784D01*
X940820Y-1249784D01*
X924820Y-1249784D01*
X924820Y-1233784D01*
G37*
X904820Y-1343384D02*
G54D10*
D03*
G36*
X924820Y-1335384D02*
X940820Y-1335384D01*
X940820Y-1351384D01*
X924820Y-1351384D01*
X924820Y-1335384D01*
G37*
X1011778Y-1149699D02*
G54D10*
D03*
G36*
X1031778Y-1141700D02*
X1047778Y-1141699D01*
X1047778Y-1157699D01*
X1031778Y-1157700D01*
X1031778Y-1141700D01*
G37*
X1011778Y-949040D02*
G54D10*
D03*
G36*
X1031778Y-941040D02*
X1047778Y-941039D01*
X1047778Y-957039D01*
X1031778Y-957040D01*
X1031778Y-941040D01*
G37*
G36*
X1003778Y-824200D02*
X1019778Y-824199D01*
X1019778Y-840199D01*
X1003778Y-840200D01*
X1003778Y-824200D01*
G37*
G36*
X1031778Y-824200D02*
X1047778Y-824199D01*
X1047778Y-840199D01*
X1031778Y-840200D01*
X1031778Y-824200D01*
G37*
M02*
