solid OpenSCAD_Model
  facet normal -1 0 0
    outer loop
      vertex -109.3 95.7 -1
      vertex -109.3 204.3 1
      vertex -109.3 204.3 -1
    endloop
  endfacet
  facet normal -1 -0 0
    outer loop
      vertex -109.3 204.3 1
      vertex -109.3 95.7 -1
      vertex -109.3 95.7 1
    endloop
  endfacet
  facet normal 0 0 1
    outer loop
      vertex 0 204.3 1
      vertex -107.3 202.3 1
      vertex 0 202.3 1
    endloop
  endfacet
  facet normal 0 0 1
    outer loop
      vertex -107.3 202.3 1
      vertex -109.3 204.3 1
      vertex -107.3 97.7 1
    endloop
  endfacet
  facet normal -0 0 1
    outer loop
      vertex -109.3 204.3 1
      vertex -107.3 202.3 1
      vertex 0 204.3 1
    endloop
  endfacet
  facet normal -0 0 1
    outer loop
      vertex -107.3 97.7 1
      vertex 0 95.7 1
      vertex 0 97.7 1
    endloop
  endfacet
  facet normal 0 0 1
    outer loop
      vertex -107.3 97.7 1
      vertex -109.3 95.7 1
      vertex 0 95.7 1
    endloop
  endfacet
  facet normal 0 0 1
    outer loop
      vertex -109.3 95.7 1
      vertex -107.3 97.7 1
      vertex -109.3 204.3 1
    endloop
  endfacet
  facet normal 0 0 -1
    outer loop
      vertex -109.3 95.7 -1
      vertex 0 204.3 -1
      vertex 0 95.7 -1
    endloop
  endfacet
  facet normal -0 0 -1
    outer loop
      vertex 0 204.3 -1
      vertex -109.3 95.7 -1
      vertex -109.3 204.3 -1
    endloop
  endfacet
  facet normal 0 -1 0
    outer loop
      vertex -109.3 95.7 -1
      vertex 0 95.7 1
      vertex -109.3 95.7 1
    endloop
  endfacet
  facet normal 0 -1 -0
    outer loop
      vertex 0 95.7 1
      vertex -109.3 95.7 -1
      vertex 0 95.7 -1
    endloop
  endfacet
  facet normal 0 1 -0
    outer loop
      vertex 0 204.3 -1
      vertex -109.3 204.3 1
      vertex 0 204.3 1
    endloop
  endfacet
  facet normal 0 1 0
    outer loop
      vertex -109.3 204.3 1
      vertex 0 204.3 -1
      vertex -109.3 204.3 -1
    endloop
  endfacet
  facet normal -1 0 0
    outer loop
      vertex -107.3 97.7 1
      vertex -107.3 202.3 2
      vertex -107.3 202.3 1
    endloop
  endfacet
  facet normal -1 -0 0
    outer loop
      vertex -107.3 202.3 2
      vertex -107.3 97.7 1
      vertex -107.3 97.7 2
    endloop
  endfacet
  facet normal -0 0 1
    outer loop
      vertex -107.3 202.3 2
      vertex 10 97.7 2
      vertex 10 202.3 2
    endloop
  endfacet
  facet normal 0 0 1
    outer loop
      vertex 10 97.7 2
      vertex -107.3 202.3 2
      vertex -107.3 97.7 2
    endloop
  endfacet
  facet normal 0 1 0
    outer loop
      vertex 0 202.3 1.01
      vertex 10 202.3 2
      vertex 10 202.3 1.01
    endloop
  endfacet
  facet normal 0 1 0
    outer loop
      vertex 10 202.3 2
      vertex 0 202.3 1.01
      vertex -107.3 202.3 2
    endloop
  endfacet
  facet normal 0 1 -0
    outer loop
      vertex 0 202.3 1
      vertex -107.3 202.3 2
      vertex 0 202.3 1.01
    endloop
  endfacet
  facet normal 0 1 0
    outer loop
      vertex -107.3 202.3 2
      vertex 0 202.3 1
      vertex -107.3 202.3 1
    endloop
  endfacet
  facet normal 0 -1 0
    outer loop
      vertex -107.3 97.7 2
      vertex 0 97.7 1.01
      vertex 10 97.7 2
    endloop
  endfacet
  facet normal 0 -1 0
    outer loop
      vertex -107.3 97.7 1
      vertex 0 97.7 1.01
      vertex -107.3 97.7 2
    endloop
  endfacet
  facet normal 0 -1 -0
    outer loop
      vertex 0 97.7 1.01
      vertex -107.3 97.7 1
      vertex 0 97.7 1
    endloop
  endfacet
  facet normal 0 -1 -0
    outer loop
      vertex 10 97.7 2
      vertex 0 97.7 1.01
      vertex 10 97.7 1.01
    endloop
  endfacet
  facet normal 1 -0 0
    outer loop
      vertex 10 97.7 2
      vertex 10 202.3 1.01
      vertex 10 202.3 2
    endloop
  endfacet
  facet normal 1 0 0
    outer loop
      vertex 10 202.3 1.01
      vertex 10 97.7 2
      vertex 10 97.7 1.01
    endloop
  endfacet
  facet normal 1 0 0
    outer loop
      vertex 0 202.3 1.01
      vertex 0 97.7 1.01
      vertex 0 202.3 1
    endloop
  endfacet
  facet normal 1 -0 0
    outer loop
      vertex 0 202.3 1
      vertex 0 204.3 -1
      vertex 0 204.3 1
    endloop
  endfacet
  facet normal 1 0 0
    outer loop
      vertex 0 97.7 1
      vertex 0 202.3 1
      vertex 0 97.7 1.01
    endloop
  endfacet
  facet normal 1 0 0
    outer loop
      vertex 0 202.3 1
      vertex 0 97.7 1
      vertex 0 204.3 -1
    endloop
  endfacet
  facet normal 1 0 0
    outer loop
      vertex 0 95.7 -1
      vertex 0 97.7 1
      vertex 0 95.7 1
    endloop
  endfacet
  facet normal 1 0 0
    outer loop
      vertex 0 97.7 1
      vertex 0 95.7 -1
      vertex 0 204.3 -1
    endloop
  endfacet
  facet normal 0 0 -1
    outer loop
      vertex 0 97.7 1.01
      vertex 10 202.3 1.01
      vertex 10 97.7 1.01
    endloop
  endfacet
  facet normal -0 0 -1
    outer loop
      vertex 10 202.3 1.01
      vertex 0 97.7 1.01
      vertex 0 202.3 1.01
    endloop
  endfacet
endsolid OpenSCAD_Model
