solid OpenSCAD_Model
  facet normal -1 0 0
    outer loop
      vertex 113.2 -66.8 -1
      vertex 113.2 66.8 1
      vertex 113.2 66.8 -1
    endloop
  endfacet
  facet normal -1 -0 0
    outer loop
      vertex 113.2 66.8 1
      vertex 113.2 -66.8 -1
      vertex 113.2 -66.8 1
    endloop
  endfacet
  facet normal 0 0 1
    outer loop
      vertex 186.8 66.8 1
      vertex 184.8 64.8 1
      vertex 186.8 -66.8 1
    endloop
  endfacet
  facet normal 0 0 1
    outer loop
      vertex 186.8 66.8 1
      vertex 115.2 64.8 1
      vertex 184.8 64.8 1
    endloop
  endfacet
  facet normal 0 0 1
    outer loop
      vertex 115.2 64.8 1
      vertex 113.2 66.8 1
      vertex 115.2 -64.8 1
    endloop
  endfacet
  facet normal -0 0 1
    outer loop
      vertex 113.2 66.8 1
      vertex 115.2 64.8 1
      vertex 186.8 66.8 1
    endloop
  endfacet
  facet normal -0 0 1
    outer loop
      vertex 184.8 -64.8 1
      vertex 186.8 -66.8 1
      vertex 184.8 64.8 1
    endloop
  endfacet
  facet normal -0 0 1
    outer loop
      vertex 115.2 -64.8 1
      vertex 186.8 -66.8 1
      vertex 184.8 -64.8 1
    endloop
  endfacet
  facet normal 0 0 1
    outer loop
      vertex 115.2 -64.8 1
      vertex 113.2 -66.8 1
      vertex 186.8 -66.8 1
    endloop
  endfacet
  facet normal 0 0 1
    outer loop
      vertex 113.2 -66.8 1
      vertex 115.2 -64.8 1
      vertex 113.2 66.8 1
    endloop
  endfacet
  facet normal 1 -0 0
    outer loop
      vertex 186.8 -66.8 1
      vertex 186.8 66.8 -1
      vertex 186.8 66.8 1
    endloop
  endfacet
  facet normal 1 0 0
    outer loop
      vertex 186.8 66.8 -1
      vertex 186.8 -66.8 1
      vertex 186.8 -66.8 -1
    endloop
  endfacet
  facet normal 0 0 -1
    outer loop
      vertex 113.2 -66.8 -1
      vertex 186.8 66.8 -1
      vertex 186.8 -66.8 -1
    endloop
  endfacet
  facet normal -0 0 -1
    outer loop
      vertex 186.8 66.8 -1
      vertex 113.2 -66.8 -1
      vertex 113.2 66.8 -1
    endloop
  endfacet
  facet normal 0 -1 0
    outer loop
      vertex 113.2 -66.8 -1
      vertex 186.8 -66.8 1
      vertex 113.2 -66.8 1
    endloop
  endfacet
  facet normal 0 -1 -0
    outer loop
      vertex 186.8 -66.8 1
      vertex 113.2 -66.8 -1
      vertex 186.8 -66.8 -1
    endloop
  endfacet
  facet normal 0 1 -0
    outer loop
      vertex 186.8 66.8 -1
      vertex 113.2 66.8 1
      vertex 186.8 66.8 1
    endloop
  endfacet
  facet normal 0 1 0
    outer loop
      vertex 113.2 66.8 1
      vertex 186.8 66.8 -1
      vertex 113.2 66.8 -1
    endloop
  endfacet
  facet normal -1 0 0
    outer loop
      vertex 115.2 -64.8 1
      vertex 115.2 64.8 2
      vertex 115.2 64.8 1
    endloop
  endfacet
  facet normal -1 -0 0
    outer loop
      vertex 115.2 64.8 2
      vertex 115.2 -64.8 1
      vertex 115.2 -64.8 2
    endloop
  endfacet
  facet normal -0 0 1
    outer loop
      vertex 115.2 64.8 2
      vertex 184.8 -64.8 2
      vertex 184.8 64.8 2
    endloop
  endfacet
  facet normal 0 0 1
    outer loop
      vertex 184.8 -64.8 2
      vertex 115.2 64.8 2
      vertex 115.2 -64.8 2
    endloop
  endfacet
  facet normal 1 -0 0
    outer loop
      vertex 184.8 -64.8 2
      vertex 184.8 64.8 1
      vertex 184.8 64.8 2
    endloop
  endfacet
  facet normal 1 0 0
    outer loop
      vertex 184.8 64.8 1
      vertex 184.8 -64.8 2
      vertex 184.8 -64.8 1
    endloop
  endfacet
  facet normal 0 -1 0
    outer loop
      vertex 115.2 -64.8 1
      vertex 184.8 -64.8 2
      vertex 115.2 -64.8 2
    endloop
  endfacet
  facet normal 0 -1 -0
    outer loop
      vertex 184.8 -64.8 2
      vertex 115.2 -64.8 1
      vertex 184.8 -64.8 1
    endloop
  endfacet
  facet normal 0 1 -0
    outer loop
      vertex 184.8 64.8 1
      vertex 115.2 64.8 2
      vertex 184.8 64.8 2
    endloop
  endfacet
  facet normal 0 1 0
    outer loop
      vertex 115.2 64.8 2
      vertex 184.8 64.8 1
      vertex 115.2 64.8 1
    endloop
  endfacet
endsolid OpenSCAD_Model
