solid OpenSCAD_Model
  facet normal -1 0 0
    outer loop
      vertex -79.3 -4.65 -1
      vertex -79.3 4.65 1
      vertex -79.3 4.65 -1
    endloop
  endfacet
  facet normal -1 -0 0
    outer loop
      vertex -79.3 4.65 1
      vertex -79.3 -4.65 -1
      vertex -79.3 -4.65 1
    endloop
  endfacet
  facet normal 0 0 1
    outer loop
      vertex -77.3 4.65 1
      vertex -79.3 4.65 1
      vertex -77.3 -2.65 1
    endloop
  endfacet
  facet normal 0 0 1
    outer loop
      vertex 77.3 -2.65 1
      vertex 79.3 4.65 1
      vertex 77.3 4.65 1
    endloop
  endfacet
  facet normal 0 0 1
    outer loop
      vertex 79.3 4.65 1
      vertex 77.3 -2.65 1
      vertex 79.3 -4.65 1
    endloop
  endfacet
  facet normal -0 0 1
    outer loop
      vertex -77.3 -2.65 1
      vertex 79.3 -4.65 1
      vertex 77.3 -2.65 1
    endloop
  endfacet
  facet normal 0 0 1
    outer loop
      vertex -77.3 -2.65 1
      vertex -79.3 -4.65 1
      vertex 79.3 -4.65 1
    endloop
  endfacet
  facet normal 0 0 1
    outer loop
      vertex -79.3 -4.65 1
      vertex -77.3 -2.65 1
      vertex -79.3 4.65 1
    endloop
  endfacet
  facet normal 1 -0 0
    outer loop
      vertex 79.3 -4.65 1
      vertex 79.3 4.65 -1
      vertex 79.3 4.65 1
    endloop
  endfacet
  facet normal 1 0 0
    outer loop
      vertex 79.3 4.65 -1
      vertex 79.3 -4.65 1
      vertex 79.3 -4.65 -1
    endloop
  endfacet
  facet normal 0 1 -0
    outer loop
      vertex 79.3 4.65 -1
      vertex 77.3 4.65 1
      vertex 79.3 4.65 1
    endloop
  endfacet
  facet normal 0 1 0
    outer loop
      vertex 77.3 4.65 1
      vertex 79.3 4.65 -1
      vertex -77.3 4.65 1
    endloop
  endfacet
  facet normal 0 1 0
    outer loop
      vertex -79.3 4.65 -1
      vertex -77.3 4.65 1
      vertex 79.3 4.65 -1
    endloop
  endfacet
  facet normal 0 1 0
    outer loop
      vertex -77.3 4.65 1
      vertex -79.3 4.65 -1
      vertex -79.3 4.65 1
    endloop
  endfacet
  facet normal 0 1 -0
    outer loop
      vertex 77.3 4.65 1
      vertex -77.3 4.65 2
      vertex 77.3 4.65 2
    endloop
  endfacet
  facet normal 0 1 0
    outer loop
      vertex -77.3 4.65 2
      vertex 77.3 4.65 1
      vertex -77.3 4.65 1
    endloop
  endfacet
  facet normal 0 0 -1
    outer loop
      vertex -79.3 -4.65 -1
      vertex 79.3 4.65 -1
      vertex 79.3 -4.65 -1
    endloop
  endfacet
  facet normal -0 0 -1
    outer loop
      vertex 79.3 4.65 -1
      vertex -79.3 -4.65 -1
      vertex -79.3 4.65 -1
    endloop
  endfacet
  facet normal 0 -1 0
    outer loop
      vertex -79.3 -4.65 -1
      vertex 79.3 -4.65 1
      vertex -79.3 -4.65 1
    endloop
  endfacet
  facet normal 0 -1 -0
    outer loop
      vertex 79.3 -4.65 1
      vertex -79.3 -4.65 -1
      vertex 79.3 -4.65 -1
    endloop
  endfacet
  facet normal -1 0 0
    outer loop
      vertex -77.3 -2.65 1
      vertex -77.3 4.65 2
      vertex -77.3 4.65 1
    endloop
  endfacet
  facet normal -1 -0 0
    outer loop
      vertex -77.3 4.65 2
      vertex -77.3 -2.65 1
      vertex -77.3 -2.65 2
    endloop
  endfacet
  facet normal -0 0 1
    outer loop
      vertex -77.3 4.65 2
      vertex 77.3 -2.65 2
      vertex 77.3 4.65 2
    endloop
  endfacet
  facet normal 0 0 1
    outer loop
      vertex 77.3 -2.65 2
      vertex -77.3 4.65 2
      vertex -77.3 -2.65 2
    endloop
  endfacet
  facet normal 1 -0 0
    outer loop
      vertex 77.3 -2.65 2
      vertex 77.3 4.65 1
      vertex 77.3 4.65 2
    endloop
  endfacet
  facet normal 1 0 0
    outer loop
      vertex 77.3 4.65 1
      vertex 77.3 -2.65 2
      vertex 77.3 -2.65 1
    endloop
  endfacet
  facet normal 0 -1 0
    outer loop
      vertex -77.3 -2.65 1
      vertex 77.3 -2.65 2
      vertex -77.3 -2.65 2
    endloop
  endfacet
  facet normal 0 -1 -0
    outer loop
      vertex 77.3 -2.65 2
      vertex -77.3 -2.65 1
      vertex 77.3 -2.65 1
    endloop
  endfacet
endsolid OpenSCAD_Model
