solid OpenSCAD_Model
  facet normal -1 0 0
    outer loop
      vertex -36.8 -79.3 -1
      vertex -36.8 79.3 1
      vertex -36.8 79.3 -1
    endloop
  endfacet
  facet normal -1 -0 0
    outer loop
      vertex -36.8 79.3 1
      vertex -36.8 -79.3 -1
      vertex -36.8 -79.3 1
    endloop
  endfacet
  facet normal 0 0 1
    outer loop
      vertex 36.8 79.3 1
      vertex 34.8 77.3 1
      vertex 36.8 -79.3 1
    endloop
  endfacet
  facet normal 0 0 1
    outer loop
      vertex 36.8 79.3 1
      vertex -34.8 77.3 1
      vertex 34.8 77.3 1
    endloop
  endfacet
  facet normal 0 0 1
    outer loop
      vertex -34.8 77.3 1
      vertex -36.8 79.3 1
      vertex -34.8 -77.3 1
    endloop
  endfacet
  facet normal -0 0 1
    outer loop
      vertex -36.8 79.3 1
      vertex -34.8 77.3 1
      vertex 36.8 79.3 1
    endloop
  endfacet
  facet normal -0 0 1
    outer loop
      vertex 34.8 -77.3 1
      vertex 36.8 -79.3 1
      vertex 34.8 77.3 1
    endloop
  endfacet
  facet normal -0 0 1
    outer loop
      vertex -34.8 -77.3 1
      vertex 36.8 -79.3 1
      vertex 34.8 -77.3 1
    endloop
  endfacet
  facet normal 0 0 1
    outer loop
      vertex -34.8 -77.3 1
      vertex -36.8 -79.3 1
      vertex 36.8 -79.3 1
    endloop
  endfacet
  facet normal 0 0 1
    outer loop
      vertex -36.8 -79.3 1
      vertex -34.8 -77.3 1
      vertex -36.8 79.3 1
    endloop
  endfacet
  facet normal 1 -0 0
    outer loop
      vertex 36.8 -79.3 1
      vertex 36.8 79.3 -1
      vertex 36.8 79.3 1
    endloop
  endfacet
  facet normal 1 0 0
    outer loop
      vertex 36.8 79.3 -1
      vertex 36.8 -79.3 1
      vertex 36.8 -79.3 -1
    endloop
  endfacet
  facet normal 0 1 -0
    outer loop
      vertex 36.8 79.3 -1
      vertex -36.8 79.3 1
      vertex 36.8 79.3 1
    endloop
  endfacet
  facet normal 0 1 0
    outer loop
      vertex -36.8 79.3 1
      vertex 36.8 79.3 -1
      vertex -36.8 79.3 -1
    endloop
  endfacet
  facet normal 0 0 -1
    outer loop
      vertex -36.8 -79.3 -1
      vertex 36.8 79.3 -1
      vertex 36.8 -79.3 -1
    endloop
  endfacet
  facet normal -0 0 -1
    outer loop
      vertex 36.8 79.3 -1
      vertex -36.8 -79.3 -1
      vertex -36.8 79.3 -1
    endloop
  endfacet
  facet normal 0 -1 0
    outer loop
      vertex -36.8 -79.3 -1
      vertex 36.8 -79.3 1
      vertex -36.8 -79.3 1
    endloop
  endfacet
  facet normal 0 -1 -0
    outer loop
      vertex 36.8 -79.3 1
      vertex -36.8 -79.3 -1
      vertex 36.8 -79.3 -1
    endloop
  endfacet
  facet normal -1 0 0
    outer loop
      vertex -34.8 -77.3 1
      vertex -34.8 77.3 2
      vertex -34.8 77.3 1
    endloop
  endfacet
  facet normal -1 -0 0
    outer loop
      vertex -34.8 77.3 2
      vertex -34.8 -77.3 1
      vertex -34.8 -77.3 2
    endloop
  endfacet
  facet normal -0 0 1
    outer loop
      vertex -34.8 77.3 2
      vertex 34.8 -77.3 2
      vertex 34.8 77.3 2
    endloop
  endfacet
  facet normal 0 0 1
    outer loop
      vertex 34.8 -77.3 2
      vertex -34.8 77.3 2
      vertex -34.8 -77.3 2
    endloop
  endfacet
  facet normal 1 -0 0
    outer loop
      vertex 34.8 -77.3 2
      vertex 34.8 77.3 1
      vertex 34.8 77.3 2
    endloop
  endfacet
  facet normal 1 0 0
    outer loop
      vertex 34.8 77.3 1
      vertex 34.8 -77.3 2
      vertex 34.8 -77.3 1
    endloop
  endfacet
  facet normal 0 -1 0
    outer loop
      vertex -34.8 -77.3 1
      vertex 34.8 -77.3 2
      vertex -34.8 -77.3 2
    endloop
  endfacet
  facet normal 0 -1 -0
    outer loop
      vertex 34.8 -77.3 2
      vertex -34.8 -77.3 1
      vertex 34.8 -77.3 1
    endloop
  endfacet
  facet normal 0 1 -0
    outer loop
      vertex 34.8 77.3 1
      vertex -34.8 77.3 2
      vertex 34.8 77.3 2
    endloop
  endfacet
  facet normal 0 1 0
    outer loop
      vertex -34.8 77.3 2
      vertex 34.8 77.3 1
      vertex -34.8 77.3 1
    endloop
  endfacet
endsolid OpenSCAD_Model
