solid OpenSCAD_Model
  facet normal -1 0 0
    outer loop
      vertex 0 10.75 11
      vertex 0 15.75 0
      vertex 0 10.75 0
    endloop
  endfacet
  facet normal -1 0 0
    outer loop
      vertex 0 15.75 0
      vertex 0 10.75 11
      vertex 0 15.75 18
    endloop
  endfacet
  facet normal -1 0 0
    outer loop
      vertex 0 0 18
      vertex 0 10.75 11
      vertex 0 0 11
    endloop
  endfacet
  facet normal -1 0 0
    outer loop
      vertex 0 10.75 11
      vertex 0 0 18
      vertex 0 15.75 18
    endloop
  endfacet
  facet normal 1 0 0
    outer loop
      vertex 10 15.75 18
      vertex 10 10.75 11
      vertex 10 15.75 0
    endloop
  endfacet
  facet normal 1 -0 0
    outer loop
      vertex 10 0 18
      vertex 10 10.75 11
      vertex 10 15.75 18
    endloop
  endfacet
  facet normal 1 0 0
    outer loop
      vertex 10 10.75 11
      vertex 10 0 18
      vertex 10 0 11
    endloop
  endfacet
  facet normal 1 0 0
    outer loop
      vertex 10 15.75 0
      vertex 10 10.75 11
      vertex 10 10.75 0
    endloop
  endfacet
  facet normal 0 1 0
    outer loop
      vertex 10 15.75 18
      vertex 6.61271 15.75 6.2933
      vertex 0 15.75 18
    endloop
  endfacet
  facet normal 0 1 0
    outer loop
      vertex 10 15.75 18
      vertex 8.22543 15.75 3.5
      vertex 6.61271 15.75 6.2933
    endloop
  endfacet
  facet normal 0 1 0
    outer loop
      vertex 6.61271 15.75 0.706698
      vertex 10 15.75 0
      vertex 3.38729 15.75 0.706698
    endloop
  endfacet
  facet normal 0 1 0
    outer loop
      vertex 8.22543 15.75 3.5
      vertex 10 15.75 0
      vertex 6.61271 15.75 0.706698
    endloop
  endfacet
  facet normal 0 1 -0
    outer loop
      vertex 10 15.75 0
      vertex 8.22543 15.75 3.5
      vertex 10 15.75 18
    endloop
  endfacet
  facet normal 0 1 -0
    outer loop
      vertex 3.38729 15.75 6.2933
      vertex 0 15.75 18
      vertex 6.61271 15.75 6.2933
    endloop
  endfacet
  facet normal 0 1 -0
    outer loop
      vertex 2.58093 15.75 4.89665
      vertex 0 15.75 18
      vertex 3.38729 15.75 6.2933
    endloop
  endfacet
  facet normal 0 1 -0
    outer loop
      vertex 1.77457 15.75 3.5
      vertex 0 15.75 18
      vertex 2.58093 15.75 4.89665
    endloop
  endfacet
  facet normal 0 1 0
    outer loop
      vertex 1.77457 15.75 3.5
      vertex 0 15.75 0
      vertex 0 15.75 18
    endloop
  endfacet
  facet normal 0 1 0
    outer loop
      vertex 2.58093 15.75 2.10335
      vertex 0 15.75 0
      vertex 1.77457 15.75 3.5
    endloop
  endfacet
  facet normal 0 1 0
    outer loop
      vertex 3.38729 15.75 0.706698
      vertex 0 15.75 0
      vertex 2.58093 15.75 2.10335
    endloop
  endfacet
  facet normal 0 1 0
    outer loop
      vertex 0 15.75 0
      vertex 3.38729 15.75 0.706698
      vertex 10 15.75 0
    endloop
  endfacet
  facet normal 0 0 -1
    outer loop
      vertex 0 10.75 0
      vertex 10 15.75 0
      vertex 10 10.75 0
    endloop
  endfacet
  facet normal -0 0 -1
    outer loop
      vertex 10 15.75 0
      vertex 0 10.75 0
      vertex 0 15.75 0
    endloop
  endfacet
  facet normal 0 -1 0
    outer loop
      vertex 0 0 11
      vertex 10 0 18
      vertex 0 0 18
    endloop
  endfacet
  facet normal 0 -1 -0
    outer loop
      vertex 10 0 18
      vertex 0 0 11
      vertex 10 0 11
    endloop
  endfacet
  facet normal 0 0 -1
    outer loop
      vertex 0 0 11
      vertex 10 10.75 11
      vertex 10 0 11
    endloop
  endfacet
  facet normal -0 0 -1
    outer loop
      vertex 10 10.75 11
      vertex 0 0 11
      vertex 0 10.75 11
    endloop
  endfacet
  facet normal 0 -1 0
    outer loop
      vertex 0 10.75 11
      vertex 5 10.75 5
      vertex 10 10.75 11
    endloop
  endfacet
  facet normal 0 -1 0
    outer loop
      vertex 0 10.75 11
      vertex 4.90581 10.75 4.99704
      vertex 5 10.75 5
    endloop
  endfacet
  facet normal 0 -1 0
    outer loop
      vertex 0 10.75 11
      vertex 4.812 10.75 4.98817
      vertex 4.90581 10.75 4.99704
    endloop
  endfacet
  facet normal 0 -1 0
    outer loop
      vertex 0 10.75 11
      vertex 4.71893 10.75 4.97343
      vertex 4.812 10.75 4.98817
    endloop
  endfacet
  facet normal 0 -1 0
    outer loop
      vertex 0 10.75 11
      vertex 4.62696 10.75 4.95287
      vertex 4.71893 10.75 4.97343
    endloop
  endfacet
  facet normal 0 -1 0
    outer loop
      vertex 0 10.75 11
      vertex 4.53647 10.75 4.92658
      vertex 4.62696 10.75 4.95287
    endloop
  endfacet
  facet normal 0 -1 0
    outer loop
      vertex 0 10.75 11
      vertex 4.44781 10.75 4.89466
      vertex 4.53647 10.75 4.92658
    endloop
  endfacet
  facet normal 0 -1 0
    outer loop
      vertex 0 10.75 11
      vertex 4.36133 10.75 4.85724
      vertex 4.44781 10.75 4.89466
    endloop
  endfacet
  facet normal 0 -1 0
    outer loop
      vertex 0 10.75 11
      vertex 4.27737 10.75 4.81446
      vertex 4.36133 10.75 4.85724
    endloop
  endfacet
  facet normal 0 -1 0
    outer loop
      vertex 0 10.75 11
      vertex 4.19626 10.75 4.76649
      vertex 4.27737 10.75 4.81446
    endloop
  endfacet
  facet normal 0 -1 0
    outer loop
      vertex 0 10.75 11
      vertex 4.11832 10.75 4.71352
      vertex 4.19626 10.75 4.76649
    endloop
  endfacet
  facet normal 0 -1 0
    outer loop
      vertex 0 10.75 11
      vertex 4.04386 10.75 4.65577
      vertex 4.11832 10.75 4.71352
    endloop
  endfacet
  facet normal 0 -1 0
    outer loop
      vertex 0 10.75 11
      vertex 3.97318 10.75 4.59345
      vertex 4.04386 10.75 4.65577
    endloop
  endfacet
  facet normal 0 -1 0
    outer loop
      vertex 0 10.75 11
      vertex 3.90655 10.75 4.52682
      vertex 3.97318 10.75 4.59345
    endloop
  endfacet
  facet normal 0 -1 0
    outer loop
      vertex 0 10.75 11
      vertex 3.84423 10.75 4.45614
      vertex 3.90655 10.75 4.52682
    endloop
  endfacet
  facet normal 0 -1 0
    outer loop
      vertex 0 10.75 11
      vertex 3.78647 10.75 4.38168
      vertex 3.84423 10.75 4.45614
    endloop
  endfacet
  facet normal 0 -1 0
    outer loop
      vertex 0 10.75 11
      vertex 3.73351 10.75 4.30374
      vertex 3.78647 10.75 4.38168
    endloop
  endfacet
  facet normal 0 -1 0
    outer loop
      vertex 0 10.75 11
      vertex 3.68554 10.75 4.22263
      vertex 3.73351 10.75 4.30374
    endloop
  endfacet
  facet normal 0 -1 0
    outer loop
      vertex 0 10.75 11
      vertex 3.64276 10.75 4.13867
      vertex 3.68554 10.75 4.22263
    endloop
  endfacet
  facet normal 0 -1 0
    outer loop
      vertex 0 10.75 11
      vertex 3.60534 10.75 4.05219
      vertex 3.64276 10.75 4.13867
    endloop
  endfacet
  facet normal 0 -1 0
    outer loop
      vertex 0 10.75 11
      vertex 3.57341 10.75 3.96352
      vertex 3.60534 10.75 4.05219
    endloop
  endfacet
  facet normal 0 -1 0
    outer loop
      vertex 0 10.75 11
      vertex 3.54712 10.75 3.87303
      vertex 3.57341 10.75 3.96352
    endloop
  endfacet
  facet normal 0 -1 0
    outer loop
      vertex 0 10.75 0
      vertex 3.54712 10.75 3.87303
      vertex 0 10.75 11
    endloop
  endfacet
  facet normal 0 -1 0
    outer loop
      vertex 3.54712 10.75 3.87303
      vertex 0 10.75 0
      vertex 3.52657 10.75 3.78107
    endloop
  endfacet
  facet normal 0 -1 0
    outer loop
      vertex 3.52657 10.75 3.78107
      vertex 0 10.75 0
      vertex 3.51183 10.75 3.688
    endloop
  endfacet
  facet normal 0 -1 0
    outer loop
      vertex 3.51183 10.75 3.688
      vertex 0 10.75 0
      vertex 3.50296 10.75 3.59418
    endloop
  endfacet
  facet normal 0 -1 0
    outer loop
      vertex 3.50296 10.75 3.59418
      vertex 0 10.75 0
      vertex 3.5 10.75 3.5
    endloop
  endfacet
  facet normal 0 -1 -0
    outer loop
      vertex 3.5 10.75 3.5
      vertex 0 10.75 0
      vertex 3.50296 10.75 3.40581
    endloop
  endfacet
  facet normal 0 -1 -0
    outer loop
      vertex 3.50296 10.75 3.40581
      vertex 0 10.75 0
      vertex 3.51183 10.75 3.312
    endloop
  endfacet
  facet normal 0 -1 -0
    outer loop
      vertex 3.51183 10.75 3.312
      vertex 0 10.75 0
      vertex 3.52657 10.75 3.21893
    endloop
  endfacet
  facet normal 0 -1 -0
    outer loop
      vertex 3.52657 10.75 3.21893
      vertex 0 10.75 0
      vertex 3.54712 10.75 3.12696
    endloop
  endfacet
  facet normal 0 -1 -0
    outer loop
      vertex 3.54712 10.75 3.12696
      vertex 0 10.75 0
      vertex 3.57341 10.75 3.03647
    endloop
  endfacet
  facet normal 0 -1 -0
    outer loop
      vertex 3.57341 10.75 3.03647
      vertex 0 10.75 0
      vertex 3.60534 10.75 2.94781
    endloop
  endfacet
  facet normal 0 -1 -0
    outer loop
      vertex 4.90581 10.75 2.00296
      vertex 0 10.75 0
      vertex 5 10.75 2
    endloop
  endfacet
  facet normal 0 -1 -0
    outer loop
      vertex 4.812 10.75 2.01183
      vertex 0 10.75 0
      vertex 4.90581 10.75 2.00296
    endloop
  endfacet
  facet normal 0 -1 -0
    outer loop
      vertex 4.71893 10.75 2.02657
      vertex 0 10.75 0
      vertex 4.812 10.75 2.01183
    endloop
  endfacet
  facet normal 0 -1 -0
    outer loop
      vertex 4.62696 10.75 2.04712
      vertex 0 10.75 0
      vertex 4.71893 10.75 2.02657
    endloop
  endfacet
  facet normal 0 -1 -0
    outer loop
      vertex 4.53647 10.75 2.07341
      vertex 0 10.75 0
      vertex 4.62696 10.75 2.04712
    endloop
  endfacet
  facet normal 0 -1 -0
    outer loop
      vertex 4.44781 10.75 2.10534
      vertex 0 10.75 0
      vertex 4.53647 10.75 2.07341
    endloop
  endfacet
  facet normal 0 -1 -0
    outer loop
      vertex 4.36133 10.75 2.14276
      vertex 0 10.75 0
      vertex 4.44781 10.75 2.10534
    endloop
  endfacet
  facet normal 0 -1 -0
    outer loop
      vertex 4.27737 10.75 2.18554
      vertex 0 10.75 0
      vertex 4.36133 10.75 2.14276
    endloop
  endfacet
  facet normal 0 -1 -0
    outer loop
      vertex 4.19626 10.75 2.23351
      vertex 0 10.75 0
      vertex 4.27737 10.75 2.18554
    endloop
  endfacet
  facet normal 0 -1 -0
    outer loop
      vertex 4.11832 10.75 2.28647
      vertex 0 10.75 0
      vertex 4.19626 10.75 2.23351
    endloop
  endfacet
  facet normal 0 -1 -0
    outer loop
      vertex 4.04386 10.75 2.34423
      vertex 0 10.75 0
      vertex 4.11832 10.75 2.28647
    endloop
  endfacet
  facet normal 0 -1 -0
    outer loop
      vertex 3.97318 10.75 2.40655
      vertex 0 10.75 0
      vertex 4.04386 10.75 2.34423
    endloop
  endfacet
  facet normal 0 -1 -0
    outer loop
      vertex 3.90655 10.75 2.47318
      vertex 0 10.75 0
      vertex 3.97318 10.75 2.40655
    endloop
  endfacet
  facet normal 0 -1 -0
    outer loop
      vertex 3.84423 10.75 2.54386
      vertex 0 10.75 0
      vertex 3.90655 10.75 2.47318
    endloop
  endfacet
  facet normal 0 -1 -0
    outer loop
      vertex 3.78647 10.75 2.61832
      vertex 0 10.75 0
      vertex 3.84423 10.75 2.54386
    endloop
  endfacet
  facet normal 0 -1 -0
    outer loop
      vertex 3.73351 10.75 2.69626
      vertex 0 10.75 0
      vertex 3.78647 10.75 2.61832
    endloop
  endfacet
  facet normal 0 -1 -0
    outer loop
      vertex 3.68554 10.75 2.77737
      vertex 0 10.75 0
      vertex 3.73351 10.75 2.69626
    endloop
  endfacet
  facet normal 0 -1 -0
    outer loop
      vertex 3.64276 10.75 2.86133
      vertex 0 10.75 0
      vertex 3.68554 10.75 2.77737
    endloop
  endfacet
  facet normal 0 -1 -0
    outer loop
      vertex 3.60534 10.75 2.94781
      vertex 0 10.75 0
      vertex 3.64276 10.75 2.86133
    endloop
  endfacet
  facet normal 0 -1 0
    outer loop
      vertex 5.09418 10.75 4.99704
      vertex 10 10.75 11
      vertex 5 10.75 5
    endloop
  endfacet
  facet normal 0 -1 0
    outer loop
      vertex 5.188 10.75 4.98817
      vertex 10 10.75 11
      vertex 5.09418 10.75 4.99704
    endloop
  endfacet
  facet normal 0 -1 0
    outer loop
      vertex 5.28107 10.75 4.97343
      vertex 10 10.75 11
      vertex 5.188 10.75 4.98817
    endloop
  endfacet
  facet normal 0 -1 0
    outer loop
      vertex 5.37303 10.75 4.95287
      vertex 10 10.75 11
      vertex 5.28107 10.75 4.97343
    endloop
  endfacet
  facet normal 0 -1 0
    outer loop
      vertex 5.46352 10.75 4.92658
      vertex 10 10.75 11
      vertex 5.37303 10.75 4.95287
    endloop
  endfacet
  facet normal 0 -1 0
    outer loop
      vertex 5.55219 10.75 4.89466
      vertex 10 10.75 11
      vertex 5.46352 10.75 4.92658
    endloop
  endfacet
  facet normal 0 -1 0
    outer loop
      vertex 5.63867 10.75 4.85724
      vertex 10 10.75 11
      vertex 5.55219 10.75 4.89466
    endloop
  endfacet
  facet normal 0 -1 0
    outer loop
      vertex 5.72263 10.75 4.81446
      vertex 10 10.75 11
      vertex 5.63867 10.75 4.85724
    endloop
  endfacet
  facet normal 0 -1 0
    outer loop
      vertex 5.80374 10.75 4.76649
      vertex 10 10.75 11
      vertex 5.72263 10.75 4.81446
    endloop
  endfacet
  facet normal 0 -1 0
    outer loop
      vertex 5.88168 10.75 4.71352
      vertex 10 10.75 11
      vertex 5.80374 10.75 4.76649
    endloop
  endfacet
  facet normal 0 -1 0
    outer loop
      vertex 5.95614 10.75 4.65577
      vertex 10 10.75 11
      vertex 5.88168 10.75 4.71352
    endloop
  endfacet
  facet normal 0 -1 0
    outer loop
      vertex 6.02682 10.75 4.59345
      vertex 10 10.75 11
      vertex 5.95614 10.75 4.65577
    endloop
  endfacet
  facet normal 0 -1 0
    outer loop
      vertex 6.09345 10.75 4.52682
      vertex 10 10.75 11
      vertex 6.02682 10.75 4.59345
    endloop
  endfacet
  facet normal 0 -1 0
    outer loop
      vertex 6.15577 10.75 4.45614
      vertex 10 10.75 11
      vertex 6.09345 10.75 4.52682
    endloop
  endfacet
  facet normal 0 -1 0
    outer loop
      vertex 6.21352 10.75 4.38168
      vertex 10 10.75 11
      vertex 6.15577 10.75 4.45614
    endloop
  endfacet
  facet normal 0 -1 0
    outer loop
      vertex 6.26649 10.75 4.30374
      vertex 10 10.75 11
      vertex 6.21352 10.75 4.38168
    endloop
  endfacet
  facet normal 0 -1 0
    outer loop
      vertex 6.31446 10.75 4.22263
      vertex 10 10.75 11
      vertex 6.26649 10.75 4.30374
    endloop
  endfacet
  facet normal 0 -1 0
    outer loop
      vertex 6.35724 10.75 4.13867
      vertex 10 10.75 11
      vertex 6.31446 10.75 4.22263
    endloop
  endfacet
  facet normal 0 -1 0
    outer loop
      vertex 6.39466 10.75 4.05219
      vertex 10 10.75 11
      vertex 6.35724 10.75 4.13867
    endloop
  endfacet
  facet normal 0 -1 0
    outer loop
      vertex 6.42658 10.75 3.96352
      vertex 10 10.75 11
      vertex 6.39466 10.75 4.05219
    endloop
  endfacet
  facet normal 0 -1 0
    outer loop
      vertex 6.45287 10.75 3.87303
      vertex 10 10.75 11
      vertex 6.42658 10.75 3.96352
    endloop
  endfacet
  facet normal 0 -1 0
    outer loop
      vertex 10 10.75 0
      vertex 6.45287 10.75 3.87303
      vertex 6.47343 10.75 3.78107
    endloop
  endfacet
  facet normal 0 -1 0
    outer loop
      vertex 10 10.75 0
      vertex 6.47343 10.75 3.78107
      vertex 6.48817 10.75 3.688
    endloop
  endfacet
  facet normal 0 -1 0
    outer loop
      vertex 10 10.75 0
      vertex 6.48817 10.75 3.688
      vertex 6.49704 10.75 3.59418
    endloop
  endfacet
  facet normal 0 -1 0
    outer loop
      vertex 10 10.75 0
      vertex 6.49704 10.75 3.59418
      vertex 6.5 10.75 3.5
    endloop
  endfacet
  facet normal 0 -1 0
    outer loop
      vertex 10 10.75 0
      vertex 6.5 10.75 3.5
      vertex 6.49704 10.75 3.40581
    endloop
  endfacet
  facet normal 0 -1 0
    outer loop
      vertex 10 10.75 0
      vertex 6.49704 10.75 3.40581
      vertex 6.48817 10.75 3.312
    endloop
  endfacet
  facet normal 0 -1 0
    outer loop
      vertex 10 10.75 0
      vertex 6.48817 10.75 3.312
      vertex 6.47343 10.75 3.21893
    endloop
  endfacet
  facet normal 0 -1 0
    outer loop
      vertex 10 10.75 0
      vertex 6.47343 10.75 3.21893
      vertex 6.45287 10.75 3.12696
    endloop
  endfacet
  facet normal 0 -1 0
    outer loop
      vertex 10 10.75 0
      vertex 6.45287 10.75 3.12696
      vertex 6.42658 10.75 3.03647
    endloop
  endfacet
  facet normal 0 -1 0
    outer loop
      vertex 10 10.75 0
      vertex 6.42658 10.75 3.03647
      vertex 6.39466 10.75 2.94781
    endloop
  endfacet
  facet normal 0 -1 0
    outer loop
      vertex 10 10.75 0
      vertex 6.39466 10.75 2.94781
      vertex 6.35724 10.75 2.86133
    endloop
  endfacet
  facet normal 0 -1 0
    outer loop
      vertex 10 10.75 0
      vertex 5 10.75 2
      vertex 0 10.75 0
    endloop
  endfacet
  facet normal 0 -1 0
    outer loop
      vertex 5 10.75 2
      vertex 10 10.75 0
      vertex 5.09418 10.75 2.00296
    endloop
  endfacet
  facet normal 0 -1 0
    outer loop
      vertex 5.09418 10.75 2.00296
      vertex 10 10.75 0
      vertex 5.188 10.75 2.01183
    endloop
  endfacet
  facet normal 0 -1 0
    outer loop
      vertex 5.188 10.75 2.01183
      vertex 10 10.75 0
      vertex 5.28107 10.75 2.02657
    endloop
  endfacet
  facet normal 0 -1 0
    outer loop
      vertex 5.28107 10.75 2.02657
      vertex 10 10.75 0
      vertex 5.37303 10.75 2.04712
    endloop
  endfacet
  facet normal 0 -1 0
    outer loop
      vertex 5.37303 10.75 2.04712
      vertex 10 10.75 0
      vertex 5.46352 10.75 2.07341
    endloop
  endfacet
  facet normal 0 -1 0
    outer loop
      vertex 6.45287 10.75 3.87303
      vertex 10 10.75 0
      vertex 10 10.75 11
    endloop
  endfacet
  facet normal 0 -1 0
    outer loop
      vertex 6.31446 10.75 2.77737
      vertex 10 10.75 0
      vertex 6.35724 10.75 2.86133
    endloop
  endfacet
  facet normal 0 -1 0
    outer loop
      vertex 6.26649 10.75 2.69626
      vertex 10 10.75 0
      vertex 6.31446 10.75 2.77737
    endloop
  endfacet
  facet normal 0 -1 0
    outer loop
      vertex 6.21352 10.75 2.61832
      vertex 10 10.75 0
      vertex 6.26649 10.75 2.69626
    endloop
  endfacet
  facet normal 0 -1 0
    outer loop
      vertex 6.15577 10.75 2.54386
      vertex 10 10.75 0
      vertex 6.21352 10.75 2.61832
    endloop
  endfacet
  facet normal 0 -1 0
    outer loop
      vertex 6.09345 10.75 2.47318
      vertex 10 10.75 0
      vertex 6.15577 10.75 2.54386
    endloop
  endfacet
  facet normal 0 -1 0
    outer loop
      vertex 6.02682 10.75 2.40655
      vertex 10 10.75 0
      vertex 6.09345 10.75 2.47318
    endloop
  endfacet
  facet normal 0 -1 0
    outer loop
      vertex 5.95614 10.75 2.34423
      vertex 10 10.75 0
      vertex 6.02682 10.75 2.40655
    endloop
  endfacet
  facet normal 0 -1 0
    outer loop
      vertex 5.88168 10.75 2.28647
      vertex 10 10.75 0
      vertex 5.95614 10.75 2.34423
    endloop
  endfacet
  facet normal 0 -1 0
    outer loop
      vertex 5.80374 10.75 2.23351
      vertex 10 10.75 0
      vertex 5.88168 10.75 2.28647
    endloop
  endfacet
  facet normal 0 -1 0
    outer loop
      vertex 5.72263 10.75 2.18554
      vertex 10 10.75 0
      vertex 5.80374 10.75 2.23351
    endloop
  endfacet
  facet normal 0 -1 0
    outer loop
      vertex 5.63867 10.75 2.14276
      vertex 10 10.75 0
      vertex 5.72263 10.75 2.18554
    endloop
  endfacet
  facet normal 0 -1 0
    outer loop
      vertex 5.55219 10.75 2.10534
      vertex 10 10.75 0
      vertex 5.63867 10.75 2.14276
    endloop
  endfacet
  facet normal 0 -1 0
    outer loop
      vertex 5.46352 10.75 2.07341
      vertex 10 10.75 0
      vertex 5.55219 10.75 2.10534
    endloop
  endfacet
  facet normal -0 0 1
    outer loop
      vertex 0 15.75 18
      vertex 10 0 18
      vertex 10 15.75 18
    endloop
  endfacet
  facet normal 0 0 1
    outer loop
      vertex 10 0 18
      vertex 0 15.75 18
      vertex 0 0 18
    endloop
  endfacet
  facet normal -0.866025 0 0.5
    outer loop
      vertex 6.61271 13.25 0.706698
      vertex 8.22543 15.75 3.5
      vertex 6.61271 15.75 0.706698
    endloop
  endfacet
  facet normal -0.866025 0 0.5
    outer loop
      vertex 8.22543 15.75 3.5
      vertex 6.61271 13.25 0.706698
      vertex 8.22543 13.25 3.5
    endloop
  endfacet
  facet normal -0 0 1
    outer loop
      vertex 3.38729 15.75 0.706698
      vertex 6.61271 13.25 0.706698
      vertex 6.61271 15.75 0.706698
    endloop
  endfacet
  facet normal 0 0 1
    outer loop
      vertex 6.61271 13.25 0.706698
      vertex 3.38729 15.75 0.706698
      vertex 3.38729 13.25 0.706698
    endloop
  endfacet
  facet normal 0.866025 -9.53674e-008 0.5
    outer loop
      vertex 2.58093 15.75 2.10335
      vertex 1.77457 15.75 3.5
      vertex 1.77457 13.25 3.5
    endloop
  endfacet
  facet normal 0.866025 0 0.5
    outer loop
      vertex 3.38729 13.25 0.706698
      vertex 2.58093 15.75 2.10335
      vertex 1.77457 13.25 3.5
    endloop
  endfacet
  facet normal 0.866025 0 0.5
    outer loop
      vertex 2.58093 15.75 2.10335
      vertex 3.38729 13.25 0.706698
      vertex 3.38729 15.75 0.706698
    endloop
  endfacet
  facet normal 0.866025 0 -0.5
    outer loop
      vertex 3.38729 15.75 6.2933
      vertex 3.38729 13.25 6.2933
      vertex 2.58093 15.75 4.89665
    endloop
  endfacet
  facet normal 0 0 -1
    outer loop
      vertex 3.38729 13.25 6.2933
      vertex 6.61271 15.75 6.2933
      vertex 6.61271 13.25 6.2933
    endloop
  endfacet
  facet normal -0 0 -1
    outer loop
      vertex 6.61271 15.75 6.2933
      vertex 3.38729 13.25 6.2933
      vertex 3.38729 15.75 6.2933
    endloop
  endfacet
  facet normal 0 1 0
    outer loop
      vertex 6.61271 13.25 6.2933
      vertex 5 13.25 5
      vertex 3.38729 13.25 6.2933
    endloop
  endfacet
  facet normal 0 1 0
    outer loop
      vertex 6.61271 13.25 6.2933
      vertex 5.09418 13.25 4.99704
      vertex 5 13.25 5
    endloop
  endfacet
  facet normal 0 1 0
    outer loop
      vertex 6.61271 13.25 6.2933
      vertex 5.188 13.25 4.98817
      vertex 5.09418 13.25 4.99704
    endloop
  endfacet
  facet normal 0 1 0
    outer loop
      vertex 6.61271 13.25 6.2933
      vertex 5.28107 13.25 4.97343
      vertex 5.188 13.25 4.98817
    endloop
  endfacet
  facet normal 0 1 0
    outer loop
      vertex 6.61271 13.25 6.2933
      vertex 5.37303 13.25 4.95287
      vertex 5.28107 13.25 4.97343
    endloop
  endfacet
  facet normal 0 1 0
    outer loop
      vertex 6.61271 13.25 6.2933
      vertex 5.46352 13.25 4.92658
      vertex 5.37303 13.25 4.95287
    endloop
  endfacet
  facet normal 0 1 0
    outer loop
      vertex 6.61271 13.25 6.2933
      vertex 5.55219 13.25 4.89466
      vertex 5.46352 13.25 4.92658
    endloop
  endfacet
  facet normal 0 1 0
    outer loop
      vertex 6.61271 13.25 6.2933
      vertex 5.63867 13.25 4.85724
      vertex 5.55219 13.25 4.89466
    endloop
  endfacet
  facet normal 0 1 0
    outer loop
      vertex 6.61271 13.25 6.2933
      vertex 5.72263 13.25 4.81446
      vertex 5.63867 13.25 4.85724
    endloop
  endfacet
  facet normal 0 1 0
    outer loop
      vertex 6.61271 13.25 6.2933
      vertex 5.80374 13.25 4.76649
      vertex 5.72263 13.25 4.81446
    endloop
  endfacet
  facet normal 0 1 0
    outer loop
      vertex 6.61271 13.25 6.2933
      vertex 5.88168 13.25 4.71352
      vertex 5.80374 13.25 4.76649
    endloop
  endfacet
  facet normal 0 1 0
    outer loop
      vertex 6.61271 13.25 6.2933
      vertex 5.95614 13.25 4.65577
      vertex 5.88168 13.25 4.71352
    endloop
  endfacet
  facet normal 0 1 0
    outer loop
      vertex 6.61271 13.25 6.2933
      vertex 6.02682 13.25 4.59345
      vertex 5.95614 13.25 4.65577
    endloop
  endfacet
  facet normal 0 1 0
    outer loop
      vertex 6.61271 13.25 6.2933
      vertex 6.09345 13.25 4.52682
      vertex 6.02682 13.25 4.59345
    endloop
  endfacet
  facet normal 0 1 0
    outer loop
      vertex 6.61271 13.25 6.2933
      vertex 6.15577 13.25 4.45614
      vertex 6.09345 13.25 4.52682
    endloop
  endfacet
  facet normal 0 1 0
    outer loop
      vertex 6.61271 13.25 6.2933
      vertex 6.21352 13.25 4.38168
      vertex 6.15577 13.25 4.45614
    endloop
  endfacet
  facet normal 0 1 0
    outer loop
      vertex 6.61271 13.25 6.2933
      vertex 6.26649 13.25 4.30374
      vertex 6.21352 13.25 4.38168
    endloop
  endfacet
  facet normal 0 1 0
    outer loop
      vertex 6.61271 13.25 6.2933
      vertex 6.31446 13.25 4.22263
      vertex 6.26649 13.25 4.30374
    endloop
  endfacet
  facet normal 0 1 0
    outer loop
      vertex 8.22543 13.25 3.5
      vertex 6.31446 13.25 4.22263
      vertex 6.61271 13.25 6.2933
    endloop
  endfacet
  facet normal 0 1 0
    outer loop
      vertex 6.31446 13.25 4.22263
      vertex 8.22543 13.25 3.5
      vertex 6.35724 13.25 4.13867
    endloop
  endfacet
  facet normal 0 1 0
    outer loop
      vertex 6.35724 13.25 4.13867
      vertex 8.22543 13.25 3.5
      vertex 6.39466 13.25 4.05219
    endloop
  endfacet
  facet normal 0 1 0
    outer loop
      vertex 6.39466 13.25 4.05219
      vertex 8.22543 13.25 3.5
      vertex 6.42658 13.25 3.96352
    endloop
  endfacet
  facet normal 0 1 0
    outer loop
      vertex 6.42658 13.25 3.96352
      vertex 8.22543 13.25 3.5
      vertex 6.45287 13.25 3.87303
    endloop
  endfacet
  facet normal 0 1 0
    outer loop
      vertex 6.45287 13.25 3.87303
      vertex 8.22543 13.25 3.5
      vertex 6.47343 13.25 3.78107
    endloop
  endfacet
  facet normal 0 1 0
    outer loop
      vertex 6.47343 13.25 3.78107
      vertex 8.22543 13.25 3.5
      vertex 6.48817 13.25 3.688
    endloop
  endfacet
  facet normal 0 1 0
    outer loop
      vertex 6.48817 13.25 3.688
      vertex 8.22543 13.25 3.5
      vertex 6.49704 13.25 3.59418
    endloop
  endfacet
  facet normal 0 1 0
    outer loop
      vertex 8.22543 13.25 3.5
      vertex 6.5 13.25 3.5
      vertex 6.49704 13.25 3.59418
    endloop
  endfacet
  facet normal 0 1 0
    outer loop
      vertex 8.22543 13.25 3.5
      vertex 6.49704 13.25 3.40581
      vertex 6.5 13.25 3.5
    endloop
  endfacet
  facet normal 0 1 0
    outer loop
      vertex 8.22543 13.25 3.5
      vertex 6.48817 13.25 3.312
      vertex 6.49704 13.25 3.40581
    endloop
  endfacet
  facet normal 0 1 0
    outer loop
      vertex 8.22543 13.25 3.5
      vertex 6.47343 13.25 3.21893
      vertex 6.48817 13.25 3.312
    endloop
  endfacet
  facet normal 0 1 0
    outer loop
      vertex 8.22543 13.25 3.5
      vertex 6.45287 13.25 3.12696
      vertex 6.47343 13.25 3.21893
    endloop
  endfacet
  facet normal 0 1 0
    outer loop
      vertex 8.22543 13.25 3.5
      vertex 6.42658 13.25 3.03647
      vertex 6.45287 13.25 3.12696
    endloop
  endfacet
  facet normal 0 1 0
    outer loop
      vertex 8.22543 13.25 3.5
      vertex 6.39466 13.25 2.94781
      vertex 6.42658 13.25 3.03647
    endloop
  endfacet
  facet normal 0 1 0
    outer loop
      vertex 8.22543 13.25 3.5
      vertex 6.35724 13.25 2.86133
      vertex 6.39466 13.25 2.94781
    endloop
  endfacet
  facet normal 0 1 0
    outer loop
      vertex 8.22543 13.25 3.5
      vertex 6.31446 13.25 2.77737
      vertex 6.35724 13.25 2.86133
    endloop
  endfacet
  facet normal 0 1 -0
    outer loop
      vertex 6.61271 13.25 0.706698
      vertex 6.31446 13.25 2.77737
      vertex 8.22543 13.25 3.5
    endloop
  endfacet
  facet normal 0 1 0
    outer loop
      vertex 6.31446 13.25 2.77737
      vertex 6.61271 13.25 0.706698
      vertex 6.26649 13.25 2.69626
    endloop
  endfacet
  facet normal 0 1 0
    outer loop
      vertex 6.26649 13.25 2.69626
      vertex 6.61271 13.25 0.706698
      vertex 6.21352 13.25 2.61832
    endloop
  endfacet
  facet normal 0 1 0
    outer loop
      vertex 6.21352 13.25 2.61832
      vertex 6.61271 13.25 0.706698
      vertex 6.15577 13.25 2.54386
    endloop
  endfacet
  facet normal 0 1 0
    outer loop
      vertex 6.15577 13.25 2.54386
      vertex 6.61271 13.25 0.706698
      vertex 6.09345 13.25 2.47318
    endloop
  endfacet
  facet normal 0 1 0
    outer loop
      vertex 6.09345 13.25 2.47318
      vertex 6.61271 13.25 0.706698
      vertex 6.02682 13.25 2.40655
    endloop
  endfacet
  facet normal 0 1 0
    outer loop
      vertex 6.02682 13.25 2.40655
      vertex 6.61271 13.25 0.706698
      vertex 5.95614 13.25 2.34423
    endloop
  endfacet
  facet normal 0 1 0
    outer loop
      vertex 5.95614 13.25 2.34423
      vertex 6.61271 13.25 0.706698
      vertex 5.88168 13.25 2.28647
    endloop
  endfacet
  facet normal 0 1 0
    outer loop
      vertex 5.88168 13.25 2.28647
      vertex 6.61271 13.25 0.706698
      vertex 5.80374 13.25 2.23351
    endloop
  endfacet
  facet normal 0 1 0
    outer loop
      vertex 5.09418 13.25 2.00296
      vertex 6.61271 13.25 0.706698
      vertex 5 13.25 2
    endloop
  endfacet
  facet normal 0 1 0
    outer loop
      vertex 5.188 13.25 2.01183
      vertex 6.61271 13.25 0.706698
      vertex 5.09418 13.25 2.00296
    endloop
  endfacet
  facet normal 0 1 0
    outer loop
      vertex 5.28107 13.25 2.02657
      vertex 6.61271 13.25 0.706698
      vertex 5.188 13.25 2.01183
    endloop
  endfacet
  facet normal 0 1 0
    outer loop
      vertex 5.37303 13.25 2.04712
      vertex 6.61271 13.25 0.706698
      vertex 5.28107 13.25 2.02657
    endloop
  endfacet
  facet normal 0 1 0
    outer loop
      vertex 5.46352 13.25 2.07341
      vertex 6.61271 13.25 0.706698
      vertex 5.37303 13.25 2.04712
    endloop
  endfacet
  facet normal 0 1 0
    outer loop
      vertex 5.55219 13.25 2.10534
      vertex 6.61271 13.25 0.706698
      vertex 5.46352 13.25 2.07341
    endloop
  endfacet
  facet normal 0 1 0
    outer loop
      vertex 5.63867 13.25 2.14276
      vertex 6.61271 13.25 0.706698
      vertex 5.55219 13.25 2.10534
    endloop
  endfacet
  facet normal 0 1 0
    outer loop
      vertex 5.72263 13.25 2.18554
      vertex 6.61271 13.25 0.706698
      vertex 5.63867 13.25 2.14276
    endloop
  endfacet
  facet normal 0 1 0
    outer loop
      vertex 5.80374 13.25 2.23351
      vertex 6.61271 13.25 0.706698
      vertex 5.72263 13.25 2.18554
    endloop
  endfacet
  facet normal 0 1 -0
    outer loop
      vertex 4.90581 13.25 4.99704
      vertex 3.38729 13.25 6.2933
      vertex 5 13.25 5
    endloop
  endfacet
  facet normal 0 1 -0
    outer loop
      vertex 4.812 13.25 4.98817
      vertex 3.38729 13.25 6.2933
      vertex 4.90581 13.25 4.99704
    endloop
  endfacet
  facet normal 0 1 -0
    outer loop
      vertex 4.71893 13.25 4.97343
      vertex 3.38729 13.25 6.2933
      vertex 4.812 13.25 4.98817
    endloop
  endfacet
  facet normal 0 1 -0
    outer loop
      vertex 4.62696 13.25 4.95287
      vertex 3.38729 13.25 6.2933
      vertex 4.71893 13.25 4.97343
    endloop
  endfacet
  facet normal 0 1 -0
    outer loop
      vertex 4.53647 13.25 4.92658
      vertex 3.38729 13.25 6.2933
      vertex 4.62696 13.25 4.95287
    endloop
  endfacet
  facet normal 0 1 -0
    outer loop
      vertex 4.44781 13.25 4.89466
      vertex 3.38729 13.25 6.2933
      vertex 4.53647 13.25 4.92658
    endloop
  endfacet
  facet normal 0 1 -0
    outer loop
      vertex 4.36133 13.25 4.85724
      vertex 3.38729 13.25 6.2933
      vertex 4.44781 13.25 4.89466
    endloop
  endfacet
  facet normal 0 1 -0
    outer loop
      vertex 4.27737 13.25 4.81446
      vertex 3.38729 13.25 6.2933
      vertex 4.36133 13.25 4.85724
    endloop
  endfacet
  facet normal 0 1 -0
    outer loop
      vertex 4.19626 13.25 4.76649
      vertex 3.38729 13.25 6.2933
      vertex 4.27737 13.25 4.81446
    endloop
  endfacet
  facet normal 0 1 -0
    outer loop
      vertex 4.11832 13.25 4.71352
      vertex 3.38729 13.25 6.2933
      vertex 4.19626 13.25 4.76649
    endloop
  endfacet
  facet normal 0 1 -0
    outer loop
      vertex 4.04386 13.25 4.65577
      vertex 3.38729 13.25 6.2933
      vertex 4.11832 13.25 4.71352
    endloop
  endfacet
  facet normal 0 1 -0
    outer loop
      vertex 3.97318 13.25 4.59345
      vertex 3.38729 13.25 6.2933
      vertex 4.04386 13.25 4.65577
    endloop
  endfacet
  facet normal 0 1 -0
    outer loop
      vertex 3.90655 13.25 4.52682
      vertex 3.38729 13.25 6.2933
      vertex 3.97318 13.25 4.59345
    endloop
  endfacet
  facet normal 0 1 -0
    outer loop
      vertex 3.84423 13.25 4.45614
      vertex 3.38729 13.25 6.2933
      vertex 3.90655 13.25 4.52682
    endloop
  endfacet
  facet normal 0 1 -0
    outer loop
      vertex 3.78647 13.25 4.38168
      vertex 3.38729 13.25 6.2933
      vertex 3.84423 13.25 4.45614
    endloop
  endfacet
  facet normal 0 1 -0
    outer loop
      vertex 3.73351 13.25 4.30374
      vertex 3.38729 13.25 6.2933
      vertex 3.78647 13.25 4.38168
    endloop
  endfacet
  facet normal 0 1 -0
    outer loop
      vertex 3.68554 13.25 4.22263
      vertex 3.38729 13.25 6.2933
      vertex 3.73351 13.25 4.30374
    endloop
  endfacet
  facet normal 0 1 0
    outer loop
      vertex 1.77457 13.25 3.5
      vertex 3.68554 13.25 4.22263
      vertex 3.64276 13.25 4.13867
    endloop
  endfacet
  facet normal 0 1 0
    outer loop
      vertex 1.77457 13.25 3.5
      vertex 3.64276 13.25 4.13867
      vertex 3.60534 13.25 4.05219
    endloop
  endfacet
  facet normal 0 1 0
    outer loop
      vertex 1.77457 13.25 3.5
      vertex 3.60534 13.25 4.05219
      vertex 3.57341 13.25 3.96352
    endloop
  endfacet
  facet normal 0 1 0
    outer loop
      vertex 1.77457 13.25 3.5
      vertex 3.57341 13.25 3.96352
      vertex 3.54712 13.25 3.87303
    endloop
  endfacet
  facet normal 0 1 0
    outer loop
      vertex 1.77457 13.25 3.5
      vertex 3.54712 13.25 3.87303
      vertex 3.52657 13.25 3.78107
    endloop
  endfacet
  facet normal 0 1 0
    outer loop
      vertex 1.77457 13.25 3.5
      vertex 3.52657 13.25 3.78107
      vertex 3.51183 13.25 3.688
    endloop
  endfacet
  facet normal 0 1 0
    outer loop
      vertex 1.77457 13.25 3.5
      vertex 3.51183 13.25 3.688
      vertex 3.50296 13.25 3.59418
    endloop
  endfacet
  facet normal 0 1 0
    outer loop
      vertex 1.77457 13.25 3.5
      vertex 3.50296 13.25 3.59418
      vertex 3.5 13.25 3.5
    endloop
  endfacet
  facet normal 0 1 0
    outer loop
      vertex 3.68554 13.25 4.22263
      vertex 1.77457 13.25 3.5
      vertex 3.38729 13.25 6.2933
    endloop
  endfacet
  facet normal 0 1 0
    outer loop
      vertex 3.50296 13.25 3.40581
      vertex 1.77457 13.25 3.5
      vertex 3.5 13.25 3.5
    endloop
  endfacet
  facet normal 0 1 0
    outer loop
      vertex 3.51183 13.25 3.312
      vertex 1.77457 13.25 3.5
      vertex 3.50296 13.25 3.40581
    endloop
  endfacet
  facet normal 0 1 0
    outer loop
      vertex 3.52657 13.25 3.21893
      vertex 1.77457 13.25 3.5
      vertex 3.51183 13.25 3.312
    endloop
  endfacet
  facet normal 0 1 0
    outer loop
      vertex 3.54712 13.25 3.12696
      vertex 1.77457 13.25 3.5
      vertex 3.52657 13.25 3.21893
    endloop
  endfacet
  facet normal 0 1 0
    outer loop
      vertex 3.57341 13.25 3.03647
      vertex 1.77457 13.25 3.5
      vertex 3.54712 13.25 3.12696
    endloop
  endfacet
  facet normal 0 1 0
    outer loop
      vertex 3.60534 13.25 2.94781
      vertex 1.77457 13.25 3.5
      vertex 3.57341 13.25 3.03647
    endloop
  endfacet
  facet normal 0 1 0
    outer loop
      vertex 3.64276 13.25 2.86133
      vertex 1.77457 13.25 3.5
      vertex 3.60534 13.25 2.94781
    endloop
  endfacet
  facet normal 0 1 0
    outer loop
      vertex 3.68554 13.25 2.77737
      vertex 1.77457 13.25 3.5
      vertex 3.64276 13.25 2.86133
    endloop
  endfacet
  facet normal 0 1 0
    outer loop
      vertex 3.38729 13.25 0.706698
      vertex 3.68554 13.25 2.77737
      vertex 3.73351 13.25 2.69626
    endloop
  endfacet
  facet normal 0 1 0
    outer loop
      vertex 3.38729 13.25 0.706698
      vertex 3.73351 13.25 2.69626
      vertex 3.78647 13.25 2.61832
    endloop
  endfacet
  facet normal 0 1 0
    outer loop
      vertex 3.38729 13.25 0.706698
      vertex 3.78647 13.25 2.61832
      vertex 3.84423 13.25 2.54386
    endloop
  endfacet
  facet normal 0 1 0
    outer loop
      vertex 3.38729 13.25 0.706698
      vertex 3.84423 13.25 2.54386
      vertex 3.90655 13.25 2.47318
    endloop
  endfacet
  facet normal 0 1 0
    outer loop
      vertex 3.38729 13.25 0.706698
      vertex 3.90655 13.25 2.47318
      vertex 3.97318 13.25 2.40655
    endloop
  endfacet
  facet normal 0 1 0
    outer loop
      vertex 3.38729 13.25 0.706698
      vertex 3.97318 13.25 2.40655
      vertex 4.04386 13.25 2.34423
    endloop
  endfacet
  facet normal 0 1 0
    outer loop
      vertex 3.38729 13.25 0.706698
      vertex 4.04386 13.25 2.34423
      vertex 4.11832 13.25 2.28647
    endloop
  endfacet
  facet normal 0 1 0
    outer loop
      vertex 3.38729 13.25 0.706698
      vertex 4.11832 13.25 2.28647
      vertex 4.19626 13.25 2.23351
    endloop
  endfacet
  facet normal 0 1 0
    outer loop
      vertex 3.38729 13.25 0.706698
      vertex 4.19626 13.25 2.23351
      vertex 4.27737 13.25 2.18554
    endloop
  endfacet
  facet normal 0 1 0
    outer loop
      vertex 3.38729 13.25 0.706698
      vertex 5 13.25 2
      vertex 6.61271 13.25 0.706698
    endloop
  endfacet
  facet normal 0 1 0
    outer loop
      vertex 5 13.25 2
      vertex 3.38729 13.25 0.706698
      vertex 4.90581 13.25 2.00296
    endloop
  endfacet
  facet normal 0 1 0
    outer loop
      vertex 4.90581 13.25 2.00296
      vertex 3.38729 13.25 0.706698
      vertex 4.812 13.25 2.01183
    endloop
  endfacet
  facet normal 0 1 0
    outer loop
      vertex 4.812 13.25 2.01183
      vertex 3.38729 13.25 0.706698
      vertex 4.71893 13.25 2.02657
    endloop
  endfacet
  facet normal 0 1 0
    outer loop
      vertex 4.71893 13.25 2.02657
      vertex 3.38729 13.25 0.706698
      vertex 4.62696 13.25 2.04712
    endloop
  endfacet
  facet normal 0 1 0
    outer loop
      vertex 4.62696 13.25 2.04712
      vertex 3.38729 13.25 0.706698
      vertex 4.53647 13.25 2.07341
    endloop
  endfacet
  facet normal 0 1 0
    outer loop
      vertex 4.53647 13.25 2.07341
      vertex 3.38729 13.25 0.706698
      vertex 4.44781 13.25 2.10534
    endloop
  endfacet
  facet normal 0 1 0
    outer loop
      vertex 4.44781 13.25 2.10534
      vertex 3.38729 13.25 0.706698
      vertex 4.36133 13.25 2.14276
    endloop
  endfacet
  facet normal 0 1 0
    outer loop
      vertex 4.36133 13.25 2.14276
      vertex 3.38729 13.25 0.706698
      vertex 4.27737 13.25 2.18554
    endloop
  endfacet
  facet normal 0 1 0
    outer loop
      vertex 3.68554 13.25 2.77737
      vertex 3.38729 13.25 0.706698
      vertex 1.77457 13.25 3.5
    endloop
  endfacet
  facet normal 0.866025 9.53674e-008 -0.5
    outer loop
      vertex 1.77457 13.25 3.5
      vertex 2.58093 15.75 4.89665
      vertex 3.38729 13.25 6.2933
    endloop
  endfacet
  facet normal 0.866025 9.53674e-008 -0.5
    outer loop
      vertex 2.58093 15.75 4.89665
      vertex 1.77457 13.25 3.5
      vertex 1.77457 15.75 3.5
    endloop
  endfacet
  facet normal -0.866025 0 -0.5
    outer loop
      vertex 8.22543 13.25 3.5
      vertex 6.61271 15.75 6.2933
      vertex 8.22543 15.75 3.5
    endloop
  endfacet
  facet normal -0.866025 -0 -0.5
    outer loop
      vertex 6.61271 15.75 6.2933
      vertex 8.22543 13.25 3.5
      vertex 6.61271 13.25 6.2933
    endloop
  endfacet
  facet normal -0.612906 0 0.790156
    outer loop
      vertex 5.88168 13.25 2.28647
      vertex 5.95614 10.75 2.34423
      vertex 5.95614 13.25 2.34423
    endloop
  endfacet
  facet normal -0.612906 0 0.790156
    outer loop
      vertex 5.95614 10.75 2.34423
      vertex 5.88168 13.25 2.28647
      vertex 5.88168 10.75 2.28647
    endloop
  endfacet
  facet normal -0.995562 0 0.0941094
    outer loop
      vertex 6.48817 10.75 3.312
      vertex 6.49704 13.25 3.40581
      vertex 6.48817 13.25 3.312
    endloop
  endfacet
  facet normal -0.995562 0 0.0941094
    outer loop
      vertex 6.49704 13.25 3.40581
      vertex 6.48817 10.75 3.312
      vertex 6.49704 10.75 3.40581
    endloop
  endfacet
  facet normal 0.0314038 0 0.999507
    outer loop
      vertex 4.90581 13.25 2.00296
      vertex 5 10.75 2
      vertex 5 13.25 2
    endloop
  endfacet
  facet normal 0.0314038 0 0.999507
    outer loop
      vertex 5 10.75 2
      vertex 4.90581 13.25 2.00296
      vertex 4.90581 10.75 2.00296
    endloop
  endfacet
  facet normal 0.218147 0 0.975916
    outer loop
      vertex 4.62696 13.25 2.04712
      vertex 4.71893 10.75 2.02657
      vertex 4.71893 13.25 2.02657
    endloop
  endfacet
  facet normal 0.218147 0 0.975916
    outer loop
      vertex 4.71893 10.75 2.02657
      vertex 4.62696 13.25 2.04712
      vertex 4.62696 10.75 2.04712
    endloop
  endfacet
  facet normal -0.50905 0 -0.860737
    outer loop
      vertex 5.72263 10.75 4.81446
      vertex 5.80374 13.25 4.76649
      vertex 5.80374 10.75 4.76649
    endloop
  endfacet
  facet normal -0.50905 0 -0.860737
    outer loop
      vertex 5.80374 13.25 4.76649
      vertex 5.72263 10.75 4.81446
      vertex 5.72263 13.25 4.81446
    endloop
  endfacet
  facet normal -0.156432 0 0.987689
    outer loop
      vertex 5.188 13.25 2.01183
      vertex 5.28107 10.75 2.02657
      vertex 5.28107 13.25 2.02657
    endloop
  endfacet
  facet normal -0.156432 0 0.987689
    outer loop
      vertex 5.28107 10.75 2.02657
      vertex 5.188 13.25 2.01183
      vertex 5.188 10.75 2.01183
    endloop
  endfacet
  facet normal -0.975916 0 0.218147
    outer loop
      vertex 6.45287 10.75 3.12696
      vertex 6.47343 13.25 3.21893
      vertex 6.45287 13.25 3.12696
    endloop
  endfacet
  facet normal -0.975916 0 0.218147
    outer loop
      vertex 6.47343 13.25 3.21893
      vertex 6.45287 10.75 3.12696
      vertex 6.47343 10.75 3.21893
    endloop
  endfacet
  facet normal 0.995562 -0 0.0941094
    outer loop
      vertex 3.50296 10.75 3.40581
      vertex 3.51183 13.25 3.312
      vertex 3.50296 13.25 3.40581
    endloop
  endfacet
  facet normal 0.995562 0 0.0941094
    outer loop
      vertex 3.51183 13.25 3.312
      vertex 3.50296 10.75 3.40581
      vertex 3.51183 10.75 3.312
    endloop
  endfacet
  facet normal -0.999506 0 0.0314139
    outer loop
      vertex 6.49704 10.75 3.40581
      vertex 6.5 13.25 3.5
      vertex 6.49704 13.25 3.40581
    endloop
  endfacet
  facet normal -0.999506 0 0.0314139
    outer loop
      vertex 6.5 13.25 3.5
      vertex 6.49704 10.75 3.40581
      vertex 6.5 10.75 3.5
    endloop
  endfacet
  facet normal -0.562079 0 0.827083
    outer loop
      vertex 5.80374 13.25 2.23351
      vertex 5.88168 10.75 2.28647
      vertex 5.88168 13.25 2.28647
    endloop
  endfacet
  facet normal -0.562079 0 0.827083
    outer loop
      vertex 5.88168 10.75 2.28647
      vertex 5.80374 13.25 2.23351
      vertex 5.80374 10.75 2.23351
    endloop
  endfacet
  facet normal -0.891011 0 0.453981
    outer loop
      vertex 6.31446 10.75 2.77737
      vertex 6.35724 13.25 2.86133
      vertex 6.31446 13.25 2.77737
    endloop
  endfacet
  facet normal -0.891011 0 0.453981
    outer loop
      vertex 6.35724 13.25 2.86133
      vertex 6.31446 10.75 2.77737
      vertex 6.35724 10.75 2.86133
    endloop
  endfacet
  facet normal -0.987689 0 0.156432
    outer loop
      vertex 6.47343 10.75 3.21893
      vertex 6.48817 13.25 3.312
      vertex 6.47343 13.25 3.21893
    endloop
  endfacet
  facet normal -0.987689 0 0.156432
    outer loop
      vertex 6.48817 13.25 3.312
      vertex 6.47343 10.75 3.21893
      vertex 6.48817 10.75 3.312
    endloop
  endfacet
  facet normal -0.661313 0 0.75011
    outer loop
      vertex 5.95614 13.25 2.34423
      vertex 6.02682 10.75 2.40655
      vertex 6.02682 13.25 2.40655
    endloop
  endfacet
  facet normal -0.661313 0 0.75011
    outer loop
      vertex 6.02682 10.75 2.40655
      vertex 5.95614 13.25 2.34423
      vertex 5.95614 10.75 2.34423
    endloop
  endfacet
  facet normal 0.987689 -0 0.156432
    outer loop
      vertex 3.51183 10.75 3.312
      vertex 3.52657 13.25 3.21893
      vertex 3.51183 13.25 3.312
    endloop
  endfacet
  facet normal 0.987689 0 0.156432
    outer loop
      vertex 3.52657 13.25 3.21893
      vertex 3.51183 10.75 3.312
      vertex 3.52657 10.75 3.21893
    endloop
  endfacet
  facet normal 0.975916 -0 0.218147
    outer loop
      vertex 3.52657 10.75 3.21893
      vertex 3.54712 13.25 3.12696
      vertex 3.52657 13.25 3.21893
    endloop
  endfacet
  facet normal 0.975916 0 0.218147
    outer loop
      vertex 3.54712 13.25 3.12696
      vertex 3.52657 10.75 3.21893
      vertex 3.54712 10.75 3.12696
    endloop
  endfacet
  facet normal 0.999507 0 -0.0314041
    outer loop
      vertex 3.50296 10.75 3.59418
      vertex 3.5 13.25 3.5
      vertex 3.50296 13.25 3.59418
    endloop
  endfacet
  facet normal 0.999507 0 -0.0314041
    outer loop
      vertex 3.5 13.25 3.5
      vertex 3.50296 10.75 3.59418
      vertex 3.5 10.75 3.5
    endloop
  endfacet
  facet normal 0.397148 0 0.917755
    outer loop
      vertex 4.36133 13.25 2.14276
      vertex 4.44781 10.75 2.10534
      vertex 4.44781 13.25 2.10534
    endloop
  endfacet
  facet normal 0.397148 0 0.917755
    outer loop
      vertex 4.44781 10.75 2.10534
      vertex 4.36133 13.25 2.14276
      vertex 4.36133 10.75 2.14276
    endloop
  endfacet
  facet normal 0.562079 0 0.827083
    outer loop
      vertex 4.11832 13.25 2.28647
      vertex 4.19626 10.75 2.23351
      vertex 4.19626 13.25 2.23351
    endloop
  endfacet
  facet normal 0.562079 0 0.827083
    outer loop
      vertex 4.19626 10.75 2.23351
      vertex 4.11832 13.25 2.28647
      vertex 4.11832 10.75 2.28647
    endloop
  endfacet
  facet normal 0.612906 0 0.790156
    outer loop
      vertex 4.04386 13.25 2.34423
      vertex 4.11832 10.75 2.28647
      vertex 4.11832 13.25 2.28647
    endloop
  endfacet
  facet normal 0.612906 0 0.790156
    outer loop
      vertex 4.11832 10.75 2.28647
      vertex 4.04386 13.25 2.34423
      vertex 4.04386 10.75 2.34423
    endloop
  endfacet
  facet normal 0.661313 0 0.75011
    outer loop
      vertex 3.97318 13.25 2.40655
      vertex 4.04386 10.75 2.34423
      vertex 4.04386 13.25 2.34423
    endloop
  endfacet
  facet normal 0.661313 0 0.75011
    outer loop
      vertex 4.04386 10.75 2.34423
      vertex 3.97318 13.25 2.40655
      vertex 3.97318 10.75 2.40655
    endloop
  endfacet
  facet normal -0.999506 0 -0.0314142
    outer loop
      vertex 6.5 10.75 3.5
      vertex 6.49704 13.25 3.59418
      vertex 6.5 13.25 3.5
    endloop
  endfacet
  facet normal -0.999506 -0 -0.0314142
    outer loop
      vertex 6.49704 13.25 3.59418
      vertex 6.5 10.75 3.5
      vertex 6.49704 10.75 3.59418
    endloop
  endfacet
  facet normal -0.987689 0 -0.156432
    outer loop
      vertex 6.48817 10.75 3.688
      vertex 6.47343 13.25 3.78107
      vertex 6.48817 13.25 3.688
    endloop
  endfacet
  facet normal -0.987689 -0 -0.156432
    outer loop
      vertex 6.47343 13.25 3.78107
      vertex 6.48817 10.75 3.688
      vertex 6.47343 10.75 3.78107
    endloop
  endfacet
  facet normal -0.707107 0 -0.707107
    outer loop
      vertex 6.09345 10.75 4.52682
      vertex 6.02682 13.25 4.59345
      vertex 6.09345 13.25 4.52682
    endloop
  endfacet
  facet normal -0.707107 -0 -0.707107
    outer loop
      vertex 6.02682 13.25 4.59345
      vertex 6.09345 10.75 4.52682
      vertex 6.02682 10.75 4.59345
    endloop
  endfacet
  facet normal -0.790156 0 -0.612906
    outer loop
      vertex 6.21352 10.75 4.38168
      vertex 6.15577 13.25 4.45614
      vertex 6.21352 13.25 4.38168
    endloop
  endfacet
  facet normal -0.790156 -0 -0.612906
    outer loop
      vertex 6.15577 13.25 4.45614
      vertex 6.21352 10.75 4.38168
      vertex 6.15577 10.75 4.45614
    endloop
  endfacet
  facet normal -0.891011 0 -0.453981
    outer loop
      vertex 6.35724 10.75 4.13867
      vertex 6.31446 13.25 4.22263
      vertex 6.35724 13.25 4.13867
    endloop
  endfacet
  facet normal -0.891011 -0 -0.453981
    outer loop
      vertex 6.31446 13.25 4.22263
      vertex 6.35724 10.75 4.13867
      vertex 6.31446 10.75 4.22263
    endloop
  endfacet
  facet normal 0.0314139 0 -0.999506
    outer loop
      vertex 4.90581 10.75 4.99704
      vertex 5 13.25 5
      vertex 5 10.75 5
    endloop
  endfacet
  facet normal 0.0314139 0 -0.999506
    outer loop
      vertex 5 13.25 5
      vertex 4.90581 10.75 4.99704
      vertex 4.90581 13.25 4.99704
    endloop
  endfacet
  facet normal -0.0941094 0 -0.995562
    outer loop
      vertex 5.09418 10.75 4.99704
      vertex 5.188 13.25 4.98817
      vertex 5.188 10.75 4.98817
    endloop
  endfacet
  facet normal -0.0941094 0 -0.995562
    outer loop
      vertex 5.188 13.25 4.98817
      vertex 5.09418 10.75 4.99704
      vertex 5.09418 13.25 4.99704
    endloop
  endfacet
  facet normal -0.397148 0 -0.917755
    outer loop
      vertex 5.55219 10.75 4.89466
      vertex 5.63867 13.25 4.85724
      vertex 5.63867 10.75 4.85724
    endloop
  endfacet
  facet normal -0.397148 0 -0.917755
    outer loop
      vertex 5.63867 13.25 4.85724
      vertex 5.55219 10.75 4.89466
      vertex 5.55219 13.25 4.89466
    endloop
  endfacet
  facet normal -0.453981 0 -0.891011
    outer loop
      vertex 5.63867 10.75 4.85724
      vertex 5.72263 13.25 4.81446
      vertex 5.72263 10.75 4.81446
    endloop
  endfacet
  facet normal -0.453981 0 -0.891011
    outer loop
      vertex 5.72263 13.25 4.81446
      vertex 5.63867 10.75 4.85724
      vertex 5.63867 13.25 4.85724
    endloop
  endfacet
  facet normal -0.917755 0 0.397148
    outer loop
      vertex 6.35724 10.75 2.86133
      vertex 6.39466 13.25 2.94781
      vertex 6.35724 13.25 2.86133
    endloop
  endfacet
  facet normal -0.917755 0 0.397148
    outer loop
      vertex 6.39466 13.25 2.94781
      vertex 6.35724 10.75 2.86133
      vertex 6.39466 10.75 2.94781
    endloop
  endfacet
  facet normal -0.790156 0 0.612906
    outer loop
      vertex 6.15577 10.75 2.54386
      vertex 6.21352 13.25 2.61832
      vertex 6.15577 13.25 2.54386
    endloop
  endfacet
  facet normal -0.790156 0 0.612906
    outer loop
      vertex 6.21352 13.25 2.61832
      vertex 6.15577 10.75 2.54386
      vertex 6.21352 10.75 2.61832
    endloop
  endfacet
  facet normal -0.75011 0 0.661313
    outer loop
      vertex 6.09345 10.75 2.47318
      vertex 6.15577 13.25 2.54386
      vertex 6.09345 13.25 2.47318
    endloop
  endfacet
  facet normal -0.75011 0 0.661313
    outer loop
      vertex 6.15577 13.25 2.54386
      vertex 6.09345 10.75 2.47318
      vertex 6.15577 10.75 2.54386
    endloop
  endfacet
  facet normal -0.707107 0 0.707107
    outer loop
      vertex 6.02682 10.75 2.40655
      vertex 6.09345 13.25 2.47318
      vertex 6.02682 13.25 2.40655
    endloop
  endfacet
  facet normal -0.707107 0 0.707107
    outer loop
      vertex 6.09345 13.25 2.47318
      vertex 6.02682 10.75 2.40655
      vertex 6.09345 10.75 2.47318
    endloop
  endfacet
  facet normal 0.790156 -0 0.612906
    outer loop
      vertex 3.78647 10.75 2.61832
      vertex 3.84423 13.25 2.54386
      vertex 3.78647 13.25 2.61832
    endloop
  endfacet
  facet normal 0.790156 0 0.612906
    outer loop
      vertex 3.84423 13.25 2.54386
      vertex 3.78647 10.75 2.61832
      vertex 3.84423 10.75 2.54386
    endloop
  endfacet
  facet normal 0.891011 -0 0.453981
    outer loop
      vertex 3.64276 10.75 2.86133
      vertex 3.68554 13.25 2.77737
      vertex 3.64276 13.25 2.86133
    endloop
  endfacet
  facet normal 0.891011 0 0.453981
    outer loop
      vertex 3.68554 13.25 2.77737
      vertex 3.64276 10.75 2.86133
      vertex 3.68554 10.75 2.77737
    endloop
  endfacet
  facet normal 0.917755 -0 0.397148
    outer loop
      vertex 3.60534 10.75 2.94781
      vertex 3.64276 13.25 2.86133
      vertex 3.60534 13.25 2.94781
    endloop
  endfacet
  facet normal 0.917755 0 0.397148
    outer loop
      vertex 3.64276 13.25 2.86133
      vertex 3.60534 10.75 2.94781
      vertex 3.64276 10.75 2.86133
    endloop
  endfacet
  facet normal 0.940879 -0 0.338742
    outer loop
      vertex 3.57341 10.75 3.03647
      vertex 3.60534 13.25 2.94781
      vertex 3.57341 13.25 3.03647
    endloop
  endfacet
  facet normal 0.940879 0 0.338742
    outer loop
      vertex 3.60534 13.25 2.94781
      vertex 3.57341 10.75 3.03647
      vertex 3.60534 10.75 2.94781
    endloop
  endfacet
  facet normal 0.960293 -0 0.278992
    outer loop
      vertex 3.54712 10.75 3.12696
      vertex 3.57341 13.25 3.03647
      vertex 3.54712 13.25 3.12696
    endloop
  endfacet
  facet normal 0.960293 0 0.278992
    outer loop
      vertex 3.57341 13.25 3.03647
      vertex 3.54712 10.75 3.12696
      vertex 3.57341 10.75 3.03647
    endloop
  endfacet
  facet normal 0.278992 0 0.960293
    outer loop
      vertex 4.53647 13.25 2.07341
      vertex 4.62696 10.75 2.04712
      vertex 4.62696 13.25 2.04712
    endloop
  endfacet
  facet normal 0.278992 0 0.960293
    outer loop
      vertex 4.62696 10.75 2.04712
      vertex 4.53647 13.25 2.07341
      vertex 4.53647 10.75 2.07341
    endloop
  endfacet
  facet normal 0.338742 0 0.940879
    outer loop
      vertex 4.44781 13.25 2.10534
      vertex 4.53647 10.75 2.07341
      vertex 4.53647 13.25 2.07341
    endloop
  endfacet
  facet normal 0.338742 0 0.940879
    outer loop
      vertex 4.53647 10.75 2.07341
      vertex 4.44781 13.25 2.10534
      vertex 4.44781 10.75 2.10534
    endloop
  endfacet
  facet normal 0.50905 0 0.860737
    outer loop
      vertex 4.19626 13.25 2.23351
      vertex 4.27737 10.75 2.18554
      vertex 4.27737 13.25 2.18554
    endloop
  endfacet
  facet normal 0.50905 0 0.860737
    outer loop
      vertex 4.27737 10.75 2.18554
      vertex 4.19626 13.25 2.23351
      vertex 4.19626 10.75 2.23351
    endloop
  endfacet
  facet normal 0.453981 0 0.891011
    outer loop
      vertex 4.27737 13.25 2.18554
      vertex 4.36133 10.75 2.14276
      vertex 4.36133 13.25 2.14276
    endloop
  endfacet
  facet normal 0.453981 0 0.891011
    outer loop
      vertex 4.36133 10.75 2.14276
      vertex 4.27737 13.25 2.18554
      vertex 4.27737 10.75 2.18554
    endloop
  endfacet
  facet normal -0.995562 0 -0.0941094
    outer loop
      vertex 6.49704 10.75 3.59418
      vertex 6.48817 13.25 3.688
      vertex 6.49704 13.25 3.59418
    endloop
  endfacet
  facet normal -0.995562 -0 -0.0941094
    outer loop
      vertex 6.48817 13.25 3.688
      vertex 6.49704 10.75 3.59418
      vertex 6.48817 10.75 3.688
    endloop
  endfacet
  facet normal -0.960293 0 -0.278992
    outer loop
      vertex 6.45287 10.75 3.87303
      vertex 6.42658 13.25 3.96352
      vertex 6.45287 13.25 3.87303
    endloop
  endfacet
  facet normal -0.960293 -0 -0.278992
    outer loop
      vertex 6.42658 13.25 3.96352
      vertex 6.45287 10.75 3.87303
      vertex 6.42658 10.75 3.96352
    endloop
  endfacet
  facet normal -0.612906 0 -0.790156
    outer loop
      vertex 5.88168 10.75 4.71352
      vertex 5.95614 13.25 4.65577
      vertex 5.95614 10.75 4.65577
    endloop
  endfacet
  facet normal -0.612906 0 -0.790156
    outer loop
      vertex 5.95614 13.25 4.65577
      vertex 5.88168 10.75 4.71352
      vertex 5.88168 13.25 4.71352
    endloop
  endfacet
  facet normal -0.661313 0 -0.75011
    outer loop
      vertex 5.95614 10.75 4.65577
      vertex 6.02682 13.25 4.59345
      vertex 6.02682 10.75 4.59345
    endloop
  endfacet
  facet normal -0.661313 0 -0.75011
    outer loop
      vertex 6.02682 13.25 4.59345
      vertex 5.95614 10.75 4.65577
      vertex 5.95614 13.25 4.65577
    endloop
  endfacet
  facet normal -0.940879 0 -0.338742
    outer loop
      vertex 6.42658 10.75 3.96352
      vertex 6.39466 13.25 4.05219
      vertex 6.42658 13.25 3.96352
    endloop
  endfacet
  facet normal -0.940879 -0 -0.338742
    outer loop
      vertex 6.39466 13.25 4.05219
      vertex 6.42658 10.75 3.96352
      vertex 6.39466 10.75 4.05219
    endloop
  endfacet
  facet normal -0.827083 0 -0.562079
    outer loop
      vertex 6.26649 10.75 4.30374
      vertex 6.21352 13.25 4.38168
      vertex 6.26649 13.25 4.30374
    endloop
  endfacet
  facet normal -0.827083 -0 -0.562079
    outer loop
      vertex 6.21352 13.25 4.38168
      vertex 6.26649 10.75 4.30374
      vertex 6.21352 10.75 4.38168
    endloop
  endfacet
  facet normal -0.860737 0 -0.50905
    outer loop
      vertex 6.31446 10.75 4.22263
      vertex 6.26649 13.25 4.30374
      vertex 6.31446 13.25 4.22263
    endloop
  endfacet
  facet normal -0.860737 -0 -0.50905
    outer loop
      vertex 6.26649 13.25 4.30374
      vertex 6.31446 10.75 4.22263
      vertex 6.26649 10.75 4.30374
    endloop
  endfacet
  facet normal 0.278992 0 -0.960293
    outer loop
      vertex 4.53647 10.75 4.92658
      vertex 4.62696 13.25 4.95287
      vertex 4.62696 10.75 4.95287
    endloop
  endfacet
  facet normal 0.278992 0 -0.960293
    outer loop
      vertex 4.62696 13.25 4.95287
      vertex 4.53647 10.75 4.92658
      vertex 4.53647 13.25 4.92658
    endloop
  endfacet
  facet normal -0.0314142 0 -0.999506
    outer loop
      vertex 5 10.75 5
      vertex 5.09418 13.25 4.99704
      vertex 5.09418 10.75 4.99704
    endloop
  endfacet
  facet normal -0.0314142 0 -0.999506
    outer loop
      vertex 5.09418 13.25 4.99704
      vertex 5 10.75 5
      vertex 5 13.25 5
    endloop
  endfacet
  facet normal 0.995562 0 -0.0941094
    outer loop
      vertex 3.51183 10.75 3.688
      vertex 3.50296 13.25 3.59418
      vertex 3.51183 13.25 3.688
    endloop
  endfacet
  facet normal 0.995562 0 -0.0941094
    outer loop
      vertex 3.50296 13.25 3.59418
      vertex 3.51183 10.75 3.688
      vertex 3.50296 10.75 3.59418
    endloop
  endfacet
  facet normal 0.987689 0 -0.156432
    outer loop
      vertex 3.52657 10.75 3.78107
      vertex 3.51183 13.25 3.688
      vertex 3.52657 13.25 3.78107
    endloop
  endfacet
  facet normal 0.987689 0 -0.156432
    outer loop
      vertex 3.51183 13.25 3.688
      vertex 3.52657 10.75 3.78107
      vertex 3.51183 10.75 3.688
    endloop
  endfacet
  facet normal 0.790156 0 -0.612906
    outer loop
      vertex 3.84423 10.75 4.45614
      vertex 3.78647 13.25 4.38168
      vertex 3.84423 13.25 4.45614
    endloop
  endfacet
  facet normal 0.790156 0 -0.612906
    outer loop
      vertex 3.78647 13.25 4.38168
      vertex 3.84423 10.75 4.45614
      vertex 3.78647 10.75 4.38168
    endloop
  endfacet
  facet normal 0.940879 0 -0.338742
    outer loop
      vertex 3.60534 10.75 4.05219
      vertex 3.57341 13.25 3.96352
      vertex 3.60534 13.25 4.05219
    endloop
  endfacet
  facet normal 0.940879 0 -0.338742
    outer loop
      vertex 3.57341 13.25 3.96352
      vertex 3.60534 10.75 4.05219
      vertex 3.57341 10.75 3.96352
    endloop
  endfacet
  facet normal 0.960293 0 -0.278992
    outer loop
      vertex 3.57341 10.75 3.96352
      vertex 3.54712 13.25 3.87303
      vertex 3.57341 13.25 3.96352
    endloop
  endfacet
  facet normal 0.960293 0 -0.278992
    outer loop
      vertex 3.54712 13.25 3.87303
      vertex 3.57341 10.75 3.96352
      vertex 3.54712 10.75 3.87303
    endloop
  endfacet
  facet normal -0.218147 0 -0.975916
    outer loop
      vertex 5.28107 10.75 4.97343
      vertex 5.37303 13.25 4.95287
      vertex 5.37303 10.75 4.95287
    endloop
  endfacet
  facet normal -0.218147 0 -0.975916
    outer loop
      vertex 5.37303 13.25 4.95287
      vertex 5.28107 10.75 4.97343
      vertex 5.28107 13.25 4.97343
    endloop
  endfacet
  facet normal -0.156432 0 -0.987689
    outer loop
      vertex 5.188 10.75 4.98817
      vertex 5.28107 13.25 4.97343
      vertex 5.28107 10.75 4.97343
    endloop
  endfacet
  facet normal -0.156432 0 -0.987689
    outer loop
      vertex 5.28107 13.25 4.97343
      vertex 5.188 10.75 4.98817
      vertex 5.188 13.25 4.98817
    endloop
  endfacet
  facet normal -0.0314041 0 0.999507
    outer loop
      vertex 5 13.25 2
      vertex 5.09418 10.75 2.00296
      vertex 5.09418 13.25 2.00296
    endloop
  endfacet
  facet normal -0.0314041 0 0.999507
    outer loop
      vertex 5.09418 10.75 2.00296
      vertex 5 13.25 2
      vertex 5 10.75 2
    endloop
  endfacet
  facet normal -0.940879 0 0.338742
    outer loop
      vertex 6.39466 10.75 2.94781
      vertex 6.42658 13.25 3.03647
      vertex 6.39466 13.25 2.94781
    endloop
  endfacet
  facet normal -0.940879 0 0.338742
    outer loop
      vertex 6.42658 13.25 3.03647
      vertex 6.39466 10.75 2.94781
      vertex 6.42658 10.75 3.03647
    endloop
  endfacet
  facet normal -0.960293 0 0.278992
    outer loop
      vertex 6.42658 10.75 3.03647
      vertex 6.45287 13.25 3.12696
      vertex 6.42658 13.25 3.03647
    endloop
  endfacet
  facet normal -0.960293 0 0.278992
    outer loop
      vertex 6.45287 13.25 3.12696
      vertex 6.42658 10.75 3.03647
      vertex 6.45287 10.75 3.12696
    endloop
  endfacet
  facet normal -0.827083 0 0.562079
    outer loop
      vertex 6.21352 10.75 2.61832
      vertex 6.26649 13.25 2.69626
      vertex 6.21352 13.25 2.61832
    endloop
  endfacet
  facet normal -0.827083 0 0.562079
    outer loop
      vertex 6.26649 13.25 2.69626
      vertex 6.21352 10.75 2.61832
      vertex 6.26649 10.75 2.69626
    endloop
  endfacet
  facet normal -0.860737 0 0.50905
    outer loop
      vertex 6.26649 10.75 2.69626
      vertex 6.31446 13.25 2.77737
      vertex 6.26649 13.25 2.69626
    endloop
  endfacet
  facet normal -0.860737 0 0.50905
    outer loop
      vertex 6.31446 13.25 2.77737
      vertex 6.26649 10.75 2.69626
      vertex 6.31446 10.75 2.77737
    endloop
  endfacet
  facet normal 0.75011 -0 0.661313
    outer loop
      vertex 3.84423 10.75 2.54386
      vertex 3.90655 13.25 2.47318
      vertex 3.84423 13.25 2.54386
    endloop
  endfacet
  facet normal 0.75011 0 0.661313
    outer loop
      vertex 3.90655 13.25 2.47318
      vertex 3.84423 10.75 2.54386
      vertex 3.90655 10.75 2.47318
    endloop
  endfacet
  facet normal 0.707107 -0 0.707107
    outer loop
      vertex 3.90655 10.75 2.47318
      vertex 3.97318 13.25 2.40655
      vertex 3.90655 13.25 2.47318
    endloop
  endfacet
  facet normal 0.707107 0 0.707107
    outer loop
      vertex 3.97318 13.25 2.40655
      vertex 3.90655 10.75 2.47318
      vertex 3.97318 10.75 2.40655
    endloop
  endfacet
  facet normal 0.860737 -0 0.50905
    outer loop
      vertex 3.68554 10.75 2.77737
      vertex 3.73351 13.25 2.69626
      vertex 3.68554 13.25 2.77737
    endloop
  endfacet
  facet normal 0.860737 0 0.50905
    outer loop
      vertex 3.73351 13.25 2.69626
      vertex 3.68554 10.75 2.77737
      vertex 3.73351 10.75 2.69626
    endloop
  endfacet
  facet normal 0.827083 -0 0.562079
    outer loop
      vertex 3.73351 10.75 2.69626
      vertex 3.78647 13.25 2.61832
      vertex 3.73351 13.25 2.69626
    endloop
  endfacet
  facet normal 0.827083 0 0.562079
    outer loop
      vertex 3.78647 13.25 2.61832
      vertex 3.73351 10.75 2.69626
      vertex 3.78647 10.75 2.61832
    endloop
  endfacet
  facet normal 0.999507 -0 0.0314038
    outer loop
      vertex 3.5 10.75 3.5
      vertex 3.50296 13.25 3.40581
      vertex 3.5 13.25 3.5
    endloop
  endfacet
  facet normal 0.999507 0 0.0314038
    outer loop
      vertex 3.50296 13.25 3.40581
      vertex 3.5 10.75 3.5
      vertex 3.50296 10.75 3.40581
    endloop
  endfacet
  facet normal 0.156432 0 0.987689
    outer loop
      vertex 4.71893 13.25 2.02657
      vertex 4.812 10.75 2.01183
      vertex 4.812 13.25 2.01183
    endloop
  endfacet
  facet normal 0.156432 0 0.987689
    outer loop
      vertex 4.812 10.75 2.01183
      vertex 4.71893 13.25 2.02657
      vertex 4.71893 10.75 2.02657
    endloop
  endfacet
  facet normal 0.0941094 0 0.995562
    outer loop
      vertex 4.812 13.25 2.01183
      vertex 4.90581 10.75 2.00296
      vertex 4.90581 13.25 2.00296
    endloop
  endfacet
  facet normal 0.0941094 0 0.995562
    outer loop
      vertex 4.90581 10.75 2.00296
      vertex 4.812 13.25 2.01183
      vertex 4.812 10.75 2.01183
    endloop
  endfacet
  facet normal -0.975916 0 -0.218147
    outer loop
      vertex 6.47343 10.75 3.78107
      vertex 6.45287 13.25 3.87303
      vertex 6.47343 13.25 3.78107
    endloop
  endfacet
  facet normal -0.975916 -0 -0.218147
    outer loop
      vertex 6.45287 13.25 3.87303
      vertex 6.47343 10.75 3.78107
      vertex 6.45287 10.75 3.87303
    endloop
  endfacet
  facet normal -0.75011 0 -0.661313
    outer loop
      vertex 6.15577 10.75 4.45614
      vertex 6.09345 13.25 4.52682
      vertex 6.15577 13.25 4.45614
    endloop
  endfacet
  facet normal -0.75011 -0 -0.661313
    outer loop
      vertex 6.09345 13.25 4.52682
      vertex 6.15577 10.75 4.45614
      vertex 6.09345 10.75 4.52682
    endloop
  endfacet
  facet normal -0.562079 0 -0.827083
    outer loop
      vertex 5.80374 10.75 4.76649
      vertex 5.88168 13.25 4.71352
      vertex 5.88168 10.75 4.71352
    endloop
  endfacet
  facet normal -0.562079 0 -0.827083
    outer loop
      vertex 5.88168 13.25 4.71352
      vertex 5.80374 10.75 4.76649
      vertex 5.80374 13.25 4.76649
    endloop
  endfacet
  facet normal -0.917755 0 -0.397148
    outer loop
      vertex 6.39466 10.75 4.05219
      vertex 6.35724 13.25 4.13867
      vertex 6.39466 13.25 4.05219
    endloop
  endfacet
  facet normal -0.917755 -0 -0.397148
    outer loop
      vertex 6.35724 13.25 4.13867
      vertex 6.39466 10.75 4.05219
      vertex 6.35724 10.75 4.13867
    endloop
  endfacet
  facet normal 0.612906 0 -0.790156
    outer loop
      vertex 4.04386 10.75 4.65577
      vertex 4.11832 13.25 4.71352
      vertex 4.11832 10.75 4.71352
    endloop
  endfacet
  facet normal 0.612906 0 -0.790156
    outer loop
      vertex 4.11832 13.25 4.71352
      vertex 4.04386 10.75 4.65577
      vertex 4.04386 13.25 4.65577
    endloop
  endfacet
  facet normal 0.453981 0 -0.891011
    outer loop
      vertex 4.27737 10.75 4.81446
      vertex 4.36133 13.25 4.85724
      vertex 4.36133 10.75 4.85724
    endloop
  endfacet
  facet normal 0.453981 0 -0.891011
    outer loop
      vertex 4.36133 13.25 4.85724
      vertex 4.27737 10.75 4.81446
      vertex 4.27737 13.25 4.81446
    endloop
  endfacet
  facet normal 0.156432 0 -0.987689
    outer loop
      vertex 4.71893 10.75 4.97343
      vertex 4.812 13.25 4.98817
      vertex 4.812 10.75 4.98817
    endloop
  endfacet
  facet normal 0.156432 0 -0.987689
    outer loop
      vertex 4.812 13.25 4.98817
      vertex 4.71893 10.75 4.97343
      vertex 4.71893 13.25 4.97343
    endloop
  endfacet
  facet normal 0.0941094 0 -0.995562
    outer loop
      vertex 4.812 10.75 4.98817
      vertex 4.90581 13.25 4.99704
      vertex 4.90581 10.75 4.99704
    endloop
  endfacet
  facet normal 0.0941094 0 -0.995562
    outer loop
      vertex 4.90581 13.25 4.99704
      vertex 4.812 10.75 4.98817
      vertex 4.812 13.25 4.98817
    endloop
  endfacet
  facet normal 0.860737 0 -0.50905
    outer loop
      vertex 3.73351 10.75 4.30374
      vertex 3.68554 13.25 4.22263
      vertex 3.73351 13.25 4.30374
    endloop
  endfacet
  facet normal 0.860737 0 -0.50905
    outer loop
      vertex 3.68554 13.25 4.22263
      vertex 3.73351 10.75 4.30374
      vertex 3.68554 10.75 4.22263
    endloop
  endfacet
  facet normal 0.75011 0 -0.661313
    outer loop
      vertex 3.90655 10.75 4.52682
      vertex 3.84423 13.25 4.45614
      vertex 3.90655 13.25 4.52682
    endloop
  endfacet
  facet normal 0.75011 0 -0.661313
    outer loop
      vertex 3.84423 13.25 4.45614
      vertex 3.90655 10.75 4.52682
      vertex 3.84423 10.75 4.45614
    endloop
  endfacet
  facet normal 0.917755 0 -0.397148
    outer loop
      vertex 3.64276 10.75 4.13867
      vertex 3.60534 13.25 4.05219
      vertex 3.64276 13.25 4.13867
    endloop
  endfacet
  facet normal 0.917755 0 -0.397148
    outer loop
      vertex 3.60534 13.25 4.05219
      vertex 3.64276 10.75 4.13867
      vertex 3.60534 10.75 4.05219
    endloop
  endfacet
  facet normal 0.891011 0 -0.453981
    outer loop
      vertex 3.68554 10.75 4.22263
      vertex 3.64276 13.25 4.13867
      vertex 3.68554 13.25 4.22263
    endloop
  endfacet
  facet normal 0.891011 0 -0.453981
    outer loop
      vertex 3.64276 13.25 4.13867
      vertex 3.68554 10.75 4.22263
      vertex 3.64276 10.75 4.13867
    endloop
  endfacet
  facet normal -0.278992 0 -0.960293
    outer loop
      vertex 5.37303 10.75 4.95287
      vertex 5.46352 13.25 4.92658
      vertex 5.46352 10.75 4.92658
    endloop
  endfacet
  facet normal -0.278992 0 -0.960293
    outer loop
      vertex 5.46352 13.25 4.92658
      vertex 5.37303 10.75 4.95287
      vertex 5.37303 13.25 4.95287
    endloop
  endfacet
  facet normal -0.338742 0 -0.940879
    outer loop
      vertex 5.46352 10.75 4.92658
      vertex 5.55219 13.25 4.89466
      vertex 5.55219 10.75 4.89466
    endloop
  endfacet
  facet normal -0.338742 0 -0.940879
    outer loop
      vertex 5.55219 13.25 4.89466
      vertex 5.46352 10.75 4.92658
      vertex 5.46352 13.25 4.92658
    endloop
  endfacet
  facet normal -0.397148 0 0.917755
    outer loop
      vertex 5.55219 13.25 2.10534
      vertex 5.63867 10.75 2.14276
      vertex 5.63867 13.25 2.14276
    endloop
  endfacet
  facet normal -0.397148 0 0.917755
    outer loop
      vertex 5.63867 10.75 2.14276
      vertex 5.55219 13.25 2.10534
      vertex 5.55219 10.75 2.10534
    endloop
  endfacet
  facet normal -0.453981 0 0.891011
    outer loop
      vertex 5.63867 13.25 2.14276
      vertex 5.72263 10.75 2.18554
      vertex 5.72263 13.25 2.18554
    endloop
  endfacet
  facet normal -0.453981 0 0.891011
    outer loop
      vertex 5.72263 10.75 2.18554
      vertex 5.63867 13.25 2.14276
      vertex 5.63867 10.75 2.14276
    endloop
  endfacet
  facet normal -0.0941094 0 0.995562
    outer loop
      vertex 5.09418 13.25 2.00296
      vertex 5.188 10.75 2.01183
      vertex 5.188 13.25 2.01183
    endloop
  endfacet
  facet normal -0.0941094 0 0.995562
    outer loop
      vertex 5.188 10.75 2.01183
      vertex 5.09418 13.25 2.00296
      vertex 5.09418 10.75 2.00296
    endloop
  endfacet
  facet normal 0.338742 0 -0.940879
    outer loop
      vertex 4.44781 10.75 4.89466
      vertex 4.53647 13.25 4.92658
      vertex 4.53647 10.75 4.92658
    endloop
  endfacet
  facet normal 0.338742 0 -0.940879
    outer loop
      vertex 4.53647 13.25 4.92658
      vertex 4.44781 10.75 4.89466
      vertex 4.44781 13.25 4.89466
    endloop
  endfacet
  facet normal 0.50905 0 -0.860737
    outer loop
      vertex 4.19626 10.75 4.76649
      vertex 4.27737 13.25 4.81446
      vertex 4.27737 10.75 4.81446
    endloop
  endfacet
  facet normal 0.50905 0 -0.860737
    outer loop
      vertex 4.27737 13.25 4.81446
      vertex 4.19626 10.75 4.76649
      vertex 4.19626 13.25 4.76649
    endloop
  endfacet
  facet normal 0.562079 0 -0.827083
    outer loop
      vertex 4.11832 10.75 4.71352
      vertex 4.19626 13.25 4.76649
      vertex 4.19626 10.75 4.76649
    endloop
  endfacet
  facet normal 0.562079 0 -0.827083
    outer loop
      vertex 4.19626 13.25 4.76649
      vertex 4.11832 10.75 4.71352
      vertex 4.11832 13.25 4.71352
    endloop
  endfacet
  facet normal 0.218147 0 -0.975916
    outer loop
      vertex 4.62696 10.75 4.95287
      vertex 4.71893 13.25 4.97343
      vertex 4.71893 10.75 4.97343
    endloop
  endfacet
  facet normal 0.218147 0 -0.975916
    outer loop
      vertex 4.71893 13.25 4.97343
      vertex 4.62696 10.75 4.95287
      vertex 4.62696 13.25 4.95287
    endloop
  endfacet
  facet normal 0.975916 0 -0.218147
    outer loop
      vertex 3.54712 10.75 3.87303
      vertex 3.52657 13.25 3.78107
      vertex 3.54712 13.25 3.87303
    endloop
  endfacet
  facet normal 0.975916 0 -0.218147
    outer loop
      vertex 3.52657 13.25 3.78107
      vertex 3.54712 10.75 3.87303
      vertex 3.52657 10.75 3.78107
    endloop
  endfacet
  facet normal 0.827083 0 -0.562079
    outer loop
      vertex 3.78647 10.75 4.38168
      vertex 3.73351 13.25 4.30374
      vertex 3.78647 13.25 4.38168
    endloop
  endfacet
  facet normal 0.827083 0 -0.562079
    outer loop
      vertex 3.73351 13.25 4.30374
      vertex 3.78647 10.75 4.38168
      vertex 3.73351 10.75 4.30374
    endloop
  endfacet
  facet normal 0.707107 0 -0.707107
    outer loop
      vertex 3.97318 10.75 4.59345
      vertex 3.90655 13.25 4.52682
      vertex 3.97318 13.25 4.59345
    endloop
  endfacet
  facet normal 0.707107 0 -0.707107
    outer loop
      vertex 3.90655 13.25 4.52682
      vertex 3.97318 10.75 4.59345
      vertex 3.90655 10.75 4.52682
    endloop
  endfacet
  facet normal 0.661313 0 -0.75011
    outer loop
      vertex 3.97318 10.75 4.59345
      vertex 4.04386 13.25 4.65577
      vertex 4.04386 10.75 4.65577
    endloop
  endfacet
  facet normal 0.661313 0 -0.75011
    outer loop
      vertex 4.04386 13.25 4.65577
      vertex 3.97318 10.75 4.59345
      vertex 3.97318 13.25 4.59345
    endloop
  endfacet
  facet normal -0.50905 0 0.860737
    outer loop
      vertex 5.72263 13.25 2.18554
      vertex 5.80374 10.75 2.23351
      vertex 5.80374 13.25 2.23351
    endloop
  endfacet
  facet normal -0.50905 0 0.860737
    outer loop
      vertex 5.80374 10.75 2.23351
      vertex 5.72263 13.25 2.18554
      vertex 5.72263 10.75 2.18554
    endloop
  endfacet
  facet normal 0.397148 0 -0.917755
    outer loop
      vertex 4.36133 10.75 4.85724
      vertex 4.44781 13.25 4.89466
      vertex 4.44781 10.75 4.89466
    endloop
  endfacet
  facet normal 0.397148 0 -0.917755
    outer loop
      vertex 4.44781 13.25 4.89466
      vertex 4.36133 10.75 4.85724
      vertex 4.36133 13.25 4.85724
    endloop
  endfacet
  facet normal -0.278992 0 0.960293
    outer loop
      vertex 5.37303 13.25 2.04712
      vertex 5.46352 10.75 2.07341
      vertex 5.46352 13.25 2.07341
    endloop
  endfacet
  facet normal -0.278992 0 0.960293
    outer loop
      vertex 5.46352 10.75 2.07341
      vertex 5.37303 13.25 2.04712
      vertex 5.37303 10.75 2.04712
    endloop
  endfacet
  facet normal -0.218147 0 0.975916
    outer loop
      vertex 5.28107 13.25 2.02657
      vertex 5.37303 10.75 2.04712
      vertex 5.37303 13.25 2.04712
    endloop
  endfacet
  facet normal -0.218147 0 0.975916
    outer loop
      vertex 5.37303 10.75 2.04712
      vertex 5.28107 13.25 2.02657
      vertex 5.28107 10.75 2.02657
    endloop
  endfacet
  facet normal -0.338742 0 0.940879
    outer loop
      vertex 5.46352 13.25 2.07341
      vertex 5.55219 10.75 2.10534
      vertex 5.55219 13.25 2.10534
    endloop
  endfacet
  facet normal -0.338742 0 0.940879
    outer loop
      vertex 5.55219 10.75 2.10534
      vertex 5.46352 13.25 2.07341
      vertex 5.46352 10.75 2.07341
    endloop
  endfacet
endsolid OpenSCAD_Model
