solid OpenSCAD_Model
  facet normal -1 0 0
    outer loop
      vertex -79.5 -67 -5.225
      vertex -79.5 67 5.225
      vertex -79.5 67 -5.225
    endloop
  endfacet
  facet normal -1 -0 0
    outer loop
      vertex -79.5 67 5.225
      vertex -79.5 -67 -5.225
      vertex -79.5 -67 5.225
    endloop
  endfacet
  facet normal 0 0 1
    outer loop
      vertex 79.5 67 5.225
      vertex 74.5 62 5.225
      vertex 79.5 -67 5.225
    endloop
  endfacet
  facet normal 0 0 1
    outer loop
      vertex 79.5 67 5.225
      vertex -74.5 62 5.225
      vertex 74.5 62 5.225
    endloop
  endfacet
  facet normal 0 0 1
    outer loop
      vertex -74.5 62 5.225
      vertex -79.5 67 5.225
      vertex -74.5 -62 5.225
    endloop
  endfacet
  facet normal -0 0 1
    outer loop
      vertex -79.5 67 5.225
      vertex -74.5 62 5.225
      vertex 79.5 67 5.225
    endloop
  endfacet
  facet normal -0 0 1
    outer loop
      vertex 74.5 -62 5.225
      vertex 79.5 -67 5.225
      vertex 74.5 62 5.225
    endloop
  endfacet
  facet normal -0 0 1
    outer loop
      vertex -74.5 -62 5.225
      vertex 79.5 -67 5.225
      vertex 74.5 -62 5.225
    endloop
  endfacet
  facet normal 0 0 1
    outer loop
      vertex -74.5 -62 5.225
      vertex -79.5 -67 5.225
      vertex 79.5 -67 5.225
    endloop
  endfacet
  facet normal 0 0 1
    outer loop
      vertex -79.5 -67 5.225
      vertex -74.5 -62 5.225
      vertex -79.5 67 5.225
    endloop
  endfacet
  facet normal 1 -0 0
    outer loop
      vertex 79.5 -67 5.225
      vertex 79.5 67 -5.225
      vertex 79.5 67 5.225
    endloop
  endfacet
  facet normal 1 0 0
    outer loop
      vertex 79.5 67 -5.225
      vertex 79.5 -67 5.225
      vertex 79.5 -67 -5.225
    endloop
  endfacet
  facet normal 0 1 -0
    outer loop
      vertex 79.5 67 -5.225
      vertex -79.5 67 5.225
      vertex 79.5 67 5.225
    endloop
  endfacet
  facet normal 0 1 0
    outer loop
      vertex -79.5 67 5.225
      vertex 79.5 67 -5.225
      vertex -79.5 67 -5.225
    endloop
  endfacet
  facet normal 0 0 -1
    outer loop
      vertex 79.5 -67 -5.225
      vertex 74.5 -62 -5.225
      vertex 79.5 67 -5.225
    endloop
  endfacet
  facet normal 0 0 -1
    outer loop
      vertex 79.5 -67 -5.225
      vertex -74.5 -62 -5.225
      vertex 74.5 -62 -5.225
    endloop
  endfacet
  facet normal -0 0 -1
    outer loop
      vertex -74.5 -62 -5.225
      vertex -79.5 -67 -5.225
      vertex -74.5 62 -5.225
    endloop
  endfacet
  facet normal 0 0 -1
    outer loop
      vertex -79.5 -67 -5.225
      vertex -74.5 -62 -5.225
      vertex 79.5 -67 -5.225
    endloop
  endfacet
  facet normal 0 0 -1
    outer loop
      vertex 74.5 62 -5.225
      vertex 79.5 67 -5.225
      vertex 74.5 -62 -5.225
    endloop
  endfacet
  facet normal 0 0 -1
    outer loop
      vertex -74.5 62 -5.225
      vertex 79.5 67 -5.225
      vertex 74.5 62 -5.225
    endloop
  endfacet
  facet normal 0 0 -1
    outer loop
      vertex -74.5 62 -5.225
      vertex -79.5 67 -5.225
      vertex 79.5 67 -5.225
    endloop
  endfacet
  facet normal 0 0 -1
    outer loop
      vertex -79.5 67 -5.225
      vertex -74.5 62 -5.225
      vertex -79.5 -67 -5.225
    endloop
  endfacet
  facet normal 0 -1 0
    outer loop
      vertex -79.5 -67 -5.225
      vertex 79.5 -67 5.225
      vertex -79.5 -67 5.225
    endloop
  endfacet
  facet normal 0 -1 -0
    outer loop
      vertex 79.5 -67 5.225
      vertex -79.5 -67 -5.225
      vertex 79.5 -67 -5.225
    endloop
  endfacet
  facet normal 1 -0 0
    outer loop
      vertex -74.5 -62 5.225
      vertex -74.5 62 -5.225
      vertex -74.5 62 5.225
    endloop
  endfacet
  facet normal 1 0 0
    outer loop
      vertex -74.5 62 -5.225
      vertex -74.5 -62 5.225
      vertex -74.5 -62 -5.225
    endloop
  endfacet
  facet normal -1 0 0
    outer loop
      vertex 74.5 -62 -5.225
      vertex 74.5 62 5.225
      vertex 74.5 62 -5.225
    endloop
  endfacet
  facet normal -1 -0 0
    outer loop
      vertex 74.5 62 5.225
      vertex 74.5 -62 -5.225
      vertex 74.5 -62 5.225
    endloop
  endfacet
  facet normal 0 -1 0
    outer loop
      vertex -74.5 62 -5.225
      vertex 74.5 62 5.225
      vertex -74.5 62 5.225
    endloop
  endfacet
  facet normal 0 -1 -0
    outer loop
      vertex 74.5 62 5.225
      vertex -74.5 62 -5.225
      vertex 74.5 62 -5.225
    endloop
  endfacet
  facet normal 0 1 -0
    outer loop
      vertex 74.5 -62 -5.225
      vertex -74.5 -62 5.225
      vertex 74.5 -62 5.225
    endloop
  endfacet
  facet normal 0 1 0
    outer loop
      vertex -74.5 -62 5.225
      vertex 74.5 -62 -5.225
      vertex -74.5 -62 -5.225
    endloop
  endfacet
endsolid OpenSCAD_Model
