solid OpenSCAD_Model
  facet normal -1 0 0
    outer loop
      vertex -79 -54 -3.875
      vertex -79 54 3.875
      vertex -79 54 -3.875
    endloop
  endfacet
  facet normal -1 -0 0
    outer loop
      vertex -79 54 3.875
      vertex -79 -54 -3.875
      vertex -79 -54 3.875
    endloop
  endfacet
  facet normal 0 0 1
    outer loop
      vertex 79 54 3.875
      vertex 74 49 3.875
      vertex 79 -54 3.875
    endloop
  endfacet
  facet normal 0 0 1
    outer loop
      vertex 79 54 3.875
      vertex -74 49 3.875
      vertex 74 49 3.875
    endloop
  endfacet
  facet normal 0 0 1
    outer loop
      vertex -74 49 3.875
      vertex -79 54 3.875
      vertex -74 -49 3.875
    endloop
  endfacet
  facet normal -0 0 1
    outer loop
      vertex -79 54 3.875
      vertex -74 49 3.875
      vertex 79 54 3.875
    endloop
  endfacet
  facet normal -0 0 1
    outer loop
      vertex 74 -49 3.875
      vertex 79 -54 3.875
      vertex 74 49 3.875
    endloop
  endfacet
  facet normal -0 0 1
    outer loop
      vertex -74 -49 3.875
      vertex 79 -54 3.875
      vertex 74 -49 3.875
    endloop
  endfacet
  facet normal 0 0 1
    outer loop
      vertex -74 -49 3.875
      vertex -79 -54 3.875
      vertex 79 -54 3.875
    endloop
  endfacet
  facet normal 0 0 1
    outer loop
      vertex -79 -54 3.875
      vertex -74 -49 3.875
      vertex -79 54 3.875
    endloop
  endfacet
  facet normal 1 -0 0
    outer loop
      vertex 79 -54 3.875
      vertex 79 54 -3.875
      vertex 79 54 3.875
    endloop
  endfacet
  facet normal 1 0 0
    outer loop
      vertex 79 54 -3.875
      vertex 79 -54 3.875
      vertex 79 -54 -3.875
    endloop
  endfacet
  facet normal 0 1 -0
    outer loop
      vertex 79 54 -3.875
      vertex -79 54 3.875
      vertex 79 54 3.875
    endloop
  endfacet
  facet normal 0 1 0
    outer loop
      vertex -79 54 3.875
      vertex 79 54 -3.875
      vertex -79 54 -3.875
    endloop
  endfacet
  facet normal 0 0 -1
    outer loop
      vertex 79 -54 -3.875
      vertex 74 -49 -3.875
      vertex 79 54 -3.875
    endloop
  endfacet
  facet normal 0 0 -1
    outer loop
      vertex 79 -54 -3.875
      vertex -74 -49 -3.875
      vertex 74 -49 -3.875
    endloop
  endfacet
  facet normal -0 0 -1
    outer loop
      vertex -74 -49 -3.875
      vertex -79 -54 -3.875
      vertex -74 49 -3.875
    endloop
  endfacet
  facet normal 0 0 -1
    outer loop
      vertex -79 -54 -3.875
      vertex -74 -49 -3.875
      vertex 79 -54 -3.875
    endloop
  endfacet
  facet normal 0 0 -1
    outer loop
      vertex 74 49 -3.875
      vertex 79 54 -3.875
      vertex 74 -49 -3.875
    endloop
  endfacet
  facet normal 0 0 -1
    outer loop
      vertex -74 49 -3.875
      vertex 79 54 -3.875
      vertex 74 49 -3.875
    endloop
  endfacet
  facet normal 0 0 -1
    outer loop
      vertex -74 49 -3.875
      vertex -79 54 -3.875
      vertex 79 54 -3.875
    endloop
  endfacet
  facet normal 0 0 -1
    outer loop
      vertex -79 54 -3.875
      vertex -74 49 -3.875
      vertex -79 -54 -3.875
    endloop
  endfacet
  facet normal 0 -1 0
    outer loop
      vertex -79 -54 -3.875
      vertex 79 -54 3.875
      vertex -79 -54 3.875
    endloop
  endfacet
  facet normal 0 -1 -0
    outer loop
      vertex 79 -54 3.875
      vertex -79 -54 -3.875
      vertex 79 -54 -3.875
    endloop
  endfacet
  facet normal 1 -0 0
    outer loop
      vertex -74 -49 3.875
      vertex -74 49 -3.875
      vertex -74 49 3.875
    endloop
  endfacet
  facet normal 1 0 0
    outer loop
      vertex -74 49 -3.875
      vertex -74 -49 3.875
      vertex -74 -49 -3.875
    endloop
  endfacet
  facet normal -1 0 0
    outer loop
      vertex 74 -49 -3.875
      vertex 74 49 3.875
      vertex 74 49 -3.875
    endloop
  endfacet
  facet normal -1 -0 0
    outer loop
      vertex 74 49 3.875
      vertex 74 -49 -3.875
      vertex 74 -49 3.875
    endloop
  endfacet
  facet normal 0 -1 0
    outer loop
      vertex -74 49 -3.875
      vertex 74 49 3.875
      vertex -74 49 3.875
    endloop
  endfacet
  facet normal 0 -1 -0
    outer loop
      vertex 74 49 3.875
      vertex -74 49 -3.875
      vertex 74 49 -3.875
    endloop
  endfacet
  facet normal 0 1 -0
    outer loop
      vertex 74 -49 -3.875
      vertex -74 -49 3.875
      vertex 74 -49 3.875
    endloop
  endfacet
  facet normal 0 1 0
    outer loop
      vertex -74 -49 3.875
      vertex 74 -49 -3.875
      vertex -74 -49 -3.875
    endloop
  endfacet
endsolid OpenSCAD_Model
